{
.formatVersion = 3;
classes = (
{
code = "uni0622 uni0623 uni0624 uni0625 uni0627 uni0629 uni062F uni0630 uni0671 uni0672 uni0673 uni0675 uni0677 uni0688 uni06C0 uni06D2 uni06D3 uniFEDF uni0627.short";
name = aalt;
},
{
code = "uniFE82 uniFE84 uniFE86 uniFE88 uniFE8E uniFE94 uniFEAA uniFEAC uniFB51 uni0672.fina uni0673.fina uni0675.fina glyph2248 uniFB89 uniFBA5 uniFBAF uniFBB1 uniFEDF.alt1 uniFE8E.short";
name = aalt2;
},
{
code = "uni0622 uni0623 uni0624 uni0625 uni0626 uni0627 uni0628 uni0629 uni062A uni062B uni062C uni062D uni062E uni062F uni0630 uni0631 uni0632 uni0633 uni0634 uni0635 uni0636 uni0637 uni0638 uni0639 uni063A uni0641 uni0642 uni0643 uni0644 uni0645 uni0646 uni0647 uni0648 uni0649 uni064A uni0671 uni0672 uni0673 uni0675 uni0676 uni0678 uni0679 uni067E uni0686 uni0688 uni0691 uni06A1 uni06A9 uni06AF uni06BA uni06BE uni06C0 uni06CC uni06D2 uni06D3 uni0627.short";
name = fina;
},
{
code = "uniFE82 uniFE84 uniFE86 uniFE88 uniFE8A uniFE8E uniFE90 uniFE94 uniFE96 uniFE9A uniFE9E uniFEA2 uniFEA6 uniFEAA uniFEAC uniFEAE uniFEB0 uniFEB2 uniFEB6 uniFEBA uniFEBE uniFEC2 uniFEC6 uniFECA uniFECE uniFED2 uniFED6 uniFEDA uniFEDE uniFEE2 uniFEE6 uniFEEA uniFEEE uniFEF0 uniFEF2 uniFB51 uni0672.fina uni0673.fina uni0675.fina uni0676.fina uni0678.fina uniFB67 uniFB57 uniFB7B uniFB89 uniFB8D uni06A1.fina uniFB8F uniFB93 uniFB9F uniFBAB uniFBA5 uniFBFD uniFBAF uniFBB1 uniFE8E.short";
name = fina2;
},
{
code = "uniFE8B uniFE91 uniFE97 uniFE9B uniFE9F uniFEA3 uniFEA7 uniFEB3 uniFEB7 uniFEBB uniFEBF uniFEC3 uniFEC7 uniFECB uniFECF uniFED3 uniFED7 uniFEDB uniFEDF uniFEE3 uniFEE7 uniFEEB uniFBE8 uniFBFE uniFE8B uniFB68 uniFB58 uniFB7C uni06A1.init uniFB90 uniFB94 uniFEE7 uniFBAC uniFBA8 uniFBFE";
name = init;
},
{
code = "uni0631 uni0632 uni0644 uni0646 uni0647 uni0648 uni0649 uni064A uni0676 uni0677 uni0691 uni06BA uniFEDF";
name = init_isol;
},
{

glyphs = (
{
glyphname = .notdef;
layers = (
{
layerId = "07A927BF-F932-4906-9D1A-F4B6A9E74CB4";
shapes = (
{
closed = 1;
nodes = (
(279,148,l),
(279,234,l),
(351,234,l),
(351,148,l)
);
},
{
closed = 1;
nodes = (
(286,298,l),
(284,319,l),
(284,389,o),
(303,426,qs),
(317,454,o),
(361,499,qs),
(399,538,o),
(412,560,qs),
(423,579,o),
(423,604,qs),
(423,649,o),
(392,681,qs),
(363,712,o),
(327,712,qs),
(284,712,o),
(228,655,o),
(222,591,q),
(158,601,l),
(167,691,o),
(261,776,o),
(397,776,o),
(442,730,qs),
(488,683,o),
(488,609,qs),
(488,567,o),
(473,537,qs),
(458,507,o),
(412,464,qs),
(359,415,o),
(354,387,q),
(345,365,o),
(345,298,q)
);
},
{
closed = 1;
nodes = (
(597,55,l),
(597,859,l),
(54,859,l),
(54,55,l)
);
},
{
closed = 1;
nodes = (
(651,914,l),
(651,0,l),
(0,0,l),
(0,914,l)
);
}
);
width = 650;
}
);
},
{
glyphname = exclam;
layers = (
{
layerId = "07A927BF-F932-4906-9D1A-F4B6A9E74CB4";
shapes = (
{
closed = 1;
nodes = (
(156,1286,l),
(165,1284,l),
(170,1282,o),
(177,1280,q),
(179,1279,ls),
(184,1276,o),
(191,1272,qs),
(196,1270,o),
(202,1264,q),
(211,1257,l),
(221,1245,ls),
(224,1241,o),
(228,1234,q),
(232,1230,o),
(235,1222,q),
(239,1217,o),
(241,1209,q),
(244,1204,o),
(247,1196,qs),
(248,1192,o),
(251,1184,q),
(251,1181,l),
(254,1175,o),
(255,1167,q),
(257,1161,o),
(258,1153,q),
(259,1151,l),
(260,1146,o),
(261,1138,q),
(262,1136,l),
(262,1129,o),
(264,1119,q),
(266,1102,l),
(266,1096,l),
(267,1090,l),
(267,980,l),
(266,978,l),
(266,972,l),
(265,965,o),
(265,954,q),
(263,937,l),
(263,932,o),
(262,925,q),
(262,922,l),
(261,920,l),
(260,903,l),
(258,896,o),
(258,886,q),
(256,879,o),
(255,870,qs),
(253,854,l),
(253,847,o),
(250,838,q),
(248,821,l),
(236,757,l),
(234,751,o),
(233,741,q),
(229,726,l),
(229,719,o),
(226,711,q),
(219,680,ls),
(217,673,o),
(216,664,q),
(214,657,ls),
(213,654,o),
(212,649,qs),
(211,644,o),
(209,637,q),
(208,635,l),
(207,628,o),
(204,619,q),
(203,613,o),
(201,607,q),
(201,604,l),
(198,598,o),
(197,589,q),
(194,583,o),
(193,574,q),
(190,568,o),
(189,559,q),
(184,545,l),
(183,539,o),
(180,531,q),
(174,509,ls),
(173,506,o),
(172,501,q),
(167,487,l),
(166,481,o),
(163,473,qs),
(162,468,o),
(159,461,q),
(159,458,l),
(157,452,o),
(154,444,qs),
(153,439,o),
(150,432,q),
(150,429,l),
(147,423,o),
(145,415,qs),
(143,409,o),
(140,401,q),
(136,387,ls),
(134,381,o),
(131,373,qs),
(129,369,o),
(127,361,q),
(126,359,l),
(126,349,o),
(119,348,q),
(116,364,l),
(112,378,l),
(109,394,ls),
(108,399,o),
(105,406,q),
(104,412,o),
(103,416,qs),
(98,440,l),
(96,446,o),
(94,455,qs),
(93,460,o),
(91,468,q),
(91,471,l),
(89,477,o),
(87,486,qs),
(70,562,l),
(69,569,o),
(67,578,qs),
(60,609,l),
(58,615,o),
(57,625,q),
(50,655,l),
(50,662,o),
(47,671,q),
(46,678,o),
(44,687,qs),
(41,703,ls),
(40,710,o),
(38,719,qs),
(37,726,o),
(35,735,qs),
(32,750,ls),
(31,757,o),
(29,766,q),
(29,771,o),
(27,779,q),
(27,782,l),
(25,788,o),
(24,799,q),
(22,806,l),
(14,864,ls),
(13,870,o),
(12,881,q),
(10,888,o),
(10,897,q),
(8,904,o),
(8,914,q),
(6,921,o),
(6,932,q),
(5,939,o),
(4,948,qs),
(3,955,l),
(3,965,l),
(0,995,l),
(0,1105,l),
(1,1107,l),
(1,1113,l),
(2,1127,l),
(5,1147,l),
(7,1153,o),
(8,1162,q),
(16,1192,ls),
(18,1198,o),
(20,1204,qs),
(23,1211,o),
(27,1219,qs),
(33,1231,l),
(37,1235,o),
(39,1241,q),
(41,1242,l),
(44,1247,o),
(50,1253,qs),
(53,1256,o),
(57,1261,q),
(70,1270,ls),
(74,1273,o),
(82,1276,q),
(88,1280,o),
(96,1282,qs),
(102,1283,o),
(110,1286,q)
);
},
{
closed = 1;
nodes = (
(137,260,o),
(142,257,q),
(142,256,o),
(144,255,q),
(147,251,o),
(152,246,qs),
(155,243,o),
(160,238,qs),
(163,235,o),
(168,230,qs),
(170,227,o),
(175,224,q),
(175,223,o),
(177,222,q),
(180,218,o),
(185,213,qs),
(188,210,o),
(193,205,qs),
(196,202,o),
(201,197,qs),
(204,194,o),
(209,189,qs),
(211,186,o),
(216,183,q),
(216,182,o),
(218,181,q),
(221,177,o),
(226,172,qs),
(229,169,o),
(234,164,qs),
(237,161,o),
(242,156,qs),
(245,153,o),
(250,148,qs),
(252,145,o),
(257,142,q),
(257,141,o),
(259,140,q),
(262,136,o),
(267,132,q),
(265,128,o),
(260,122,q),
(256,119,o),
(251,114,qs),
(248,111,o),
(243,106,qs),
(240,103,o),
(235,98,qs),
(232,96,o),
(229,91,q),
(228,91,o),
(227,89,q),
(223,86,o),
(218,81,qs),
(215,78,o),
(210,73,qs),
(207,70,o),
(202,65,qs),
(199,62,o),
(194,57,qs),
(191,55,o),
(188,50,q),
(187,50,o),
(186,48,q),
(182,45,o),
(177,40,qs),
(174,37,o),
(169,32,qs),
(166,29,o),
(161,24,qs),
(158,21,o),
(153,16,qs),
(150,14,o),
(147,9,q),
(146,9,o),
(145,7,qs),
(141,3,o),
(136,0,q),
(132,2,o),
(127,8,qs),
(124,11,o),
(119,16,qs),
(117,19,o),
(112,22,q),
(112,23,o),
(110,24,q),
(107,28,o),
(102,33,qs),
(99,36,o),
(94,41,qs),
(91,44,o),
(86,49,qs),
(84,52,o),
(79,55,q),
(79,56,o),
(77,57,q),
(74,61,o),
(69,65,q),
(66,69,o),
(61,74,qs),
(58,77,o),
(53,82,qs),
(50,85,o),
(45,90,qs),
(42,93,o),
(37,98,qs),
(35,101,o),
(30,104,q),
(30,105,o),
(28,106,q),
(25,110,o),
(20,115,qs),
(17,118,o),
(12,123,qs),
(8,126,o),
(5,131,q),
(8,134,o),
(13,139,qs),
(16,142,o),
(21,147,qs),
(24,149,o),
(27,154,q),
(28,154,o),
(29,156,q),
(33,159,o),
(38,164,qs),
(41,167,o),
(46,172,qs),
(49,175,o),
(54,180,qs),
(57,182,o),
(60,187,q),
(61,187,o),
(62,189,q),
(66,192,o),
(70,197,q),
(74,200,o),
(79,205,qs),
(82,208,o),
(87,213,qs),
(90,216,o),
(95,221,qs),
(98,224,o),
(103,229,qs),
(106,231,o),
(109,236,q),
(110,236,o),
(111,238,q),
(115,241,o),
(120,246,qs),
(123,249,o),
(124,250,qs),
(132,258,o),
(135,263,q)
);
}
);
width = 378;
}
);
unicode = 33;
},
{
glyphname = quotedbl;
layers = (
{
layerId = "07A927BF-F932-4906-9D1A-F4B6A9E74CB4";
shapes = (
{
closed = 1;
nodes = (
(535,870,l),
(450,659,l),
(367,659,l),
(367,1098,l),
(535,1098,l)
);
},
{
closed = 1;
nodes = (
(276,870,l),
(190,659,l),
(108,659,l),
(108,862,l),
(108,1098,l),
(276,1098,l)
);
}
);
width = 619;
}
);
unicode = 34;
},
{
glyphname = numbersign;
layers = (
{
layerId = "07A927BF-F932-4906-9D1A-F4B6A9E74CB4";
shapes = (
{
closed = 1;
nodes = (
(602,347,l),
(386,347,l),
(319,0,l),
(191,0,l),
(258,347,l),
(60,347,l),
(60,464,l),
(282,464,l),
(340,758,l),
(124,758,l),
(124,878,l),
(362,878,l),
(433,1230,l),
(559,1230,l),
(492,878,l),
(707,878,l),
(775,1230,l),
(904,1230,l),
(834,878,l),
(1002,878,l),
(1002,758,l),
(811,758,l),
(754,464,l),
(938,464,l),
(938,347,l),
(730,347,l),
(662,0,l),
(535,0,l)
);
},
{
closed = 1;
nodes = (
(410,464,l),
(625,464,l),
(683,758,l),
(467,758,l)
);
}
);
width = 1078;
}
);
unicode = 35;
},
{
glyphname = dollar;
layers = (
{
layerId = "07A927BF-F932-4906-9D1A-F4B6A9E74CB4";
shapes = (
{
closed = 1;
nodes = (
(731,423,o),
(623,530,o),
(499,572,q),
(331,623,o),
(155,796,o),
(155,939,qs),
(155,1078,o),
(316,1256,o),
(455,1274,q),
(455,1458,l),
(589,1458,l),
(589,1272,l),
(730,1253,o),
(886,1059,o),
(886,896,q),
(719,896,l),
(719,1004,o),
(614,1137,o),
(511,1137,qs),
(419,1137,o),
(322,1032,o),
(322,946,qs),
(322,861,o),
(423,759,o),
(560,713,qs),
(730,657,o),
(898,492,o),
(898,348,qs),
(898,204,o),
(723,32,o),
(571,16,q),
(571,-146,l),
(437,-146,l),
(437,15,l),
(295,30,o),
(108,212,o),
(112,387,q),
(113,392,l),
(272,392,l),
(272,262,o),
(403,152,o),
(507,152,qs),
(608,152,o),
(731,255,o),
(731,342,qs)
);
}
);
width = 1007;
}
);
unicode = 36;
},
{
glyphname = percent;
layers = (
{
layerId = "07A927BF-F932-4906-9D1A-F4B6A9E74CB4";
shapes = (
{
closed = 1;
nodes = (
(88,996,ls),
(88,1102,o),
(226,1251,o),
(342,1251,qs),
(459,1251,o),
(597,1104,o),
(597,996,qs),
(597,932,ls),
(597,824,o),
(459,679,o),
(345,679,qs),
(228,679,o),
(88,825,o),
(88,932,qs)
);
},
{
closed = 1;
nodes = (
(212,932,ls),
(212,869,o),
(280,783,o),
(343,783,qs),
(405,783,o),
(473,868,o),
(473,932,qs),
(473,996,ls),
(473,1057,o),
(405,1147,o),
(342,1147,qs),
(279,1147,o),
(212,1058,o),
(212,996,qs)
);
},
{
closed = 1;
nodes = (
(683,305,ls),
(683,413,o),
(823,559,o),
(940,559,qs),
(1055,559,o),
(1193,412,o),
(1193,305,qs),
(1193,239,ls),
(1193,131,o),
(1055,-15,o),
(941,-15,qs),
(825,-15,o),
(683,131,o),
(683,239,qs)
);
},
{
closed = 1;
nodes = (
(807,239,ls),
(807,176,o),
(877,89,o),
(940,89,qs),
(1002,89,o),
(1069,176,o),
(1069,239,qs),
(1069,305,ls),
(1069,368,o),
(1001,455,o),
(940,455,qs),
(877,455,o),
(807,368,o),
(807,305,qs)
);
},
{
closed = 1;
nodes = (
(387,98,l),
(296,154,l),
(896,1113,l),
(988,1056,l)
);
}
);
width = 1265;
}
);
unicode = 37;
},
{
glyphname = ampersand;
layers = (
{
layerId = "07A927BF-F932-4906-9D1A-F4B6A9E74CB4";
shapes = (
{
closed = 1;
nodes = (
(54,437,o),
(173,592,o),
(292,669,q),
(226,753,o),
(161,884,o),
(161,964,qs),
(161,1095,o),
(326,1251,o),
(466,1251,qs),
(604,1251,o),
(770,1097,o),
(770,988,qs),
(770,907,o),
(682,786,o),
(595,722,qs),
(504,655,l),
(791,309,l),
(825,364,o),
(862,497,o),
(862,572,q),
(1013,572,l),
(1013,460,o),
(947,271,o),
(884,195,q),
(1042,7,l),
(1039,3,l),
(844,3,l),
(774,89,l),
(706,39,o),
(542,-15,o),
(449,-15,qs),
(271,-15,o),
(54,179,o),
(54,328,qs)
);
},
{
closed = 1;
nodes = (
(516,116,o),
(634,158,o),
(686,195,q),
(382,562,l),
(348,538,ls),
(271,481,o),
(221,376,o),
(221,323,qs),
(221,238,o),
(340,116,o),
(452,116,qs)
);
},
{
closed = 1;
nodes = (
(328,911,o),
(373,813,o),
(420,755,q),
(535,836,ls),
(582,869,o),
(619,943,o),
(619,982,qs),
(619,1040,o),
(536,1120,o),
(472,1120,qs),
(402,1120,o),
(328,1024,o),
(328,960,qs)
);
}
);
width = 1078;
}
);
unicode = 38;
},
{
glyphname = quotesingle;
layers = (
{
layerId = "07A927BF-F932-4906-9D1A-F4B6A9E74CB4";
shapes = (
{
closed = 1;
nodes = (
(274,908,l),
(189,670,l),
(108,670,l),
(108,893,l),
(108,1096,l),
(274,1096,l)
);
}
);
width = 377;
}
);
unicode = 39;
},
{
glyphname = parenleft;
layers = (
{
layerId = "07A927BF-F932-4906-9D1A-F4B6A9E74CB4";
shapes = (
{
closed = 1;
nodes = (
(113,564,ls),
(113,898,o),
(381,1368,o),
(528,1448,q),
(533,1446,l),
(564,1348,l),
(450,1258,o),
(277,860,o),
(277,566,qs),
(277,555,ls),
(277,263,o),
(449,-136,o),
(564,-235,q),
(533,-326,l),
(528,-326,l),
(381,-248,o),
(113,224,o),
(113,557,qs)
);
}
);
width = 572;
}
);
unicode = 40;
},
{
glyphname = parenright;
layers = (
{
layerId = "07A927BF-F932-4906-9D1A-F4B6A9E74CB4";
shapes = (
{
closed = 1;
nodes = (
(459,557,ls),
(459,222,o),
(190,-248,o),
(42,-326,q),
(36,-326,l),
(5,-235,l),
(119,-146,o),
(293,261,o),
(293,555,qs),
(293,566,ls),
(293,855,o),
(114,1263,o),
(5,1355,q),
(36,1448,l),
(42,1448,l),
(189,1368,o),
(459,898,o),
(459,564,qs)
);
}
);
width = 581;
}
);
unicode = 41;
},
{
glyphname = asterisk;
layers = (
{
layerId = "07A927BF-F932-4906-9D1A-F4B6A9E74CB4";
shapes = (
{
closed = 1;
nodes = (
(273,533,l),
(74,590,l),
(116,720,l),
(314,644,l),
(306,860,l),
(442,860,l),
(434,639,l),
(631,714,l),
(672,581,l),
(466,525,l),
(596,356,l),
(484,274,l),
(367,459,l),
(252,281,l),
(140,359,l)
);
}
);
width = 746;
}
);
unicode = 42;
},
{
glyphname = plus;
layers = (
{
layerId = "07A927BF-F932-4906-9D1A-F4B6A9E74CB4";
shapes = (
{
closed = 1;
nodes = (
(573,641,l),
(910,641,l),
(910,491,l),
(573,491,l),
(573,103,l),
(406,103,l),
(406,491,l),
(65,491,l),
(65,641,l),
(406,641,l),
(406,998,l),
(573,998,l)
);
}
);
width = 982;
}
);
unicode = 43;
},
{
glyphname = comma;
layers = (
{
layerId = "07A927BF-F932-4906-9D1A-F4B6A9E74CB4";
shapes = (
{
closed = 1;
nodes = (
(267,77,l),
(139,-182,l),
(41,-182,l),
(99,86,l),
(99,224,l),
(267,224,l)
);
}
);
width = 341;
}
);
unicode = 44;
},
{
glyphname = hyphen;
layers = (
{
layerId = "07A927BF-F932-4906-9D1A-F4B6A9E74CB4";
shapes = (
{
closed = 1;
nodes = (
(641,378,l),
(142,378,l),
(142,509,l),
(641,509,l)
);
}
);
width = 780;
}
);
unicode = 45;
},
{
glyphname = period;
layers = (
{
layerId = "07A927BF-F932-4906-9D1A-F4B6A9E74CB4";
shapes = (
{
closed = 1;
nodes = (
(303,0,l),
(137,0,l),
(137,170,l),
(303,170,l)
);
}
);
width = 464;
}
);
unicode = 46;
},
{
glyphname = slash;
layers = (
{
layerId = "07A927BF-F932-4906-9D1A-F4B6A9E74CB4";
shapes = (
{
closed = 1;
nodes = (
(156,-88,l),
(13,-88,l),
(527,1248,l),
(668,1248,l)
);
}
);
width = 717;
}
);
unicode = 47;
},
{
glyphname = zero;
layers = (
{
layerId = "07A927BF-F932-4906-9D1A-F4B6A9E74CB4";
shapes = (
{
closed = 1;
nodes = (
(879,437,ls),
(879,229,o),
(666,-15,o),
(487,-15,qs),
(310,-15,o),
(95,229,o),
(95,437,qs),
(95,799,ls),
(95,1006,o),
(307,1251,o),
(486,1251,qs),
(665,1251,o),
(879,1006,o),
(879,799,qs)
);
},
{
closed = 1;
nodes = (
(712,833,ls),
(712,965,o),
(593,1120,o),
(486,1120,qs),
(378,1120,o),
(262,965,o),
(262,833,qs),
(262,404,ls),
(262,271,o),
(382,116,o),
(488,116,qs),
(595,116,o),
(712,269,o),
(712,404,qs)
);
}
);
width = 974;
}
);
unicode = 48;
},
{
glyphname = one;
layers = (
{
layerId = "07A927BF-F932-4906-9D1A-F4B6A9E74CB4";
shapes = (
{
closed = 1;
nodes = (
(600,0,l),
(434,0,l),
(434,1075,l),
(166,1075,l),
(166,1202,l),
(600,1248,l)
);
}
);
width = 973;
}
);
unicode = 49;
},
{
glyphname = two;
layers = (
{
layerId = "07A927BF-F932-4906-9D1A-F4B6A9E74CB4";
shapes = (
{
closed = 1;
nodes = (
(891,0,l),
(127,0,l),
(127,115,l),
(514,575,ls),
(617,698,o),
(689,847,o),
(689,922,qs),
(689,1008,o),
(589,1117,o),
(497,1117,qs),
(394,1117,o),
(279,983,o),
(279,884,q),
(118,884,l),
(117,889,l),
(117,1039,o),
(322,1248,o),
(501,1248,qs),
(666,1248,o),
(856,1066,o),
(856,927,qs),
(856,824,o),
(755,633,o),
(639,498,qs),
(329,135,l),
(330,131,l),
(891,131,l)
);
}
);
width = 974;
}
);
unicode = 50;
},
{
glyphname = three;
layers = (
{
layerId = "07A927BF-F932-4906-9D1A-F4B6A9E74CB4";
shapes = (
{
closed = 1;
nodes = (
(488,701,ls),
(601,701,o),
(693,813,o),
(693,908,qs),
(693,1005,o),
(593,1120,o),
(495,1120,qs),
(397,1120,o),
(271,1000,o),
(271,911,q),
(113,911,l),
(109,917,l),
(104,1055,o),
(324,1251,o),
(499,1251,qs),
(665,1251,o),
(859,1078,o),
(859,909,qs),
(859,824,o),
(769,681,o),
(687,641,q),
(780,605,o),
(877,453,o),
(877,342,qs),
(877,176,o),
(665,-15,o),
(498,-15,qs),
(336,-15,o),
(102,170,o),
(102,322,q),
(103,327,l),
(261,327,l),
(261,237,o),
(391,116,o),
(492,116,qs),
(594,116,o),
(711,242,o),
(711,351,qs),
(711,458,o),
(603,573,o),
(488,573,qs),
(353,573,l),
(353,701,l)
);
}
);
width = 973;
}
);
unicode = 51;
},
{
glyphname = four;
layers = (
{
layerId = "07A927BF-F932-4906-9D1A-F4B6A9E74CB4";
shapes = (
{
closed = 1;
nodes = (
(753,414,l),
(924,414,l),
(924,284,l),
(753,284,l),
(753,0,l),
(589,0,l),
(589,284,l),
(61,284,l),
(61,378,l),
(578,1230,l),
(753,1230,l)
);
},
{
closed = 1;
nodes = (
(239,414,l),
(589,414,l),
(589,991,l),
(583,991,l),
(569,949,l)
);
}
);
width = 973;
}
);
unicode = 52;
},
{
glyphname = five;
layers = (
{
layerId = "07A927BF-F932-4906-9D1A-F4B6A9E74CB4";
shapes = (
{
closed = 1;
nodes = (
(147,550,l),
(218,1233,l),
(834,1233,l),
(834,1085,l),
(358,1085,l),
(319,731,l),
(360,761,o),
(454,799,o),
(517,799,qs),
(687,799,o),
(880,584,o),
(880,396,qs),
(880,209,o),
(682,-15,o),
(497,-15,qs),
(336,-15,o),
(133,155,o),
(133,322,q),
(134,327,l),
(285,327,l),
(285,226,o),
(400,116,o),
(492,116,qs),
(597,116,o),
(715,265,o),
(715,389,qs),
(715,512,o),
(597,656,o),
(492,656,qs),
(394,656,o),
(306,596,o),
(285,535,q)
);
}
);
width = 972;
}
);
unicode = 53;
},
{
glyphname = six;
layers = (
{
layerId = "07A927BF-F932-4906-9D1A-F4B6A9E74CB4";
shapes = (
{
closed = 1;
nodes = (
(614,1251,o),
(756,1221,o),
(802,1201,q),
(766,1072,l),
(718,1095,o),
(613,1120,o),
(542,1120,qs),
(426,1120,o),
(282,922,o),
(282,771,qs),
(282,676,l),
(334,728,o),
(475,787,o),
(557,787,qs),
(714,787,o),
(898,573,o),
(898,398,qs),
(898,211,o),
(693,-15,o),
(525,-15,qs),
(347,-15,o),
(116,245,o),
(116,470,qs),
(116,753,ls),
(116,968,o),
(362,1251,o),
(551,1251,qs)
);
},
{
closed = 1;
nodes = (
(424,662,o),
(311,596,o),
(282,538,q),
(282,453,ls),
(282,297,o),
(418,116,o),
(522,116,qs),
(620,116,o),
(732,274,o),
(732,395,qs),
(732,520,o),
(613,662,o),
(502,662,qs)
);
}
);
width = 972;
}
);
unicode = 54;
},
{
glyphname = seven;
layers = (
{
layerId = "07A927BF-F932-4906-9D1A-F4B6A9E74CB4";
shapes = (
{
closed = 1;
nodes = (
(898,1099,l),
(665,822,o),
(501,398,o),
(501,134,qs),
(501,0,l),
(335,0,l),
(335,134,ls),
(335,413,o),
(540,859,o),
(735,1099,q),
(83,1099,l),
(83,1230,l),
(898,1230,l)
);
}
);
width = 974;
}
);
unicode = 55;
},
{
glyphname = eight;
layers = (
{
layerId = "07A927BF-F932-4906-9D1A-F4B6A9E74CB4";
shapes = (
{
closed = 1;
nodes = (
(853,823,o),
(745,677,o),
(656,639,q),
(759,604,o),
(886,445,o),
(886,327,qs),
(886,171,o),
(667,-15,o),
(491,-15,qs),
(314,-15,o),
(86,171,o),
(86,330,qs),
(86,446,o),
(214,604,o),
(325,640,q),
(230,677,o),
(120,823,o),
(120,930,qs),
(120,1081,o),
(327,1251,o),
(490,1251,qs),
(652,1251,o),
(853,1079,o),
(853,931,qs)
);
},
{
closed = 1;
nodes = (
(720,445,o),
(591,575,o),
(490,575,qs),
(388,575,o),
(252,445,o),
(252,343,qs),
(252,239,o),
(388,116,o),
(491,116,qs),
(593,116,o),
(720,241,o),
(720,344,qs)
);
},
{
closed = 1;
nodes = (
(687,1005,o),
(577,1120,o),
(490,1120,qs),
(403,1120,o),
(286,1009,o),
(286,917,qs),
(286,823,o),
(406,706,o),
(493,706,qs),
(579,706,o),
(687,823,o),
(687,915,qs)
);
}
);
width = 972;
}
);
unicode = 56;
},
{
glyphname = nine;
layers = (
{
layerId = "07A927BF-F932-4906-9D1A-F4B6A9E74CB4";
shapes = (
{
closed = 1;
nodes = (
(545,116,o),
(690,279,o),
(690,431,qs),
(690,538,l),
(649,477,o),
(530,414,o),
(444,414,qs),
(281,414,o),
(78,634,o),
(78,822,qs),
(78,1015,o),
(295,1251,o),
(466,1251,qs),
(637,1251,o),
(858,1018,o),
(858,807,qs),
(858,433,ls),
(858,222,o),
(615,-15,o),
(425,-15,qs),
(360,-15,o),
(223,13,o),
(163,39,q),
(189,165,l),
(246,139,o),
(353,116,o),
(425,116,qs)
);
},
{
closed = 1;
nodes = (
(545,545,o),
(665,626,o),
(690,687,q),
(690,833,ls),
(690,970,o),
(569,1120,o),
(468,1120,qs),
(366,1120,o),
(246,959,o),
(246,828,qs),
(246,701,o),
(356,545,o),
(465,545,qs)
);
}
);
width = 973;
}
);
unicode = 57;
},
{
glyphname = colon;
layers = (
{
layerId = "07A927BF-F932-4906-9D1A-F4B6A9E74CB4";
shapes = (
{
closed = 1;
nodes = (
(303,0,l),
(137,0,l),
(137,170,l),
(303,170,l)
);
},
{
closed = 1;
nodes = (
(303,740,l),
(137,740,l),
(137,910,l),
(303,910,l)
);
}
);
width = 436;
}
);
unicode = 58;
},
{
glyphname = semicolon;
layers = (
{
layerId = "07A927BF-F932-4906-9D1A-F4B6A9E74CB4";
shapes = (
{
closed = 1;
nodes = (
(305,777,l),
(137,777,l),
(137,946,l),
(305,946,l)
);
},
{
closed = 1;
nodes = (
(310,77,l),
(182,-182,l),
(84,-182,l),
(142,86,l),
(142,224,l),
(310,224,l)
);
}
);
width = 444;
}
);
unicode = 59;
},
{
glyphname = less;
layers = (
{
layerId = "07A927BF-F932-4906-9D1A-F4B6A9E74CB4";
shapes = (
{
closed = 1;
nodes = (
(276,473,l),
(204,459,l),
(204,453,l),
(276,438,l),
(750,245,l),
(750,76,l),
(60,395,l),
(60,521,l),
(750,840,l),
(750,671,l)
);
}
);
width = 878;
}
);
unicode = 60;
},
{
glyphname = equal;
layers = (
{
layerId = "07A927BF-F932-4906-9D1A-F4B6A9E74CB4";
shapes = (
{
closed = 1;
nodes = (
(832,637,l),
(128,637,l),
(128,777,l),
(832,777,l)
);
},
{
closed = 1;
nodes = (
(832,285,l),
(128,285,l),
(128,425,l),
(832,425,l)
);
}
);
width = 972;
}
);
unicode = 61;
},
{
glyphname = greater;
layers = (
{
layerId = "07A927BF-F932-4906-9D1A-F4B6A9E74CB4";
shapes = (
{
closed = 1;
nodes = (
(115,662,l),
(115,825,l),
(837,507,l),
(837,381,l),
(115,62,l),
(115,226,l),
(620,428,l),
(692,441,l),
(692,447,l),
(620,464,l)
);
}
);
width = 904;
}
);
unicode = 62;
},
{
glyphname = question;
layers = (
{
layerId = "07A927BF-F932-4906-9D1A-F4B6A9E74CB4";
shapes = (
{
closed = 1;
nodes = (
(300,347,l),
(300,468,o),
(341,564,o),
(428,641,q),
(511,739,o),
(582,847,o),
(582,923,qs),
(582,1012,o),
(487,1108,o),
(400,1108,qs),
(320,1108,o),
(213,1025,o),
(213,943,q),
(54,943,l),
(51,948,l),
(51,1084,o),
(246,1248,o),
(403,1248,qs),
(564,1248,o),
(749,1078,o),
(749,932,qs),
(749,817,o),
(629,637,o),
(530,541,qs),
(485,498,o),
(467,424,o),
(467,347,q)
);
},
{
closed = 1;
nodes = (
(473,0,l),
(297,0,l),
(297,175,l),
(473,175,l)
);
}
);
width = 822;
}
);
unicode = 63;
},
{
glyphname = at;
layers = (
{
layerId = "07A927BF-F932-4906-9D1A-F4B6A9E74CB4";
shapes = (
{
closed = 1;
nodes = (
(1457,307,o),
(1269,46,o),
(1082,46,qs),
(1020,46,o),
(930,116,o),
(910,180,q),
(868,113,o),
(747,46,o),
(678,46,qs),
(560,46,o),
(444,250,o),
(459,415,qs),
(478,634,o),
(672,898,o),
(812,898,qs),
(900,898,o),
(1007,854,o),
(1071,810,q),
(1068,805,l),
(1073,805,l),
(1030,311,ls),
(1022,218,o),
(1074,148,o),
(1128,148,qs),
(1222,148,o),
(1347,340,o),
(1353,488,qs),
(1367,811,o),
(1097,1170,o),
(813,1170,qs),
(551,1170,o),
(235,781,o),
(222,466,qs),
(209,150,o),
(492,-220,o),
(752,-220,qs),
(832,-220,o),
(983,-184,o),
(1036,-155,q),
(1068,-244,l),
(1012,-281,o),
(837,-318,o),
(745,-318,qs),
(432,-318,o),
(80,103,o),
(96,465,qs),
(111,824,o),
(501,1272,o),
(822,1272,qs),
(1136,1272,o),
(1479,851,o),
(1464,488,qs)
);
},
{
closed = 1;
nodes = (
(598,295,o),
(654,170,o),
(727,170,qs),
(771,170,o),
(860,211,o),
(898,264,q),
(897,275,o),
(898,298,o),
(899,311,qs),
(939,767,l),
(917,775,o),
(868,788,o),
(841,788,qs),
(737,788,o),
(625,602,o),
(609,415,qs)
);
}
);
width = 1549;
}
);
unicode = 64;
},
{
glyphname = A;
layers = (
{
layerId = "07A927BF-F932-4906-9D1A-F4B6A9E74CB4";
shapes = (
{
closed = 1;
nodes = (
(780,317,l),
(316,317,l),
(206,0,l),
(36,0,l),
(479,1230,l),
(623,1230,l),
(1057,0,l),
(887,0,l)
);
},
{
closed = 1;
nodes = (
(365,456,l),
(732,456,l),
(552,984,l),
(547,984,l)
);
}
);
width = 1094;
}
);
unicode = 65;
},
{
glyphname = B;
layers = (
{
layerId = "07A927BF-F932-4906-9D1A-F4B6A9E74CB4";
shapes = (
{
closed = 1;
nodes = (
(144,0,l),
(144,1230,l),
(545,1230,ls),
(736,1230,o),
(956,1063,o),
(956,898,qs),
(956,817,o),
(857,692,o),
(775,659,q),
(898,642,o),
(1038,468,o),
(1038,341,qs),
(1038,180,o),
(818,0,o),
(631,0,qs)
);
},
{
closed = 1;
nodes = (
(311,577,l),
(311,131,l),
(631,131,ls),
(746,131,o),
(871,242,o),
(871,345,qs),
(871,448,o),
(742,577,o),
(634,577,qs)
);
},
{
closed = 1;
nodes = (
(311,708,l),
(580,708,ls),
(672,708,o),
(789,809,o),
(789,902,qs),
(789,1001,o),
(664,1099,o),
(545,1099,qs),
(311,1099,l)
);
}
);
width = 1099;
}
);
unicode = 66;
},
{
glyphname = C;
layers = (
{
layerId = "07A927BF-F932-4906-9D1A-F4B6A9E74CB4";
shapes = (
{
closed = 1;
nodes = (
(1021,397,l),
(1023,392,l),
(1023,218,o),
(776,-15,o),
(580,-15,qs),
(362,-15,o),
(98,280,o),
(98,508,qs),
(98,728,ls),
(98,953,o),
(362,1251,o),
(780,1251,o),
(1023,1028,o),
(1023,845,q),
(1021,841,l),
(861,841,l),
(861,970,o),
(709,1120,o),
(583,1120,qs),
(432,1120,o),
(266,896,o),
(266,729,qs),
(266,508,ls),
(266,340,o),
(432,116,o),
(585,116,qs),
(710,116,o),
(861,265,o),
(861,397,q)
);
}
);
width = 1097;
}
);
unicode = 67;
},
{
glyphname = D;
layers = (
{
layerId = "07A927BF-F932-4906-9D1A-F4B6A9E74CB4";
shapes = (
{
closed = 1;
nodes = (
(144,0,l),
(144,1230,l),
(530,1230,ls),
(770,1230,o),
(1064,934,o),
(1064,698,qs),
(1064,531,ls),
(1064,296,o),
(770,0,o),
(530,0,qs)
);
},
{
closed = 1;
nodes = (
(310,1099,l),
(310,131,l),
(530,131,ls),
(701,131,o),
(898,356,o),
(898,531,qs),
(898,700,ls),
(898,876,o),
(701,1099,o),
(530,1099,qs)
);
}
);
width = 1171;
}
);
unicode = 68;
},
{
glyphname = E;
layers = (
{
layerId = "07A927BF-F932-4906-9D1A-F4B6A9E74CB4";
shapes = (
{
closed = 1;
nodes = (
(815,570,l),
(310,570,l),
(310,131,l),
(901,131,l),
(901,0,l),
(144,0,l),
(144,1230,l),
(893,1230,l),
(893,1099,l),
(310,1099,l),
(310,701,l),
(815,701,l)
);
}
);
width = 953;
}
);
unicode = 69;
},
{
glyphname = F;
layers = (
{
layerId = "07A927BF-F932-4906-9D1A-F4B6A9E74CB4";
shapes = (
{
closed = 1;
nodes = (
(829,543,l),
(310,543,l),
(310,-1,l),
(144,-1,l),
(144,1230,l),
(914,1230,l),
(914,1099,l),
(310,1099,l),
(310,674,l),
(829,674,l)
);
}
);
width = 952;
}
);
unicode = 70;
},
{
glyphname = G;
layers = (
{
layerId = "07A927BF-F932-4906-9D1A-F4B6A9E74CB4";
shapes = (
{
closed = 1;
nodes = (
(1028,169,l),
(984,100,o),
(767,-15,o),
(593,-15,qs),
(381,-15,o),
(103,266,o),
(103,488,qs),
(103,745,ls),
(103,968,o),
(372,1251,o),
(592,1251,qs),
(788,1251,o),
(1023,1031,o),
(1023,862,q),
(1021,859,l),
(861,859,l),
(861,970,o),
(716,1120,o),
(590,1120,qs),
(442,1120,o),
(270,909,o),
(270,746,qs),
(270,488,ls),
(270,326,o),
(452,116,o),
(593,116,qs),
(703,116,o),
(830,171,o),
(861,211,q),
(861,486,l),
(583,486,l),
(583,617,l),
(1028,617,l)
);
}
);
width = 1171;
}
);
unicode = 71;
},
{
glyphname = H;
layers = (
{
layerId = "07A927BF-F932-4906-9D1A-F4B6A9E74CB4";
shapes = (
{
closed = 1;
nodes = (
(1074,0,l),
(907,0,l),
(907,542,l),
(311,542,l),
(311,0,l),
(144,0,l),
(144,1230,l),
(311,1230,l),
(311,674,l),
(907,674,l),
(907,1230,l),
(1074,1230,l)
);
}
);
width = 1217;
}
);
unicode = 72;
},
{
glyphname = I;
layers = (
{
layerId = "07A927BF-F932-4906-9D1A-F4B6A9E74CB4";
shapes = (
{
closed = 1;
nodes = (
(328,0,l),
(161,0,l),
(161,1230,l),
(328,1230,l)
);
}
);
width = 488;
}
);
unicode = 73;
},
{
glyphname = J;
layers = (
{
layerId = "07A927BF-F932-4906-9D1A-F4B6A9E74CB4";
shapes = (
{
closed = 1;
nodes = (
(640,1233,l),
(808,1233,l),
(808,361,ls),
(808,188,o),
(598,-15,o),
(426,-15,qs),
(262,-15,o),
(66,165,o),
(66,337,q),
(68,341,l),
(228,341,l),
(228,226,o),
(334,116,o),
(426,116,qs),
(525,116,o),
(640,249,o),
(640,361,qs)
);
}
);
width = 947;
}
);
unicode = 74;
},
{
glyphname = K;
layers = (
{
layerId = "07A927BF-F932-4906-9D1A-F4B6A9E74CB4";
shapes = (
{
closed = 1;
nodes = (
(419,556,l),
(310,556,l),
(310,0,l),
(144,0,l),
(144,1230,l),
(310,1230,l),
(310,686,l),
(401,686,l),
(857,1230,l),
(1045,1230,l),
(1046,1226,l),
(548,644,l),
(1082,4,l),
(1080,0,l),
(878,0,l)
);
}
);
width = 1099;
}
);
unicode = 75;
},
{
glyphname = L;
layers = (
{
layerId = "07A927BF-F932-4906-9D1A-F4B6A9E74CB4";
shapes = (
{
closed = 1;
nodes = (
(310,130,l),
(910,130,l),
(910,0,l),
(144,0,l),
(144,1230,l),
(310,1230,l)
);
}
);
width = 951;
}
);
unicode = 76;
},
{
glyphname = M;
layers = (
{
layerId = "07A927BF-F932-4906-9D1A-F4B6A9E74CB4";
shapes = (
{
closed = 1;
nodes = (
(753,230,l),
(757,230,l),
(1150,1230,l),
(1358,1230,l),
(1358,0,l),
(1192,0,l),
(1192,922,l),
(1186,923,l),
(813,0,l),
(698,0,l),
(314,953,l),
(310,953,l),
(310,0,l),
(144,0,l),
(144,1230,l),
(362,1230,l)
);
}
);
width = 1501;
}
);
unicode = 77;
},
{
glyphname = N;
layers = (
{
layerId = "07A927BF-F932-4906-9D1A-F4B6A9E74CB4";
shapes = (
{
closed = 1;
nodes = (
(1074,0,l),
(907,0,l),
(315,940,l),
(311,938,l),
(311,0,l),
(144,0,l),
(144,1230,l),
(311,1230,l),
(901,292,l),
(907,294,l),
(907,1230,l),
(1074,1230,l)
);
}
);
width = 1217;
}
);
unicode = 78;
},
{
glyphname = O;
layers = (
{
layerId = "07A927BF-F932-4906-9D1A-F4B6A9E74CB4";
shapes = (
{
closed = 1;
nodes = (
(1084,508,ls),
(1084,284,o),
(804,-15,o),
(584,-15,qs),
(366,-15,o),
(95,283,o),
(95,508,qs),
(95,729,ls),
(95,952,o),
(366,1251,o),
(584,1251,qs),
(804,1251,o),
(1084,953,o),
(1084,729,qs)
);
},
{
closed = 1;
nodes = (
(917,730,ls),
(917,899,o),
(735,1115,o),
(584,1115,qs),
(435,1115,o),
(262,899,o),
(262,730,qs),
(262,508,ls),
(262,338,o),
(435,121,o),
(585,121,qs),
(736,121,o),
(917,337,o),
(917,508,qs)
);
}
);
width = 1180;
}
);
unicode = 79;
},
{
glyphname = P;
layers = (
{
layerId = "07A927BF-F932-4906-9D1A-F4B6A9E74CB4";
shapes = (
{
closed = 1;
nodes = (
(311,492,l),
(311,-1,l),
(144,-1,l),
(144,1230,l),
(614,1230,ls),
(811,1230,o),
(1030,1027,o),
(1030,862,qs),
(1030,695,o),
(811,492,o),
(614,492,qs)
);
},
{
closed = 1;
nodes = (
(311,623,l),
(614,623,ls),
(739,623,o),
(863,758,o),
(863,859,qs),
(863,962,o),
(738,1099,o),
(614,1099,qs),
(311,1099,l)
);
}
);
width = 1100;
}
);
unicode = 80;
},
{
glyphname = Q;
layers = (
{
layerId = "07A927BF-F932-4906-9D1A-F4B6A9E74CB4";
shapes = (
{
closed = 1;
nodes = (
(1084,525,ls),
(1084,429,o),
(1026,254,o),
(973,187,q),
(1158,8,l),
(1044,-100,l),
(856,80,l),
(798,40,o),
(658,2,o),
(581,2,qs),
(366,2,o),
(95,300,o),
(95,525,qs),
(95,746,ls),
(95,969,o),
(366,1268,o),
(584,1268,qs),
(804,1268,o),
(1084,970,o),
(1084,746,qs)
);
},
{
closed = 1;
nodes = (
(917,747,ls),
(917,916,o),
(735,1132,o),
(584,1132,qs),
(435,1132,o),
(262,916,o),
(262,747,qs),
(262,525,ls),
(262,355,o),
(435,138,o),
(585,138,qs),
(736,138,o),
(917,354,o),
(917,525,qs)
);
}
);
width = 1205;
}
);
unicode = 81;
},
{
glyphname = R;
layers = (
{
layerId = "07A927BF-F932-4906-9D1A-F4B6A9E74CB4";
shapes = (
{
closed = 1;
nodes = (
(311,533,l),
(311,0,l),
(144,0,l),
(144,1229,l),
(564,1229,ls),
(767,1229,o),
(979,1048,o),
(979,891,qs),
(979,785,o),
(880,644,o),
(785,602,q),
(886,570,o),
(976,422,o),
(976,314,qs),
(976,198,ls),
(976,139,o),
(1001,49,o),
(1033,20,q),
(1033,0,l),
(861,0,l),
(827,29,o),
(809,140,o),
(809,199,qs),
(809,311,ls),
(809,412,o),
(694,533,o),
(594,533,qs)
);
},
{
closed = 1;
nodes = (
(311,665,l),
(548,665,ls),
(690,665,o),
(812,769,o),
(812,878,qs),
(812,983,o),
(692,1097,o),
(564,1097,qs),
(311,1097,l)
);
}
);
width = 1100;
}
);
unicode = 82;
},
{
glyphname = S;
layers = (
{
layerId = "07A927BF-F932-4906-9D1A-F4B6A9E74CB4";
shapes = (
{
closed = 1;
nodes = (
(797,397,o),
(680,511,o),
(527,550,qs),
(340,598,o),
(129,777,o),
(129,913,qs),
(129,1057,o),
(357,1251,o),
(537,1251,qs),
(732,1251,o),
(958,1030,o),
(958,884,q),
(957,879,l),
(798,879,l),
(798,983,o),
(651,1120,o),
(531,1120,qs),
(420,1120,o),
(296,1006,o),
(296,922,qs),
(296,836,o),
(433,728,o),
(576,690,qs),
(770,638,o),
(964,453,o),
(964,314,qs),
(964,165,o),
(732,-15,o),
(552,-15,qs),
(366,-15,o),
(96,184,o),
(96,351,q),
(98,357,l),
(256,357,l),
(256,242,o),
(433,116,o),
(551,116,qs),
(661,116,o),
(797,221,o),
(797,313,qs)
);
}
);
width = 1058;
}
);
unicode = 83;
},
{
glyphname = T;
layers = (
{
layerId = "07A927BF-F932-4906-9D1A-F4B6A9E74CB4";
shapes = (
{
closed = 1;
nodes = (
(1003,1099,l),
(597,1099,l),
(597,0,l),
(432,0,l),
(432,1099,l),
(31,1099,l),
(31,1230,l),
(1003,1230,l)
);
}
);
width = 1034;
}
);
unicode = 84;
},
{
glyphname = U;
layers = (
{
layerId = "07A927BF-F932-4906-9D1A-F4B6A9E74CB4";
shapes = (
{
closed = 1;
nodes = (
(1050,1233,l),
(1050,416,ls),
(1050,213,o),
(787,-15,o),
(582,-15,qs),
(379,-15,o),
(125,214,o),
(125,416,qs),
(125,1233,l),
(291,1233,l),
(291,416,ls),
(291,275,o),
(453,116,o),
(582,116,qs),
(714,116,o),
(884,275,o),
(884,416,qs),
(884,1233,l)
);
}
);
width = 1170;
}
);
unicode = 85;
},
{
glyphname = V;
layers = (
{
layerId = "07A927BF-F932-4906-9D1A-F4B6A9E74CB4";
shapes = (
{
closed = 1;
nodes = (
(517,324,l),
(545,221,l),
(549,221,l),
(578,324,l),
(895,1230,l),
(1075,1230,l),
(619,0,l),
(475,0,l),
(19,1230,l),
(199,1230,l)
);
}
);
width = 1094;
}
);
unicode = 86;
},
{
glyphname = W;
layers = (
{
layerId = "07A927BF-F932-4906-9D1A-F4B6A9E74CB4";
shapes = (
{
closed = 1;
nodes = (
(391,426,l),
(411,265,l),
(415,264,l),
(445,426,l),
(663,1230,l),
(825,1230,l),
(1045,426,l),
(1075,262,l),
(1079,262,l),
(1101,426,l),
(1278,1230,l),
(1459,1230,l),
(1161,0,l),
(1013,0,l),
(767,853,l),
(749,964,l),
(743,964,l),
(726,853,l),
(476,0,l),
(327,0,l),
(31,1230,l),
(211,1230,l)
);
}
);
width = 1489;
}
);
unicode = 87;
},
{
glyphname = X;
layers = (
{
layerId = "07A927BF-F932-4906-9D1A-F4B6A9E74CB4";
shapes = (
{
closed = 1;
nodes = (
(549,750,l),
(836,1230,l),
(1037,1230,l),
(647,620,l),
(1045,0,l),
(847,0,l),
(552,487,l),
(257,0,l),
(55,0,l),
(453,620,l),
(65,1230,l),
(264,1230,l)
);
}
);
width = 1094;
}
);
unicode = 88;
},
{
glyphname = Y;
layers = (
{
layerId = "07A927BF-F932-4906-9D1A-F4B6A9E74CB4";
shapes = (
{
closed = 1;
nodes = (
(545,605,l),
(867,1230,l),
(1056,1230,l),
(624,433,l),
(624,0,l),
(459,0,l),
(459,445,l),
(34,1230,l),
(224,1230,l)
);
}
);
width = 1094;
}
);
unicode = 89;
},
{
glyphname = Z;
layers = (
{
layerId = "07A927BF-F932-4906-9D1A-F4B6A9E74CB4";
shapes = (
{
closed = 1;
nodes = (
(269,131,l),
(958,131,l),
(958,0,l),
(83,0,l),
(83,125,l),
(739,1099,l),
(91,1099,l),
(91,1230,l),
(929,1230,l),
(929,1111,l)
);
}
);
width = 1035;
}
);
unicode = 90;
},
{
glyphname = bracketleft;
layers = (
{
layerId = "07A927BF-F932-4906-9D1A-F4B6A9E74CB4";
shapes = (
{
closed = 1;
nodes = (
(445,1318,l),
(287,1318,l),
(287,-89,l),
(445,-89,l),
(445,-220,l),
(120,-220,l),
(120,1449,l),
(445,1449,l)
);
}
);
width = 465;
}
);
unicode = 91;
},
{
glyphname = backslash;
layers = (
{
layerId = "07A927BF-F932-4906-9D1A-F4B6A9E74CB4";
shapes = (
{
closed = 1;
nodes = (
(32,1248,l),
(189,1248,l),
(703,-88,l),
(547,-88,l)
);
}
);
width = 715;
}
);
unicode = 92;
},
{
glyphname = bracketright;
layers = (
{
layerId = "07A927BF-F932-4906-9D1A-F4B6A9E74CB4";
shapes = (
{
closed = 1;
nodes = (
(10,1449,l),
(336,1449,l),
(336,-220,l),
(10,-220,l),
(10,-89,l),
(170,-89,l),
(170,1318,l),
(10,1318,l)
);
}
);
width = 466;
}
);
unicode = 93;
},
{
glyphname = asciicircum;
layers = (
{
layerId = "07A927BF-F932-4906-9D1A-F4B6A9E74CB4";
shapes = (
{
closed = 1;
nodes = (
(207,513,l),
(52,513,l),
(305,1127,l),
(418,1127,l),
(670,513,l),
(516,513,l),
(377,867,l),
(363,926,l),
(358,926,l),
(345,867,l)
);
}
);
width = 723;
}
);
unicode = 94;
},
{
glyphname = underscore;
layers = (
{
layerId = "07A927BF-F932-4906-9D1A-F4B6A9E74CB4";
shapes = (
{
closed = 1;
nodes = (
(783,-108,l),
(2,-108,l),
(2,22,l),
(783,22,l)
);
}
);
width = 784;
}
);
unicode = 95;
},
{
glyphname = grave;
layers = (
{
layerId = "07A927BF-F932-4906-9D1A-F4B6A9E74CB4";
shapes = (
{
closed = 1;
nodes = (
(414,882,l),
(281,882,l),
(70,1102,l),
(72,1105,l),
(267,1105,l)
);
}
);
width = 541;
}
);
unicode = 96;
},
{
glyphname = a;
layers = (
{
layerId = "07A927BF-F932-4906-9D1A-F4B6A9E74CB4";
shapes = (
{
closed = 1;
nodes = (
(682,3,l),
(673,44,o),
(664,107,o),
(664,140,q),
(616,74,o),
(468,-15,o),
(368,-15,qs),
(239,-15,o),
(90,131,o),
(90,251,qs),
(90,391,o),
(301,538,o),
(483,538,qs),
(664,538,l),
(664,629,ls),
(664,709,o),
(566,803,o),
(476,803,qs),
(395,803,o),
(295,723,o),
(295,665,q),
(137,665,l),
(137,668,l),
(130,769,o),
(328,934,o),
(485,934,qs),
(641,934,o),
(830,776,o),
(830,627,qs),
(830,187,ls),
(830,139,o),
(841,47,o),
(854,3,q)
);
},
{
closed = 1;
nodes = (
(497,125,o),
(641,217,o),
(664,278,q),
(664,427,l),
(478,427,ls),
(377,427,o),
(256,325,o),
(256,254,qs),
(256,196,o),
(331,125,o),
(408,125,qs)
);
}
);
width = 950;
}
);
unicode = 97;
},
{
glyphname = b;
layers = (
{
layerId = "07A927BF-F932-4906-9D1A-F4B6A9E74CB4";
shapes = (
{
closed = 1;
nodes = (
(901,425,ls),
(901,229,o),
(710,-15,o),
(544,-15,qs),
(453,-15,o),
(319,57,o),
(276,128,q),
(247,3,l),
(120,3,l),
(120,1321,l),
(287,1321,l),
(287,807,l),
(330,868,o),
(457,934,o),
(541,934,qs),
(710,934,o),
(901,664,o),
(901,443,qs)
);
},
{
closed = 1;
nodes = (
(734,443,ls),
(734,601,o),
(617,798,o),
(499,798,qs),
(424,798,o),
(319,722,o),
(287,658,q),
(287,265,l),
(319,196,o),
(423,121,o),
(502,121,qs),
(618,121,o),
(734,289,o),
(734,425,qs)
);
}
);
width = 981;
}
);
unicode = 98;
},
{
glyphname = c;
layers = (
{
layerId = "07A927BF-F932-4906-9D1A-F4B6A9E74CB4";
shapes = (
{
closed = 1;
nodes = (
(561,116,o),
(676,217,o),
(676,292,q),
(826,292,l),
(829,287,l),
(833,169,o),
(623,-15,o),
(474,-15,qs),
(293,-15,o),
(83,247,o),
(83,442,qs),
(83,478,ls),
(83,670,o),
(293,934,o),
(479,934,qs),
(636,934,o),
(829,745,o),
(829,607,q),
(827,602,l),
(676,602,l),
(676,686,o),
(568,803,o),
(478,803,qs),
(361,803,o),
(250,614,o),
(250,478,qs),
(250,442,ls),
(250,305,o),
(360,116,o),
(477,116,qs)
);
}
);
width = 905;
}
);
unicode = 99;
},
{
glyphname = d;
layers = (
{
layerId = "07A927BF-F932-4906-9D1A-F4B6A9E74CB4";
shapes = (
{
closed = 1;
nodes = (
(83,443,ls),
(83,664,o),
(271,934,o),
(442,934,qs),
(521,934,o),
(646,874,o),
(689,817,q),
(689,1321,l),
(856,1321,l),
(856,3,l),
(729,3,l),
(703,119,l),
(659,53,o),
(526,-15,o),
(439,-15,qs),
(273,-15,o),
(83,227,o),
(83,425,qs)
);
},
{
closed = 1;
nodes = (
(250,425,ls),
(250,287,o),
(363,121,o),
(482,121,qs),
(556,121,o),
(657,188,o),
(689,249,q),
(689,675,l),
(658,732,o),
(556,798,o),
(484,798,qs),
(363,798,o),
(250,601,o),
(250,443,qs)
);
}
);
width = 982;
}
);
unicode = 100;
},
{
glyphname = e;
layers = (
{
layerId = "07A927BF-F932-4906-9D1A-F4B6A9E74CB4";
shapes = (
{
closed = 1;
nodes = (
(303,-15,o),
(83,237,o),
(83,443,qs),
(83,480,ls),
(83,676,o),
(310,934,o),
(473,934,qs),
(657,934,o),
(840,706,o),
(840,517,qs),
(840,429,l),
(256,429,l),
(252,425,l),
(252,288,o),
(373,116,o),
(509,116,qs),
(583,116,o),
(712,164,o),
(757,206,q),
(822,98,l),
(773,51,o),
(612,-15,o),
(506,-15,qs)
);
},
{
closed = 1;
nodes = (
(387,803,o),
(273,668,o),
(261,563,q),
(262,560,l),
(675,560,l),
(675,573,ls),
(675,673,o),
(577,803,o),
(482,803,qs)
);
}
);
width = 905;
}
);
unicode = 101;
},
{
glyphname = f;
layers = (
{
layerId = "07A927BF-F932-4906-9D1A-F4B6A9E74CB4";
shapes = (
{
closed = 1;
nodes = (
(190,0,l),
(190,791,l),
(48,791,l),
(48,914,l),
(190,914,l),
(190,1030,ls),
(190,1176,o),
(343,1336,o),
(478,1336,qs),
(509,1336,o),
(568,1327,o),
(602,1318,q),
(582,1192,l),
(568,1194,o),
(524,1200,o),
(503,1200,qs),
(428,1200,o),
(358,1112,o),
(358,1030,qs),
(358,914,l),
(521,914,l),
(521,791,l),
(358,791,l),
(358,0,l)
);
}
);
width = 568;
}
);
unicode = 102;
},
{
glyphname = g;
layers = (
{
layerId = "07A927BF-F932-4906-9D1A-F4B6A9E74CB4";
shapes = (
{
closed = 1;
nodes = (
(91,503,ls),
(91,724,o),
(280,993,o),
(450,993,qs),
(536,993,o),
(667,923,o),
(711,856,q),
(732,976,l),
(865,976,l),
(865,56,ls),
(865,-118,o),
(661,-308,o),
(480,-308,qs),
(403,-308,o),
(250,-272,o),
(192,-241,q),
(218,-110,l),
(265,-136,o),
(402,-168,o),
(468,-168,qs),
(589,-168,o),
(698,-56,o),
(698,56,qs),
(698,161,l),
(654,103,o),
(530,44,o),
(447,44,qs),
(280,44,o),
(91,287,o),
(91,485,qs)
);
},
{
closed = 1;
nodes = (
(258,485,ls),
(258,348,o),
(371,180,o),
(488,180,qs),
(564,180,o),
(665,249,o),
(698,310,q),
(698,731,l),
(666,789,o),
(564,857,o),
(492,857,qs),
(371,857,o),
(258,660,o),
(258,503,qs)
);
}
);
width = 981;
}
);
unicode = 103;
},
{
glyphname = h;
layers = (
{
layerId = "07A927BF-F932-4906-9D1A-F4B6A9E74CB4";
shapes = (
{
closed = 1;
nodes = (
(287,792,l),
(335,857,o),
(473,931,o),
(563,931,qs),
(703,931,o),
(865,756,o),
(865,572,qs),
(865,0,l),
(698,0,l),
(698,574,ls),
(698,686,o),
(602,796,o),
(504,796,qs),
(431,796,o),
(320,737,o),
(287,685,q),
(287,0,l),
(120,0,l),
(120,1318,l),
(287,1318,l)
);
}
);
width = 981;
}
);
unicode = 104;
},
{
glyphname = i;
layers = (
{
layerId = "07A927BF-F932-4906-9D1A-F4B6A9E74CB4";
shapes = (
{
closed = 1;
nodes = (
(300,0,l),
(134,0,l),
(134,914,l),
(300,914,l)
);
},
{
closed = 1;
nodes = (
(300,1148,l),
(134,1148,l),
(134,1318,l),
(300,1318,l)
);
}
);
width = 434;
}
);
unicode = 105;
},
{
glyphname = j;
layers = (
{
layerId = "07A927BF-F932-4906-9D1A-F4B6A9E74CB4";
shapes = (
{
closed = 1;
nodes = (
(313,976,l),
(313,-13,ls),
(313,-156,o),
(167,-308,o),
(39,-308,qs),
(11,-308,o),
(-32,-300,o),
(-56,-292,q),
(-45,-162,l),
(-32,-166,o),
(11,-171,o),
(26,-171,qs),
(81,-171,o),
(147,-97,o),
(147,-13,qs),
(147,976,l)
);
},
{
closed = 1;
nodes = (
(307,1212,l),
(141,1212,l),
(141,1379,l),
(307,1379,l)
);
}
);
width = 447;
}
);
unicode = 106;
},
{
glyphname = k;
layers = (
{
layerId = "07A927BF-F932-4906-9D1A-F4B6A9E74CB4";
shapes = (
{
closed = 1;
nodes = (
(373,421,l),
(288,421,l),
(288,0,l),
(122,0,l),
(122,1318,l),
(288,1318,l),
(288,554,l),
(372,554,l),
(645,914,l),
(846,914,l),
(513,492,l),
(874,0,l),
(678,0,l)
);
}
);
width = 885;
}
);
unicode = 107;
},
{
glyphname = l;
layers = (
{
layerId = "07A927BF-F932-4906-9D1A-F4B6A9E74CB4";
shapes = (
{
closed = 1;
nodes = (
(300,0,l),
(134,0,l),
(134,1318,l),
(300,1318,l)
);
}
);
width = 434;
}
);
unicode = 108;
},
{
glyphname = m;
layers = (
{
layerId = "07A927BF-F932-4906-9D1A-F4B6A9E74CB4";
shapes = (
{
closed = 1;
nodes = (
(269,914,l),
(281,794,l),
(326,859,o),
(463,931,o),
(646,931,o),
(778,847,o),
(810,762,q),
(853,841,o),
(995,931,o),
(1090,931,qs),
(1229,931,o),
(1392,739,o),
(1392,547,qs),
(1392,0,l),
(1225,0,l),
(1225,548,ls),
(1225,684,o),
(1132,796,o),
(1043,796,qs),
(953,796,o),
(848,678,o),
(840,588,q),
(840,0,l),
(673,0,l),
(673,548,ls),
(673,677,o),
(577,796,o),
(482,796,qs),
(412,796,o),
(314,732,o),
(287,677,q),
(287,0,l),
(120,0,l),
(120,914,l)
);
}
);
width = 1512;
}
);
unicode = 109;
},
{
glyphname = n;
layers = (
{
layerId = "07A927BF-F932-4906-9D1A-F4B6A9E74CB4";
shapes = (
{
closed = 1;
nodes = (
(269,914,l),
(281,779,l),
(328,852,o),
(464,931,o),
(558,931,qs),
(700,931,o),
(863,758,o),
(863,577,qs),
(863,0,l),
(696,0,l),
(696,574,ls),
(696,695,o),
(601,796,o),
(503,796,qs),
(426,796,o),
(319,734,o),
(287,678,q),
(287,0,l),
(120,0,l),
(120,914,l)
);
}
);
width = 982;
}
);
unicode = 110;
},
{
glyphname = o;
layers = (
{
layerId = "07A927BF-F932-4906-9D1A-F4B6A9E74CB4";
shapes = (
{
closed = 1;
nodes = (
(83,469,ls),
(83,671,o),
(303,934,o),
(492,934,qs),
(682,934,o),
(900,673,o),
(900,469,qs),
(900,449,ls),
(900,245,o),
(683,-15,o),
(493,-15,qs),
(304,-15,o),
(83,245,o),
(83,449,qs)
);
},
{
closed = 1;
nodes = (
(247,449,ls),
(247,305,o),
(372,116,o),
(493,116,qs),
(612,116,o),
(736,305,o),
(736,449,qs),
(736,469,ls),
(736,613,o),
(611,803,o),
(490,803,qs),
(371,803,o),
(247,613,o),
(247,469,qs)
);
}
);
width = 982;
}
);
unicode = 111;
},
{
glyphname = p;
layers = (
{
layerId = "07A927BF-F932-4906-9D1A-F4B6A9E74CB4";
shapes = (
{
closed = 1;
nodes = (
(900,481,ls),
(900,284,o),
(711,41,o),
(543,41,qs),
(460,41,o),
(331,98,o),
(287,153,q),
(287,-293,l),
(120,-293,l),
(120,973,l),
(247,973,l),
(275,854,l),
(319,920,o),
(455,990,o),
(542,990,qs),
(713,990,o),
(900,720,o),
(900,499,qs)
);
},
{
closed = 1;
nodes = (
(733,499,ls),
(733,655,o),
(612,854,o),
(491,854,qs),
(421,854,o),
(319,789,o),
(287,733,q),
(287,291,l),
(319,234,o),
(420,171,o),
(493,171,qs),
(612,171,o),
(733,344,o),
(733,481,qs)
);
}
);
width = 982;
}
);
unicode = 112;
},
{
glyphname = q;
layers = (
{
layerId = "07A927BF-F932-4906-9D1A-F4B6A9E74CB4";
shapes = (
{
closed = 1;
nodes = (
(83,500,ls),
(83,721,o),
(271,990,o),
(441,990,qs),
(523,990,o),
(652,926,o),
(696,867,q),
(720,973,l),
(847,973,l),
(847,-293,l),
(680,-293,l),
(680,146,l),
(637,94,o),
(516,41,o),
(439,41,qs),
(273,41,o),
(83,284,o),
(83,482,qs)
);
},
{
closed = 1;
nodes = (
(250,482,ls),
(250,344,o),
(363,172,o),
(482,172,qs),
(551,172,o),
(648,232,o),
(680,288,q),
(680,747,l),
(648,800,o),
(551,859,o),
(485,859,qs),
(366,859,o),
(250,657,o),
(250,500,qs)
);
}
);
width = 981;
}
);
unicode = 113;
},
{
glyphname = r;
layers = (
{
layerId = "07A927BF-F932-4906-9D1A-F4B6A9E74CB4";
shapes = (
{
closed = 1;
nodes = (
(553,767,l),
(468,772,ls),
(402,776,o),
(311,709,o),
(287,653,q),
(287,0,l),
(120,0,l),
(120,914,l),
(269,914,l),
(286,780,l),
(324,852,o),
(439,931,o),
(512,931,qs),
(530,931,o),
(564,925,o),
(577,922,q)
);
}
);
width = 605;
}
);
unicode = 114;
},
{
glyphname = s;
layers = (
{
layerId = "07A927BF-F932-4906-9D1A-F4B6A9E74CB4";
shapes = (
{
closed = 1;
nodes = (
(651,303,o),
(568,373,o),
(448,400,qs),
(290,434,o),
(117,559,o),
(117,664,qs),
(117,773,o),
(307,934,o),
(458,934,qs),
(614,934,o),
(806,765,o),
(802,652,q),
(800,647,l),
(642,647,l),
(642,706,o),
(538,803,o),
(450,803,qs),
(369,803,o),
(284,723,o),
(284,668,qs),
(284,615,o),
(359,555,o),
(475,531,qs),
(644,495,o),
(818,365,o),
(818,257,qs),
(818,140,o),
(621,-15,o),
(461,-15,qs),
(288,-15,o),
(86,163,o),
(92,280,q),
(93,286,l),
(252,286,l),
(256,197,o),
(380,116,o),
(465,116,qs),
(550,116,o),
(651,191,o),
(651,249,qs)
);
}
);
width = 904;
}
);
unicode = 115;
},
{
glyphname = t;
layers = (
{
layerId = "07A927BF-F932-4906-9D1A-F4B6A9E74CB4";
shapes = (
{
closed = 1;
nodes = (
(353,1137,l),
(353,917,l),
(526,917,l),
(526,794,l),
(353,794,l),
(353,238,ls),
(353,173,o),
(406,122,o),
(448,122,qs),
(463,122,o),
(499,130,o),
(511,134,q),
(535,20,l),
(516,5,o),
(443,-15,o),
(405,-15,qs),
(306,-15,o),
(186,107,o),
(186,238,qs),
(186,794,l),
(41,794,l),
(41,917,l),
(186,917,l),
(186,1137,l)
);
}
);
width = 582;
}
);
unicode = 116;
},
{
glyphname = u;
layers = (
{
layerId = "07A927BF-F932-4906-9D1A-F4B6A9E74CB4";
shapes = (
{
closed = 1;
nodes = (
(701,139,l),
(659,64,o),
(522,-15,o),
(430,-15,qs),
(286,-15,o),
(118,176,o),
(118,379,qs),
(118,917,l),
(285,917,l),
(285,376,ls),
(285,231,o),
(370,121,o),
(469,121,qs),
(550,121,o),
(665,193,o),
(695,259,q),
(695,917,l),
(862,917,l),
(862,3,l),
(712,3,l)
);
}
);
width = 982;
}
);
unicode = 117;
},
{
glyphname = v;
layers = (
{
layerId = "07A927BF-F932-4906-9D1A-F4B6A9E74CB4";
shapes = (
{
closed = 1;
nodes = (
(425,269,l),
(441,204,l),
(446,204,l),
(462,269,l),
(672,914,l),
(843,914,l),
(506,0,l),
(380,0,l),
(40,914,l),
(209,914,l)
);
}
);
width = 869;
}
);
unicode = 118;
},
{
glyphname = w;
layers = (
{
layerId = "07A927BF-F932-4906-9D1A-F4B6A9E74CB4";
shapes = (
{
closed = 1;
nodes = (
(355,332,l),
(376,215,l),
(381,215,l),
(403,332,l),
(584,914,l),
(718,914,l),
(901,332,l),
(926,202,l),
(931,202,l),
(957,332,l),
(1092,914,l),
(1267,914,l),
(1002,0,l),
(867,0,l),
(686,557,l),
(652,703,l),
(646,703,l),
(614,557,l),
(436,0,l),
(303,0,l),
(38,914,l),
(211,914,l)
);
}
);
width = 1309;
}
);
unicode = 119;
},
{
glyphname = x;
layers = (
{
layerId = "07A927BF-F932-4906-9D1A-F4B6A9E74CB4";
shapes = (
{
closed = 1;
nodes = (
(431,577,l),
(626,914,l),
(820,914,l),
(522,463,l),
(828,0,l),
(636,0,l),
(435,346,l),
(232,0,l),
(40,0,l),
(345,463,l),
(48,914,l),
(239,914,l)
);
}
);
width = 869;
}
);
unicode = 120;
},
{
glyphname = y;
layers = (
{
layerId = "07A927BF-F932-4906-9D1A-F4B6A9E74CB4";
shapes = (
{
closed = 1;
nodes = (
(401,400,l),
(430,285,l),
(435,285,l),
(660,976,l),
(845,976,l),
(461,-79,ls),
(427,-172,o),
(297,-308,o),
(194,-308,qs),
(167,-308,o),
(104,-298,o),
(87,-295,q),
(104,-163,l),
(99,-162,o),
(170,-168,o),
(181,-168,qs),
(232,-168,o),
(298,-73,o),
(322,-15,qs),
(362,81,l),
(22,976,l),
(209,976,l)
);
}
);
width = 869;
}
);
unicode = 121;
},
{
glyphname = z;
layers = (
{
layerId = "07A927BF-F932-4906-9D1A-F4B6A9E74CB4";
shapes = (
{
closed = 1;
nodes = (
(277,132,l),
(805,132,l),
(805,0,l),
(79,0,l),
(79,118,l),
(573,782,l),
(85,782,l),
(85,914,l),
(777,914,l),
(777,800,l)
);
}
);
width = 869;
}
);
unicode = 122;
},
{
glyphname = braceleft;
layers = (
{
layerId = "07A927BF-F932-4906-9D1A-F4B6A9E74CB4";
shapes = (
{
closed = 1;
nodes = (
(366,409,l),
(326,339,l),
(262,380,l),
(300,450,l)
);
},
{
closed = 1;
nodes = (
(101,735,l),
(15,713,o),
(15,631,q),
(85,692,o),
(179,659,q),
(182,659,l),
(208,655,l),
(1,526,o),
(1,283,q),
(4,276,o),
(4,269,q),
(5,267,l),
(6,252,o),
(11,240,q),
(11,236,l),
(12,235,o),
(12,234,q),
(17,222,l),
(19,220,l),
(21,212,l),
(23,209,ls),
(31,196,o),
(35,186,q),
(39,183,l),
(40,179,l),
(43,176,ls),
(45,174,o),
(45,172,q),
(49,169,l),
(66,150,l),
(77,143,o),
(83,135,q),
(88,132,l),
(91,131,o),
(91,130,q),
(105,124,o),
(114,116,q),
(119,115,l),
(147,102,l),
(151,102,o),
(152,101,q),
(160,98,l),
(163,98,l),
(167,97,l),
(172,94,l),
(182,94,o),
(191,91,q),
(203,91,o),
(211,88,q),
(272,88,l),
(280,89,o),
(285,89,q),
(289,91,l),
(309,93,l),
(336,98,l),
(340,98,l),
(343,101,l),
(351,102,o),
(356,103,q),
(365,106,l),
(374,111,o),
(381,112,q),
(385,113,l),
(389,116,l),
(402,121,l),
(433,137,l),
(435,140,l),
(444,144,o),
(449,149,q),
(451,150,l),
(457,154,o),
(460,157,q),
(464,158,l),
(465,160,l),
(488,177,l),
(493,184,l),
(311,107,o),
(166,173,qs),
(29,235,o),
(47,370,q),
(47,373,l),
(54,408,l),
(59,420,l),
(59,424,l),
(62,431,ls),
(66,439,o),
(69,446,q),
(69,450,l),
(182,634,o),
(380,645,q),
(381,650,l),
(388,660,o),
(392,668,q),
(399,679,l),
(400,683,l),
(408,694,l),
(409,698,l),
(418,715,l),
(414,715,ls),
(408,715,o),
(404,713,q),
(300,713,l),
(294,715,l),
(281,715,l),
(275,716,l),
(266,716,l),
(258,719,o),
(253,717,q),
(231,721,l),
(227,721,l),
(217,724,l),
(211,724,l),
(191,727,l),
(187,727,l),
(185,729,l),
(177,729,l),
(165,731,o),
(156,732,q),
(149,732,l),
(146,734,l),
(142,734,l),
(138,735,l)
);
}
);
width = 490;
}
);
unicode = 123;
},
{
glyphname = bar;
layers = (
{
layerId = "07A927BF-F932-4906-9D1A-F4B6A9E74CB4";
shapes = (
{
closed = 1;
nodes = (
(241,-190,l),
(102,-190,l),
(102,1025,l),
(241,1025,l)
);
}
);
width = 358;
}
);
unicode = 124;
},
{
glyphname = braceright;
layers = (
{
layerId = "07A927BF-F932-4906-9D1A-F4B6A9E74CB4";
shapes = (
{
closed = 1;
nodes = (
(324,555,l),
(271,472,l),
(193,527,l),
(244,614,l)
);
},
{
closed = 1;
nodes = (
(420,488,l),
(419,480,o),
(416,476,q),
(413,469,o),
(410,465,q),
(409,462,ls),
(403,445,o),
(395,435,q),
(395,429,l),
(398,427,l),
(410,396,l),
(450,321,o),
(447,246,q),
(383,202,o),
(308,190,qs),
(184,171,o),
(110,250,q),
(51,336,o),
(105,449,q),
(109,463,o),
(98,465,q),
(88,456,l),
(85,449,o),
(81,446,q),
(78,436,o),
(72,431,q),
(-50,104,o),
(282,104,q),
(401,121,o),
(465,204,q),
(467,214,o),
(472,221,q),
(472,225,l),
(480,248,l),
(482,259,l),
(486,276,o),
(487,296,qs),
(495,414,o),
(435,512,q)
);
}
);
width = 551;
}
);
unicode = 125;
},
{
glyphname = asciitilde;
layers = (
{
layerId = "07A927BF-F932-4906-9D1A-F4B6A9E74CB4";
shapes = (
{
closed = 1;
nodes = (
(890,521,l),
(890,424,o),
(767,282,o),
(670,282,qs),
(613,282,o),
(510,330,o),
(453,378,qs),
(408,416,o),
(339,448,o),
(305,448,qs),
(255,448,o),
(190,374,o),
(190,322,q),
(90,334,l),
(90,429,o),
(210,565,o),
(306,565,qs),
(366,565,o),
(470,516,o),
(527,468,qs),
(572,430,o),
(639,399,o),
(672,399,qs),
(722,399,o),
(790,479,o),
(790,534,q)
);
}
);
width = 979;
}
);
unicode = 126;
},
{
glyphname = brokenbar;
layers = (
{
layerId = "07A927BF-F932-4906-9D1A-F4B6A9E74CB4";
shapes = (
{
closed = 1;
nodes = (
(151,360,l),
(226,360,l),
(226,804,l),
(151,804,l)
);
},
{
closed = 1;
nodes = (
(151,-268,l),
(226,-268,l),
(226,176,l),
(151,176,l)
);
}
);
width = 376;
}
);
unicode = 166;
},
{
glyphname = section;
layers = (
{
layerId = "07A927BF-F932-4906-9D1A-F4B6A9E74CB4";
shapes = (
{
closed = 1;
nodes = (
(433,705,l),
(460,711,o),
(491,737,o),
(491,757,qs),
(491,772,o),
(472,795,o),
(442,812,o),
(404,821,o),
(386,821,qs),
(350,821,o),
(270,781,o),
(205,721,o),
(164,649,o),
(164,615,qs),
(164,594,o),
(180,553,o),
(207,515,o),
(242,477,o),
(260,460,q),
(279,439,o),
(328,392,o),
(378,339,o),
(425,284,o),
(443,258,qs),
(469,221,o),
(501,150,o),
(501,115,qs),
(501,78,o),
(471,29,o),
(457,15,q),
(476,-21,l),
(525,31,o),
(571,122,o),
(571,171,qs),
(571,211,o),
(539,286,o),
(507,329,qs),
(486,358,o),
(426,427,o),
(359,495,o),
(293,562,o),
(263,591,qs),
(234,619,o),
(234,654,qs),
(234,675,o),
(251,711,o),
(278,733,o),
(314,746,o),
(334,746,qs),
(360,746,o),
(414,721,o),
(430,705,q)
);
},
{
closed = 1;
nodes = (
(200,-163,o),
(169,-184,o),
(169,-205,qs),
(169,-223,o),
(189,-249,o),
(217,-265,o),
(251,-272,o),
(265,-272,qs),
(301,-272,o),
(381,-233,o),
(446,-172,o),
(487,-95,o),
(487,-60,qs),
(487,-39,o),
(470,2,o),
(442,42,o),
(407,78,o),
(389,96,qs),
(369,117,o),
(322,163,o),
(274,213,o),
(229,266,o),
(210,293,qs),
(185,329,o),
(154,398,o),
(154,434,qs),
(154,470,o),
(183,520,o),
(196,533,q),
(177,570,l),
(152,543,o),
(117,495,o),
(95,448,o),
(84,398,o),
(84,375,qs),
(84,338,o),
(117,265,o),
(144,226,qs),
(167,193,o),
(226,125,o),
(292,59,o),
(358,-6,o),
(387,-34,q),
(394,-42,o),
(404,-55,o),
(407,-63,q),
(416,-79,o),
(416,-99,qs),
(416,-119,o),
(400,-156,o),
(374,-183,o),
(337,-197,o),
(317,-197,qs),
(292,-197,o),
(242,-176,o),
(221,-160,q)
);
}
);
width = 662;
}
);
unicode = 167;
},
{
glyphname = dieresis;
layers = (
{
layerId = "07A927BF-F932-4906-9D1A-F4B6A9E74CB4";
shapes = (
{
closed = 1;
nodes = (
(376,601,o),
(345,634,o),
(345,657,qs),
(345,680,o),
(376,712,o),
(399,712,qs),
(424,712,o),
(455,680,o),
(455,657,qs),
(455,634,o),
(422,601,o),
(399,601,qs)
);
},
{
closed = 1;
nodes = (
(163,601,o),
(131,634,o),
(131,657,qs),
(131,680,o),
(164,712,o),
(186,712,qs),
(209,712,o),
(241,680,o),
(241,657,qs),
(241,634,o),
(209,601,o),
(186,601,qs)
);
}
);
width = 586;
}
);
unicode = 168;
},
{
glyphname = copyright;
layers = (
{
layerId = "07A927BF-F932-4906-9D1A-F4B6A9E74CB4";
shapes = (
{
closed = 1;
nodes = (
(645,493,l),
(645,523,o),
(645,578,o),
(649,608,q),
(621,616,o),
(557,625,o),
(528,625,qs),
(473,625,o),
(375,595,o),
(301,538,o),
(257,454,o),
(257,398,qs),
(257,349,o),
(294,269,o),
(358,213,o),
(446,183,o),
(499,183,qs),
(535,183,o),
(605,196,o),
(643,205,q),
(646,235,o),
(654,288,o),
(662,320,q),
(636,327,l),
(627,300,o),
(605,261,o),
(592,248,qs),
(576,232,o),
(535,219,o),
(511,219,qs),
(473,219,o),
(415,250,o),
(374,302,o),
(354,371,o),
(354,410,qs),
(354,450,o),
(375,515,o),
(417,562,o),
(477,589,o),
(512,589,qs),
(557,589,o),
(613,541,o),
(615,493,q)
);
},
{
closed = 1;
nodes = (
(137,476,o),
(194,605,o),
(288,702,o),
(417,758,o),
(491,758,qs),
(563,758,o),
(691,702,o),
(786,605,o),
(842,476,o),
(842,402,qs),
(842,327,o),
(786,198,o),
(691,101,o),
(563,46,o),
(491,46,qs),
(417,46,o),
(288,101,o),
(194,198,o),
(137,327,o),
(137,402,qs)
);
},
{
closed = 1;
nodes = (
(84,318,o),
(147,174,o),
(258,66,o),
(407,4,o),
(491,4,qs),
(574,4,o),
(721,66,o),
(831,174,o),
(895,318,o),
(895,402,qs),
(895,485,o),
(831,631,o),
(721,737,o),
(574,800,o),
(491,800,qs),
(407,800,o),
(258,737,o),
(147,631,o),
(84,485,o),
(84,402,qs)
);
}
);
width = 979;
}
);
unicode = 169;
},
{
glyphname = guillemotleft;
layers = (
{
layerId = "07A927BF-F932-4906-9D1A-F4B6A9E74CB4";
shapes = (
{
closed = 1;
nodes = (
(445,484,l),
(669,134,l),
(538,134,l),
(279,476,l),
(279,493,l),
(538,835,l),
(669,835,l)
);
},
{
closed = 1;
nodes = (
(261,484,l),
(485,134,l),
(354,134,l),
(95,476,l),
(95,493,l),
(354,835,l),
(485,835,l)
);
}
);
width = 550;
}
);
unicode = 171;
},
{
glyphname = uni00AD;
layers = (
{
layerId = "07A927BF-F932-4906-9D1A-F4B6A9E74CB4";
shapes = (
{
closed = 1;
nodes = (
(667,473,l),
(147,473,l),
(147,609,l),
(667,609,l)
);
}
);
width = 812;
}
);
unicode = 173;
},
{
glyphname = registered;
layers = (
{
layerId = "07A927BF-F932-4906-9D1A-F4B6A9E74CB4";
shapes = (
{
closed = 1;
nodes = (
(437,382,l),
(465,382,ls),
(480,382,o),
(491,372,o),
(504,350,qs),
(514,333,o),
(543,279,o),
(565,234,o),
(582,199,o),
(586,191,q),
(591,191,o),
(595,191,qs),
(599,191,o),
(604,191,qs),
(623,191,ls),
(649,191,o),
(705,191,o),
(723,191,q),
(724,215,l),
(707,216,o),
(684,218,o),
(668,227,o),
(653,239,o),
(647,251,q),
(640,260,o),
(623,288,o),
(601,329,o),
(575,376,o),
(562,403,q),
(601,416,o),
(651,476,o),
(651,518,qs),
(651,550,o),
(618,591,o),
(570,612,o),
(512,618,o),
(460,618,o),
(414,615,o),
(369,615,qs),
(366,615,o),
(316,615,o),
(301,616,q),
(300,592,l),
(338,592,o),
(359,573,o),
(359,552,qs),
(359,268,ls),
(359,253,o),
(354,233,o),
(341,221,o),
(319,216,o),
(301,215,q),
(304,191,l),
(316,191,o),
(366,191,o),
(389,191,qs),
(425,191,o),
(473,191,o),
(494,191,q),
(495,215,l),
(474,216,o),
(451,220,o),
(440,230,o),
(437,244,o),
(437,254,qs)
);
},
{
closed = 1;
nodes = (
(437,545,ls),
(437,565,o),
(453,584,o),
(477,584,qs),
(513,584,o),
(563,548,o),
(563,508,qs),
(563,463,o),
(508,413,o),
(464,413,qs),
(437,413,l)
);
},
{
closed = 1;
nodes = (
(137,477,o),
(194,606,o),
(288,702,o),
(417,758,o),
(491,758,qs),
(563,758,o),
(691,702,o),
(786,606,o),
(842,477,o),
(842,403,qs),
(842,328,o),
(786,198,o),
(691,101,o),
(563,46,o),
(491,46,qs),
(417,46,o),
(288,101,o),
(194,198,o),
(137,328,o),
(137,403,qs)
);
},
{
closed = 1;
nodes = (
(84,319,o),
(147,174,o),
(258,66,o),
(407,4,o),
(491,4,qs),
(574,4,o),
(721,66,o),
(831,174,o),
(895,319,o),
(895,403,qs),
(895,486,o),
(831,631,o),
(721,737,o),
(574,800,o),
(491,800,qs),
(407,800,o),
(258,737,o),
(147,631,o),
(84,486,o),
(84,403,qs)
);
}
);
width = 979;
}
);
unicode = 174;
},
{
glyphname = uni00B2;
layers = (
{
layerId = "07A927BF-F932-4906-9D1A-F4B6A9E74CB4";
shapes = (
{
closed = 1;
nodes = (
(94,659,l),
(97,707,o),
(124,733,qs),
(137,746,o),
(176,757,o),
(217,755,o),
(253,741,o),
(282,716,o),
(294,681,o),
(294,662,qs),
(294,643,o),
(285,605,o),
(277,591,q),
(261,558,o),
(201,495,o),
(166,462,qs),
(29,331,l),
(34,315,l),
(42,315,o),
(74,315,o),
(92,315,qs),
(111,315,o),
(147,315,o),
(160,315,qs),
(175,315,o),
(207,315,o),
(231,315,qs),
(255,315,o),
(327,315,o),
(385,315,q),
(385,323,o),
(389,355,o),
(398,389,o),
(407,422,o),
(410,437,q),
(385,443,l),
(375,424,o),
(359,399,o),
(342,387,o),
(326,383,o),
(315,383,qs),
(136,380,l),
(249,480,l),
(273,503,o),
(320,546,o),
(359,594,o),
(384,649,o),
(384,682,qs),
(384,717,o),
(351,769,o),
(299,803,o),
(235,821,o),
(204,821,qs),
(165,821,o),
(89,796,o),
(59,774,q),
(62,748,o),
(63,694,o),
(63,661,q)
);
}
);
width = 439;
}
);
unicode = 178;
},
{
glyphname = uni00B3;
layers = (
{
layerId = "07A927BF-F932-4906-9D1A-F4B6A9E74CB4";
shapes = (
{
closed = 1;
nodes = (
(90,675,l),
(92,718,o),
(152,762,o),
(194,762,qs),
(211,762,o),
(244,754,o),
(269,735,o),
(285,706,o),
(285,687,qs),
(285,658,o),
(253,619,o),
(208,596,o),
(152,584,o),
(127,581,q),
(132,546,l),
(161,552,o),
(187,552,qs),
(242,552,o),
(306,501,o),
(306,447,qs),
(306,421,o),
(290,382,o),
(264,353,o),
(226,337,o),
(202,337,qs),
(165,337,o),
(103,381,o),
(90,418,q),
(87,418,l),
(64,415,o),
(33,383,o),
(33,364,qs),
(33,343,o),
(64,313,o),
(110,297,o),
(161,289,o),
(183,289,qs),
(220,289,o),
(301,310,o),
(363,354,o),
(403,420,o),
(403,463,qs),
(403,513,o),
(344,586,o),
(294,603,q),
(328,627,o),
(373,680,o),
(373,717,qs),
(373,746,o),
(341,785,o),
(293,810,o),
(235,821,o),
(208,821,qs),
(169,821,o),
(95,800,o),
(58,781,q),
(59,757,o),
(61,708,o),
(61,676,q)
);
}
);
width = 439;
}
);
unicode = 179;
},
{
glyphname = acute;
layers = (
{
layerId = "07A927BF-F932-4906-9D1A-F4B6A9E74CB4";
shapes = (
{
closed = 1;
nodes = (
(269,543,l),
(272,538,l),
(301,532,l),
(431,737,l),
(427,747,l),
(339,755,l)
);
}
);
width = 586;
}
);
unicode = 180;
},
{
glyphname = paragraph;
layers = (
{
layerId = "07A927BF-F932-4906-9D1A-F4B6A9E74CB4";
shapes = (
{
closed = 1;
nodes = (
(299,179,o),
(191,235,o),
(112,319,o),
(67,424,o),
(67,486,qs),
(67,552,o),
(116,671,o),
(220,759,o),
(385,811,o),
(502,811,qs),
(533,811,o),
(597,807,o),
(632,804,q),
(636,776,l),
(609,773,o),
(574,767,o),
(553,756,o),
(543,746,o),
(536,731,qs),
(519,696,o),
(488,581,o),
(469,460,o),
(460,344,o),
(460,295,qs),
(460,244,o),
(469,120,o),
(495,-9,o),
(542,-140,o),
(580,-200,q),
(580,-202,l),
(573,-227,o),
(536,-257,o),
(513,-257,qs),
(486,-257,o),
(464,-223,o),
(459,-201,q),
(448,-162,o),
(429,-59,o),
(418,56,o),
(411,175,o),
(411,233,qs),
(411,301,o),
(420,439,o),
(442,574,o),
(477,703,o),
(507,768,q),
(458,768,l),
(409,658,o),
(362,402,o),
(362,248,qs),
(362,226,o),
(363,187,o),
(363,167,q)
);
}
);
width = 736;
}
);
unicode = 182;
},
{
glyphname = guillemotright;
layers = (
{
layerId = "07A927BF-F932-4906-9D1A-F4B6A9E74CB4";
shapes = (
{
closed = 1;
nodes = (
(470,484,l),
(266,818,l),
(397,818,l),
(642,504,l),
(646,504,l),
(647,496,l),
(652,492,l),
(649,484,l),
(652,476,l),
(647,471,l),
(646,464,l),
(643,464,l),
(397,150,l),
(266,150,l)
);
},
{
closed = 1;
nodes = (
(286,484,l),
(82,818,l),
(213,818,l),
(458,504,l),
(462,504,l),
(463,496,l),
(468,492,l),
(465,484,l),
(468,476,l),
(463,471,l),
(462,464,l),
(459,464,l),
(213,150,l),
(82,150,l)
);
}
);
width = 550;
}
);
unicode = 187;
},
{
glyphname = onequarter;
layers = (
{
layerId = "07A927BF-F932-4906-9D1A-F4B6A9E74CB4";
shapes = (
{
closed = 1;
nodes = (
(77,721,l),
(191,737,l),
(191,429,ls),
(191,403,o),
(187,369,o),
(165,350,o),
(123,342,o),
(86,341,q),
(88,315,l),
(105,315,o),
(175,316,o),
(224,316,qs),
(260,316,o),
(301,315,o),
(321,315,qs),
(334,315,o),
(359,315,o),
(367,315,q),
(369,342,l),
(334,342,o),
(297,351,o),
(278,364,o),
(274,385,o),
(274,399,qs),
(274,689,ls),
(274,697,o),
(274,728,o),
(274,762,o),
(278,796,o),
(279,812,q),
(274,816,l),
(223,799,o),
(123,768,o),
(69,755,q)
);
},
{
closed = 1;
nodes = (
(770,847,l),
(231,-18,l),
(271,-45,l),
(815,821,l)
);
},
{
closed = 1;
nodes = (
(777,33,ls),
(777,25,o),
(776,2,o),
(775,-13,q),
(801,-11,o),
(840,-9,o),
(860,-9,q),
(860,95,l),
(933,95,l),
(936,145,l),
(928,152,l),
(860,152,l),
(860,387,ls),
(860,418,o),
(865,470,o),
(868,495,q),
(832,504,l),
(801,464,o),
(727,369,o),
(650,267,o),
(573,165,o),
(538,122,q),
(549,95,l),
(777,95,l)
);
},
{
closed = 1;
nodes = (
(777,149,l),
(612,149,l),
(655,208,o),
(731,313,o),
(774,366,q),
(777,365,l)
);
}
);
width = 1046;
}
);
unicode = 188;
},
{
glyphname = onehalf;
layers = (
{
layerId = "07A927BF-F932-4906-9D1A-F4B6A9E74CB4";
shapes = (
{
closed = 1;
nodes = (
(77,721,l),
(191,737,l),
(191,429,ls),
(191,403,o),
(187,369,o),
(165,350,o),
(123,342,o),
(86,341,q),
(88,315,l),
(105,315,o),
(175,316,o),
(219,316,qs),
(260,316,o),
(302,315,o),
(319,315,qs),
(335,315,o),
(359,315,o),
(367,315,q),
(369,342,l),
(334,343,o),
(297,351,o),
(278,364,o),
(274,385,o),
(274,399,qs),
(274,689,ls),
(274,697,o),
(275,728,o),
(275,762,o),
(278,796,o),
(279,812,q),
(274,816,l),
(223,799,o),
(123,768,o),
(69,755,q)
);
},
{
closed = 1;
nodes = (
(772,847,l),
(231,-18,l),
(271,-45,l),
(816,821,l)
);
},
{
closed = 1;
nodes = (
(701,350,l),
(704,398,o),
(732,422,q),
(745,436,o),
(783,447,o),
(823,446,o),
(860,431,o),
(889,407,o),
(901,372,o),
(901,352,qs),
(901,333,o),
(892,296,o),
(883,279,qs),
(868,249,o),
(809,186,o),
(773,152,qs),
(636,22,l),
(641,4,l),
(649,4,o),
(681,5,o),
(697,5,qs),
(718,5,o),
(755,7,o),
(767,7,qs),
(782,7,o),
(814,5,o),
(841,5,qs),
(862,5,o),
(934,4,o),
(992,4,q),
(992,15,o),
(997,46,o),
(1005,79,o),
(1014,112,o),
(1018,127,q),
(992,134,l),
(982,113,o),
(966,90,o),
(949,77,o),
(933,73,o),
(922,73,q),
(744,69,l),
(856,169,l),
(880,193,o),
(927,235,o),
(966,284,o),
(991,339,o),
(991,371,qs),
(991,407,o),
(958,460,o),
(906,494,o),
(843,512,o),
(812,512,qs),
(772,512,o),
(696,486,o),
(667,464,q),
(669,438,o),
(670,385,o),
(670,351,q)
);
}
);
width = 1046;
}
);
unicode = 189;
},
{
glyphname = threequarters;
layers = (
{
layerId = "07A927BF-F932-4906-9D1A-F4B6A9E74CB4";
shapes = (
{
closed = 1;
nodes = (
(90,675,l),
(92,718,o),
(152,762,o),
(194,762,qs),
(211,762,o),
(244,754,o),
(269,735,o),
(285,706,o),
(285,687,qs),
(285,658,o),
(253,619,o),
(208,596,o),
(152,584,o),
(127,581,q),
(132,546,l),
(161,552,o),
(187,552,qs),
(242,552,o),
(306,501,o),
(306,447,qs),
(306,421,o),
(290,382,o),
(264,353,o),
(226,337,o),
(202,337,qs),
(165,337,o),
(103,381,o),
(90,418,q),
(87,418,l),
(64,415,o),
(33,383,o),
(33,364,qs),
(33,343,o),
(64,313,o),
(110,297,o),
(161,289,o),
(183,289,qs),
(220,289,o),
(301,310,o),
(363,354,o),
(403,420,o),
(403,463,qs),
(403,513,o),
(344,586,o),
(294,603,q),
(328,627,o),
(373,680,o),
(373,717,qs),
(373,746,o),
(341,785,o),
(293,810,o),
(235,821,o),
(208,821,qs),
(169,821,o),
(95,800,o),
(58,781,q),
(59,757,o),
(61,708,o),
(61,676,q)
);
},
{
closed = 1;
nodes = (
(819,962,l),
(202,-20,l),
(248,-51,l),
(868,932,l)
);
},
{
closed = 1;
nodes = (
(811,39,ls),
(811,31,o),
(810,5,o),
(809,-13,q),
(837,-11,o),
(881,-8,o),
(904,-7,q),
(904,109,l),
(986,109,l),
(990,207,l),
(982,215,l),
(904,215,l),
(904,482,ls),
(904,517,o),
(908,576,o),
(912,606,q),
(872,614,l),
(838,569,o),
(755,461,o),
(667,346,o),
(578,231,o),
(538,181,q),
(551,109,l),
(811,150,l)
);
},
{
closed = 1;
nodes = (
(811,212,l),
(622,212,l),
(671,280,o),
(759,398,o),
(807,458,q),
(811,457,l)
);
}
);
width = 1046;
}
);
unicode = 190;
},
{
glyphname = Eth;
layers = (
{
layerId = "07A927BF-F932-4906-9D1A-F4B6A9E74CB4";
shapes = (
{
closed = 1;
nodes = (
(44,362,l),
(141,362,l),
(141,124,ls),
(141,95,o),
(134,60,o),
(113,40,o),
(73,29,o),
(41,26,q),
(43,0,l),
(55,0,o),
(87,1,o),
(105,1,qs),
(122,1,o),
(157,2,o),
(171,2,qs),
(211,2,o),
(299,-8,o),
(338,-8,qs),
(426,-8,o),
(583,48,o),
(702,151,o),
(772,300,o),
(772,396,qs),
(772,492,o),
(701,622,o),
(583,702,o),
(431,738,o),
(349,738,qs),
(310,738,o),
(224,730,o),
(185,730,qs),
(146,730,o),
(68,731,o),
(40,731,q),
(39,703,l),
(74,703,o),
(114,695,o),
(134,679,o),
(141,654,o),
(141,633,qs),
(141,406,l),
(41,406,l)
);
},
{
closed = 1;
nodes = (
(229,662,ls),
(229,670,o),
(246,682,o),
(277,692,o),
(318,698,o),
(343,698,qs),
(412,698,o),
(530,657,o),
(618,575,o),
(667,454,o),
(667,374,qs),
(667,294,o),
(619,169,o),
(532,82,o),
(411,36,o),
(338,36,qs),
(297,36,o),
(252,51,o),
(232,78,o),
(229,115,o),
(229,136,qs),
(229,362,l),
(450,362,l),
(453,406,l),
(229,406,l)
);
}
);
width = 822;
}
);
unicode = 208;
},
{
glyphname = multiply;
layers = (
{
layerId = "07A927BF-F932-4906-9D1A-F4B6A9E74CB4";
shapes = (
{
closed = 1;
nodes = (
(367,578,l),
(113,834,l),
(197,918,l),
(450,663,l),
(708,918,l),
(791,835,l),
(534,578,l),
(790,322,l),
(708,241,l),
(450,494,l),
(197,242,l),
(114,325,l)
);
}
);
width = 922;
}
);
unicode = 215;
},
{
glyphname = divide;
layers = (
{
layerId = "07A927BF-F932-4906-9D1A-F4B6A9E74CB4";
shapes = (
{
closed = 1;
nodes = (
(82,518,l),
(82,638,l),
(821,638,l),
(821,518,l)
);
},
{
closed = 1;
nodes = (
(359,326,o),
(374,364,o),
(398,388,o),
(431,398,o),
(450,398,qs),
(469,398,o),
(502,388,o),
(528,364,o),
(542,326,o),
(542,298,qs),
(542,272,o),
(528,234,o),
(502,210,o),
(469,198,o),
(450,198,qs),
(431,198,o),
(398,210,o),
(374,234,o),
(359,272,o),
(359,298,qs)
);
},
{
closed = 1;
nodes = (
(359,885,o),
(374,922,o),
(398,946,o),
(431,957,o),
(450,957,qs),
(469,957,o),
(502,946,o),
(528,922,o),
(542,885,o),
(542,857,qs),
(542,830,o),
(528,793,o),
(502,768,o),
(469,757,o),
(450,757,qs),
(431,757,o),
(398,768,o),
(374,793,o),
(359,830,o),
(359,857,qs)
);
}
);
width = 910;
}
);
unicode = 247;
},
{
glyphname = tilde;
layers = (
{
layerId = "07A927BF-F932-4906-9D1A-F4B6A9E74CB4";
shapes = (
{
closed = 1;
nodes = (
(729,1312,l),
(729,1230,o),
(625,1115,o),
(548,1115,qs),
(484,1115,o),
(348,1197,o),
(302,1197,qs),
(265,1197,o),
(213,1140,o),
(213,1099,q),
(119,1122,l),
(119,1203,o),
(222,1324,o),
(294,1324,qs),
(352,1324,o),
(499,1242,o),
(546,1242,qs),
(583,1242,o),
(635,1299,o),
(635,1340,q)
);
}
);
width = 861;
}
);
unicode = 732;
},
{
glyphname = hungarumlaut;
layers = (
{
layerId = "07A927BF-F932-4906-9D1A-F4B6A9E74CB4";
shapes = (
{
closed = 1;
nodes = (
(226,621,l),
(229,616,l),
(258,610,l),
(401,843,l),
(396,854,l),
(305,862,l)
);
},
{
closed = 1;
nodes = (
(398,617,l),
(401,611,l),
(429,605,l),
(572,838,l),
(567,849,l),
(477,857,l)
);
}
);
width = 666;
}
);
unicode = 733;
},
{
glyphname = dotbelowcomb;
layers = (
{
layerId = "07A927BF-F932-4906-9D1A-F4B6A9E74CB4";
shapes = (
{
closed = 1;
nodes = (
(267,-120,o),
(266,-179,o),
(303,-216,o),
(333,-216,qs),
(363,-216,o),
(402,-179,o),
(402,-119,o),
(364,-82,o),
(333,-82,qs),
(304,-83,o),
(285,-101,qs)
);
}
);
width = 666;
}
);
unicode = 803;
},
{
glyphname = uni0326;
layers = (
{
layerId = "07A927BF-F932-4906-9D1A-F4B6A9E74CB4";
shapes = (
{
closed = 1;
nodes = (
(281,-335,l),
(310,-325,o),
(360,-291,o),
(398,-248,o),
(421,-196,o),
(421,-169,qs),
(421,-150,o),
(407,-112,o),
(382,-82,o),
(345,-63,o),
(324,-63,qs),
(301,-63,o),
(266,-91,o),
(266,-115,qs),
(266,-125,o),
(274,-144,o),
(282,-149,q),
(315,-152,o),
(347,-186,o),
(347,-207,qs),
(347,-234,o),
(304,-289,o),
(266,-302,q)
);
}
);
width = 666;
}
);
unicode = 806;
},
{
glyphname = uni060C;
layers = (
{
layerId = "07A927BF-F932-4906-9D1A-F4B6A9E74CB4";
shapes = (
{
closed = 1;
nodes = (
(430,719,l),
(443,719,l),
(446,715,l),
(447,711,o),
(447,703,q),
(446,701,l),
(446,696,l),
(444,691,o),
(443,682,q),
(437,664,l),
(434,658,o),
(429,651,q),
(423,638,l),
(419,634,o),
(416,626,q),
(414,625,l),
(412,620,o),
(407,615,q),
(406,613,l),
(403,609,o),
(398,601,qs),
(395,596,o),
(390,588,q),
(387,585,o),
(384,579,q),
(382,577,l),
(379,572,o),
(373,564,qs),
(364,552,ls),
(361,548,o),
(358,542,q),
(356,541,l),
(353,536,o),
(348,528,q),
(344,524,o),
(341,518,qs),
(340,516,l),
(337,512,o),
(333,504,q),
(331,503,l),
(329,498,o),
(325,493,qs),
(307,466,ls),
(305,463,o),
(303,459,qs),
(300,454,ls),
(297,449,o),
(293,443,q),
(292,441,l),
(288,436,o),
(284,428,q),
(281,424,o),
(278,418,q),
(276,416,l),
(273,410,o),
(268,403,q),
(266,398,o),
(263,392,qs),
(254,376,ls),
(252,372,o),
(249,364,q),
(247,363,l),
(244,358,o),
(242,348,q),
(239,342,o),
(235,334,qs),
(233,329,o),
(230,323,qs),
(226,314,o),
(225,304,q),
(223,297,o),
(223,288,q),
(222,286,l),
(222,279,l),
(221,277,l),
(221,256,l),
(222,247,ls),
(223,242,o),
(223,237,q),
(225,232,l),
(225,229,l),
(229,214,l),
(231,209,o),
(235,203,q),
(236,201,ls),
(239,195,o),
(246,189,q),
(249,185,o),
(254,181,q),
(256,179,l),
(262,175,o),
(269,172,q),
(274,168,o),
(284,167,q),
(292,165,o),
(302,164,q),
(322,164,ls),
(330,164,o),
(340,167,q),
(347,167,o),
(356,170,q),
(363,171,o),
(372,175,qs),
(386,181,ls),
(392,183,o),
(398,187,q),
(401,187,l),
(407,189,o),
(414,194,q),
(419,196,o),
(424,201,q),
(427,202,ls),
(432,204,o),
(436,207,q),
(440,209,ls),
(444,211,o),
(449,216,q),
(458,221,l),
(457,212,l),
(456,210,l),
(455,202,o),
(451,194,q),
(450,187,o),
(446,179,q),
(444,172,o),
(442,164,q),
(436,148,ls),
(434,143,o),
(430,136,qs),
(426,129,o),
(423,120,q),
(420,116,o),
(419,110,q),
(416,108,l),
(414,102,o),
(408,94,q),
(406,89,o),
(402,84,qs),
(392,69,ls),
(389,64,o),
(383,58,qs),
(379,54,o),
(375,49,q),
(373,48,l),
(370,45,o),
(366,40,q),
(363,37,l),
(357,33,o),
(352,28,q),
(347,26,o),
(342,21,q),
(340,20,ls),
(335,17,o),
(326,12,qs),
(321,10,o),
(315,7,q),
(312,7,l),
(297,1,l),
(293,1,o),
(287,0,q),
(257,0,ls),
(249,0,o),
(239,3,qs),
(232,5,o),
(224,9,qs),
(218,11,o),
(211,16,q),
(205,19,o),
(200,25,q),
(195,29,o),
(188,34,q),
(185,38,o),
(182,44,q),
(171,58,l),
(169,63,o),
(166,69,q),
(165,72,l),
(162,77,o),
(159,88,qs),
(158,93,o),
(155,100,q),
(154,103,l),
(153,110,o),
(151,120,qs),
(150,126,l),
(150,187,l),
(151,198,l),
(152,200,l),
(152,207,o),
(154,215,q),
(154,218,l),
(155,225,o),
(158,234,q),
(158,242,o),
(162,251,qs),
(164,257,o),
(166,267,qs),
(170,284,l),
(171,292,o),
(175,300,q),
(177,307,o),
(180,315,qs),
(182,322,o),
(186,330,q),
(190,345,l),
(193,351,o),
(195,358,qs),
(198,366,o),
(203,374,q),
(205,380,o),
(207,386,qs),
(210,393,o),
(214,400,q),
(215,403,l),
(217,407,o),
(220,414,q),
(222,416,l),
(224,423,o),
(227,429,qs),
(230,434,o),
(233,442,q),
(235,443,l),
(237,448,o),
(241,455,q),
(242,458,l),
(245,464,o),
(249,471,qs),
(251,476,o),
(255,482,q),
(256,484,l),
(259,488,o),
(262,496,q),
(264,497,l),
(266,503,o),
(271,510,q),
(274,516,o),
(279,523,q),
(281,529,o),
(286,536,q),
(288,542,o),
(294,548,q),
(297,554,o),
(301,559,qs),
(305,565,o),
(308,573,q),
(310,574,l),
(312,579,o),
(317,584,q),
(318,586,l),
(321,590,o),
(325,597,qs),
(329,604,o),
(334,611,qs),
(343,623,ls),
(347,628,o),
(350,636,q),
(354,640,o),
(360,647,qs),
(363,651,o),
(366,657,q),
(367,657,o),
(368,659,qs),
(372,663,o),
(376,668,q),
(378,669,l),
(381,673,o),
(385,679,q),
(387,680,l),
(391,684,o),
(395,690,q),
(397,691,l),
(400,694,o),
(405,699,qs),
(407,701,l),
(412,707,o),
(419,711,q),
(423,715,o),
(428,718,qs)
);
}
);
width = 606;
}
);
unicode = 1548;
},
{
glyphname = uni061B;
layers = (
{
layerId = "07A927BF-F932-4906-9D1A-F4B6A9E74CB4";
shapes = (
{
closed = 1;
nodes = (
(1206,-433,o),
(1253,-486,o),
(1309,-531,q),
(1311,-534,l),
(1306,-537,o),
(1200,-645,q),
(1140,-608,o),
(1089,-533,q),
(1182,-442,o),
(1192,-430,q)
);
},
{
closed = 1;
nodes = (
(1096,-254,o),
(1143,-307,o),
(1199,-353,q),
(1201,-355,l),
(1196,-358,o),
(1091,-466,q),
(1031,-429,o),
(980,-354,q),
(1072,-263,o),
(1082,-251,q)
);
},
{
closed = 1;
nodes = (
(1315,-244,o),
(1362,-297,o),
(1418,-343,q),
(1420,-346,l),
(1415,-349,o),
(1310,-456,q),
(1250,-419,o),
(1198,-345,q),
(1291,-253,o),
(1301,-241,q)
);
},
{
closed = 1;
nodes = (
(744,811,l),
(774,860,o),
(835,968,o),
(909,1056,o),
(1007,1113,o),
(1075,1113,qs),
(1121,1113,o),
(1208,1085,o),
(1293,1048,o),
(1379,1009,o),
(1422,999,q),
(1435,988,o),
(1505,967,o),
(1585,953,o),
(1660,944,o),
(1679,944,q),
(1696,946,l),
(1696,940,l),
(1688,929,o),
(1668,902,o),
(1649,876,o),
(1633,848,o),
(1629,836,q),
(1605,798,l),
(1500,798,o),
(1296,758,o),
(1200,730,qs),
(1165,720,o),
(1108,701,o),
(1077,697,q),
(1072,697,l),
(1076,691,l),
(1092,686,o),
(1118,668,o),
(1129,657,q),
(1133,655,l),
(1150,622,l),
(1151,614,o),
(1154,600,o),
(1154,589,qs),
(1154,544,o),
(1117,471,o),
(1057,417,o),
(977,382,o),
(892,360,o),
(807,351,o),
(770,351,qs),
(721,351,o),
(622,366,o),
(583,366,qs),
(562,366,o),
(522,361,o),
(469,351,o),
(411,340,o),
(363,326,o),
(328,314,o),
(326,309,q),
(291,292,o),
(241,266,o),
(199,239,o),
(158,204,o),
(131,177,q),
(131,171,l),
(238,144,o),
(472,117,o),
(582,117,qs),
(686,117,o),
(894,128,o),
(1101,143,o),
(1309,155,o),
(1413,155,qs),
(1421,155,o),
(1435,154,o),
(1443,152,q),
(1426,118,l),
(1422,114,l),
(1411,84,o),
(1383,26,o),
(1367,-2,q),
(1277,-2,o),
(1096,-12,o),
(916,-25,o),
(735,-34,o),
(645,-34,qs),
(402,-34,ls),
(380,-34,o),
(314,-31,o),
(238,-25,o),
(158,-13,o),
(87,5,o),
(32,30,o),
(17,46,q),
(16,54,o),
(13,68,o),
(13,75,qs),
(13,97,o),
(31,137,o),
(36,148,qs),
(72,224,o),
(149,332,o),
(243,413,o),
(362,469,o),
(438,485,q),
(452,515,o),
(490,574,o),
(501,607,q),
(531,636,o),
(568,691,o),
(608,738,o),
(663,777,o),
(695,785,qs),
(718,791,o),
(748,785,o),
(779,773,o),
(806,758,o),
(815,752,q),
(826,750,l),
(860,763,l),
(865,769,o),
(922,790,o),
(1004,815,o),
(1100,840,o),
(1187,860,o),
(1253,874,o),
(1264,874,qs),
(1268,874,l),
(1212,912,o),
(1075,966,o),
(1008,966,qs),
(965,966,o),
(894,942,o),
(831,900,o),
(779,843,o),
(758,811,q),
(746,805,l)
);
},
{
closed = 1;
nodes = (
(767,522,l),
(758,552,o),
(742,590,o),
(715,616,o),
(674,628,o),
(651,628,qs),
(629,628,o),
(601,615,o),
(576,594,o),
(556,569,o),
(550,558,q),
(593,539,o),
(685,522,o),
(733,522,qs)
);
},
{
closed = 1;
nodes = (
(845,607,l),
(843,602,o),
(828,572,o),
(812,539,o),
(800,511,o),
(800,510,q),
(825,510,o),
(874,502,o),
(904,502,qs),
(973,502,o),
(1049,522,q),
(1032,543,o),
(986,575,o),
(935,596,o),
(880,607,o),
(853,607,qs)
);
}
);
width = 1719;
}
);
unicode = 1563;
},
{
glyphname = uni061F;
layers = (
{
layerId = "07A927BF-F932-4906-9D1A-F4B6A9E74CB4";
shapes = (
{
closed = 1;
nodes = (
(482,1356,l),
(541,1356,l),
(570,1353,l),
(572,1352,l),
(575,1352,l),
(581,1351,o),
(590,1350,q),
(592,1349,l),
(598,1347,o),
(608,1347,q),
(615,1345,o),
(623,1343,qs),
(628,1341,o),
(637,1339,q),
(639,1338,l),
(644,1337,o),
(650,1334,q),
(653,1333,ls),
(660,1331,o),
(664,1330,qs),
(673,1328,o),
(679,1324,q),
(682,1324,l),
(696,1317,l),
(702,1315,o),
(708,1310,q),
(715,1307,o),
(719,1302,q),
(724,1298,o),
(727,1291,qs),
(730,1286,o),
(733,1277,q),
(734,1269,o),
(734,1258,q),
(733,1253,o),
(733,1248,q),
(729,1225,l),
(727,1219,o),
(726,1211,q),
(720,1194,ls),
(718,1189,o),
(715,1180,q),
(712,1175,o),
(709,1170,qs),
(706,1163,o),
(702,1157,qs),
(697,1151,o),
(693,1144,q),
(689,1140,o),
(685,1134,q),
(683,1133,l),
(680,1128,o),
(675,1124,qs),
(672,1121,o),
(668,1116,q),
(665,1113,l),
(662,1111,o),
(659,1108,qs),
(650,1101,l),
(647,1110,ls),
(645,1116,o),
(640,1122,q),
(638,1128,o),
(634,1134,qs),
(631,1137,o),
(626,1143,q),
(624,1145,ls),
(621,1148,o),
(616,1153,q),
(603,1162,ls),
(598,1165,o),
(593,1169,q),
(578,1175,ls),
(573,1177,o),
(566,1180,q),
(563,1181,ls),
(556,1183,o),
(548,1185,q),
(541,1188,o),
(533,1189,q),
(526,1192,o),
(516,1191,q),
(509,1193,o),
(499,1193,q),
(482,1195,l),
(448,1195,l),
(425,1193,ls),
(418,1192,o),
(408,1191,qs),
(391,1189,ls),
(384,1188,o),
(375,1186,qs),
(359,1182,l),
(352,1181,o),
(344,1178,q),
(338,1177,o),
(331,1174,q),
(328,1174,l),
(322,1173,o),
(316,1170,q),
(313,1170,l),
(309,1169,o),
(305,1166,q),
(300,1164,l),
(294,1163,o),
(286,1159,qs),
(282,1157,o),
(274,1154,q),
(259,1147,l),
(253,1145,o),
(246,1140,q),
(233,1133,ls),
(228,1130,o),
(222,1126,qs),
(216,1123,o),
(210,1118,q),
(205,1116,o),
(201,1111,q),
(189,1101,ls),
(186,1098,o),
(181,1093,q),
(180,1091,l),
(176,1087,o),
(170,1080,q),
(167,1074,ls),
(165,1071,o),
(164,1068,q),
(160,1063,o),
(157,1055,q),
(153,1049,o),
(152,1041,q),
(149,1034,o),
(149,1024,q),
(148,1021,o),
(148,1016,qs),
(148,1006,ls),
(148,999,o),
(151,990,q),
(152,983,o),
(155,974,q),
(156,968,o),
(161,960,q),
(163,953,o),
(167,947,qs),
(170,942,o),
(171,940,qs),
(176,930,o),
(181,925,q),
(189,912,ls),
(193,906,o),
(199,901,q),
(202,896,o),
(207,891,qs),
(210,887,o),
(215,882,qs),
(217,880,ls),
(221,876,o),
(226,871,qs),
(230,868,o),
(236,863,q),
(237,861,l),
(242,858,o),
(247,853,qs),
(252,849,o),
(257,846,qs),
(263,842,o),
(267,838,q),
(269,837,ls),
(274,835,o),
(280,830,q),
(294,822,ls),
(298,820,o),
(304,817,qs),
(306,816,ls),
(312,813,o),
(321,810,q),
(334,803,l),
(340,801,o),
(342,800,qs),
(352,796,o),
(363,793,qs),
(369,792,o),
(378,790,qs),
(393,786,l),
(400,785,o),
(409,783,q),
(424,781,l),
(427,781,l),
(444,779,l),
(483,779,l),
(502,780,l),
(517,782,l),
(520,782,l),
(527,783,o),
(538,785,qs),
(543,786,o),
(544,786,q),
(559,789,o),
(568,792,q),
(575,793,o),
(583,796,q),
(613,805,ls),
(619,807,o),
(626,811,q),
(632,812,o),
(639,816,qs),
(645,819,o),
(652,820,q),
(654,821,l),
(658,824,o),
(665,827,qs),
(667,828,l),
(673,830,o),
(679,835,q),
(685,837,o),
(693,841,q),
(694,838,o),
(694,832,q),
(693,827,l),
(693,810,l),
(692,808,l),
(692,731,l),
(693,729,l),
(693,712,l),
(694,710,l),
(694,697,l),
(697,674,l),
(697,668,o),
(698,659,q),
(699,657,l),
(699,652,o),
(699,646,q),
(703,623,ls),
(704,616,o),
(706,608,qs),
(708,600,o),
(709,590,q),
(711,583,o),
(712,579,qs),
(715,568,o),
(717,559,qs),
(721,544,l),
(721,540,o),
(724,536,q),
(725,529,ls),
(726,524,o),
(730,518,q),
(730,515,l),
(731,510,o),
(735,503,q),
(740,486,l),
(742,482,o),
(743,478,q),
(739,473,ls),
(736,470,o),
(733,463,q),
(731,462,l),
(729,457,o),
(724,451,qs),
(720,445,o),
(716,439,qs),
(708,427,ls),
(704,422,o),
(700,415,q),
(696,411,o),
(692,404,qs),
(690,399,o),
(685,393,qs),
(681,387,o),
(677,381,qs),
(674,378,o),
(670,371,q),
(668,369,l),
(665,364,o),
(662,360,qs),
(657,354,o),
(654,348,qs),
(650,341,o),
(646,336,qs),
(641,330,o),
(638,323,q),
(633,328,o),
(630,335,qs),
(627,340,o),
(624,347,qs),
(622,353,o),
(620,361,q),
(614,377,l),
(613,383,o),
(609,389,q),
(609,392,l),
(606,399,l),
(597,438,ls),
(595,445,o),
(594,454,q),
(592,461,o),
(591,470,q),
(589,476,o),
(588,486,q),
(585,503,l),
(584,519,l),
(583,521,l),
(582,536,l),
(582,539,l),
(581,554,l),
(581,585,l),
(579,592,l),
(579,647,l),
(569,643,l),
(565,642,o),
(561,640,q),
(547,636,ls),
(542,635,o),
(536,631,q),
(533,631,l),
(527,629,o),
(522,627,qs),
(511,624,o),
(504,622,qs),
(496,620,o),
(487,619,q),
(480,619,o),
(471,616,q),
(456,614,l),
(453,614,ls),
(446,614,o),
(436,612,q),
(398,612,l),
(381,613,l),
(374,613,o),
(363,615,q),
(356,615,o),
(347,617,q),
(345,618,l),
(338,618,o),
(330,620,qs),
(314,624,l),
(300,629,l),
(293,630,o),
(286,635,q),
(271,640,l),
(259,646,l),
(253,648,o),
(246,653,qs),
(241,656,o),
(233,660,q),
(228,664,o),
(222,667,q),
(219,670,o),
(212,674,q),
(210,676,l),
(205,679,o),
(200,684,q),
(195,687,o),
(189,693,qs),
(185,697,o),
(180,700,q),
(179,702,l),
(175,706,o),
(169,712,q),
(164,715,o),
(162,720,q),
(160,722,l),
(155,726,o),
(151,733,q),
(147,736,o),
(145,741,q),
(143,743,ls),
(139,747,o),
(135,755,q),
(132,758,o),
(129,762,q),
(120,778,l),
(117,782,o),
(114,790,q),
(107,804,ls),
(105,809,o),
(102,816,qs),
(101,818,l),
(100,822,o),
(97,827,q),
(95,832,l),
(94,839,o),
(90,846,q),
(89,853,o),
(87,862,qs),
(83,877,l),
(80,895,ls),
(79,902,o),
(78,912,qs),
(77,919,o),
(76,929,q),
(76,981,l),
(81,1002,l),
(82,1009,o),
(85,1017,q),
(89,1034,l),
(98,1062,ls),
(100,1067,o),
(102,1073,q),
(104,1075,l),
(106,1081,o),
(108,1088,q),
(109,1090,ls),
(112,1095,o),
(115,1103,q),
(118,1108,o),
(119,1110,qs),
(125,1120,o),
(128,1129,q),
(131,1134,o),
(136,1140,q),
(138,1146,o),
(144,1152,q),
(148,1158,ls),
(150,1161,o),
(150,1165,q),
(154,1169,o),
(158,1174,qs),
(162,1179,o),
(165,1184,qs),
(170,1191,o),
(174,1195,qs),
(176,1197,ls),
(180,1201,o),
(184,1207,q),
(186,1208,l),
(189,1213,o),
(194,1218,qs),
(198,1223,o),
(204,1227,q),
(209,1232,o),
(214,1237,qs),
(224,1247,l),
(227,1249,o),
(230,1252,qs),
(234,1255,l),
(239,1260,o),
(246,1264,q),
(249,1268,o),
(254,1270,q),
(256,1272,l),
(261,1275,o),
(266,1279,qs),
(271,1284,o),
(279,1288,q),
(283,1291,o),
(289,1294,qs),
(291,1295,ls),
(296,1297,o),
(303,1303,q),
(309,1305,o),
(316,1310,q),
(320,1311,o),
(326,1314,q),
(329,1315,l),
(333,1317,o),
(340,1321,q),
(343,1322,l),
(348,1323,o),
(353,1327,q),
(356,1327,l),
(361,1330,o),
(370,1332,qs),
(376,1333,o),
(385,1337,q),
(400,1342,l),
(407,1343,o),
(413,1345,qs),
(422,1348,o),
(432,1349,q),
(439,1351,o),
(448,1351,q),
(454,1353,o),
(464,1354,qs)
);
},
{
closed = 1;
nodes = (
(671,235,o),
(675,230,q),
(679,228,o),
(683,224,qs),
(686,222,o),
(691,217,qs),
(699,210,ls),
(702,207,o),
(707,204,q),
(710,200,o),
(716,197,q),
(719,194,o),
(723,189,q),
(727,186,o),
(731,183,qs),
(735,181,o),
(739,176,q),
(742,174,o),
(747,169,q),
(756,163,l),
(759,160,o),
(762,157,qs),
(766,152,o),
(772,149,q),
(775,146,o),
(779,142,qs),
(783,139,o),
(787,135,q),
(791,133,o),
(796,128,q),
(801,126,o),
(801,121,q),
(799,117,o),
(794,111,qs),
(792,108,o),
(788,103,qs),
(786,101,o),
(782,96,qs),
(780,93,o),
(779,91,qs),
(774,85,o),
(770,81,q),
(769,79,l),
(766,75,o),
(763,70,q),
(759,67,o),
(757,63,q),
(753,59,o),
(753,58,q),
(746,50,o),
(743,46,qs),
(740,42,o),
(737,38,qs),
(735,34,o),
(730,30,q),
(728,26,o),
(723,21,q),
(718,12,ls),
(716,9,o),
(711,5,q),
(708,0,l),
(703,3,ls),
(699,5,o),
(695,10,q),
(691,12,o),
(689,13,qs),
(682,18,o),
(678,23,q),
(674,26,o),
(669,29,q),
(666,33,o),
(661,35,q),
(657,38,o),
(653,42,qs),
(649,45,o),
(645,49,q),
(641,51,o),
(637,55,q),
(633,57,o),
(628,62,q),
(624,64,o),
(620,69,q),
(611,74,l),
(609,77,o),
(605,79,q),
(603,81,l),
(600,83,o),
(597,87,q),
(595,88,ls),
(592,90,o),
(588,93,q),
(586,94,l),
(582,97,o),
(578,100,q),
(575,104,o),
(570,107,qs),
(567,109,o),
(564,112,q),
(567,114,l),
(569,118,o),
(574,123,qs),
(577,127,o),
(581,130,q),
(583,134,o),
(587,139,qs),
(590,143,o),
(592,145,qs),
(596,151,o),
(601,155,q),
(604,159,o),
(606,164,q),
(614,171,l),
(616,175,o),
(620,180,qs),
(623,184,o),
(626,188,qs),
(629,191,o),
(633,195,qs),
(637,200,o),
(640,205,q),
(647,212,l),
(653,221,l),
(657,224,o),
(660,228,qs),
(663,231,o),
(666,237,q)
);
}
);
width = 853;
}
);
unicode = 1567;
},
{
glyphname = uni0621;
layers = (
{
anchors = (
{
name = t.uni064B;
position = "{186, 785}";
},
{
name = b.uni064D_1;
position = "{314, -257}";
}
);
layerId = "07A927BF-F932-4906-9D1A-F4B6A9E74CB4";
shapes = (
{
closed = 1;
nodes = (
(126,351,l),
(173,481,o),
(320,509,q),
(356,509,l),
(360,508,o),
(365,508,q),
(368,507,l),
(372,507,l),
(479,477,o),
(443,362,q),
(435,366,o),
(423,369,q),
(421,370,l),
(416,371,o),
(412,372,qs),
(402,375,o),
(390,376,q),
(388,377,l),
(384,377,l),
(382,378,l),
(292,382,o),
(201,333,q),
(196,332,o),
(191,328,q),
(185,325,l),
(182,325,l),
(181,323,l),
(172,321,o),
(164,313,q),
(160,312,o),
(156,309,q),
(151,307,l),
(155,297,o),
(165,288,q),
(168,282,l),
(175,275,l),
(177,272,o),
(180,268,q),
(182,266,l),
(189,256,o),
(202,246,q),
(210,236,ls),
(213,233,o),
(218,230,q),
(220,227,l),
(226,224,l),
(233,215,o),
(244,208,q),
(249,202,o),
(257,198,q),
(262,192,o),
(271,187,q),
(276,181,o),
(285,178,q),
(297,169,l),
(300,168,l),
(306,163,o),
(314,159,q),
(318,156,o),
(324,154,q),
(333,148,ls),
(340,144,o),
(348,141,q),
(384,163,ls),
(387,165,o),
(392,167,q),
(401,172,l),
(402,172,o),
(403,174,q),
(420,183,l),
(425,185,o),
(428,188,q),
(429,188,o),
(430,189,q),
(431,189,o),
(432,190,q),
(447,198,l),
(452,200,o),
(458,205,q),
(483,217,l),
(485,219,l),
(489,220,o),
(492,222,q),
(496,223,o),
(500,226,q),
(505,227,l),
(520,235,l),
(529,237,o),
(538,244,q),
(542,244,o),
(546,247,q),
(547,247,o),
(549,248,qs),
(560,252,l),
(569,257,l),
(571,257,o),
(574,259,q),
(583,263,l),
(593,265,o),
(605,270,q),
(607,270,o),
(608,269,q),
(591,237,l),
(589,235,l),
(588,231,l),
(582,225,o),
(580,216,q),
(578,215,l),
(574,207,l),
(570,203,o),
(568,197,q),
(567,197,o),
(566,195,qs),
(563,189,l),
(560,186,o),
(559,183,q),
(555,178,o),
(551,170,q),
(547,166,l),
(539,153,l),
(535,148,o),
(530,141,qs),
(527,137,l),
(523,133,o),
(520,127,qs),
(519,125,l),
(497,116,l),
(495,114,l),
(494,114,o),
(492,113,qs),
(467,103,l),
(454,95,l),
(448,94,o),
(442,89,q),
(435,87,o),
(428,83,qs),
(416,76,l),
(407,73,o),
(398,67,q),
(392,65,l),
(388,62,o),
(383,59,q),
(381,57,l),
(375,55,o),
(367,50,qs),
(355,43,l),
(348,41,o),
(343,35,q),
(327,27,l),
(326,27,o),
(325,25,q),
(322,24,l),
(319,21,l),
(317,21,o),
(316,19,q),
(305,12,l),
(295,8,o),
(290,3,q),
(285,0,ls),
(282,-2,o),
(279,-5,q),
(272,-7,o),
(266,-13,q),
(259,-16,o),
(250,-23,q),
(247,-26,l),
(227,-38,l),
(226,-40,l),
(225,-40,o),
(224,-42,q),
(221,-43,l),
(218,-46,o),
(211,-49,q),
(209,-52,l),
(207,-52,o),
(207,-54,q),
(203,-56,o),
(197,-60,qs),
(178,-75,l),
(172,-77,o),
(167,-84,q),
(158,-90,l),
(157,-90,o),
(156,-91,q),
(153,-93,o),
(150,-96,q),
(148,-96,o),
(148,-98,q),
(144,-100,l),
(139,-105,l),
(134,-107,o),
(130,-111,qs),
(120,-119,ls),
(118,-120,o),
(116,-123,q),
(106,-128,o),
(96,-139,q),
(93,-140,l),
(86,-148,l),
(83,-148,l),
(75,-156,l),
(71,-158,l),
(69,-161,l),
(44,-182,l),
(43,-184,l),
(31,-194,o),
(13,-196,q),
(11,-191,o),
(11,-184,q),
(13,-180,o),
(16,-172,q),
(19,-169,l),
(21,-165,o),
(24,-160,qs),
(30,-148,ls),
(33,-142,o),
(38,-135,q),
(41,-129,l),
(56,-107,ls),
(59,-103,o),
(62,-97,q),
(64,-96,l),
(65,-93,l),
(78,-76,ls),
(81,-73,o),
(84,-69,q),
(86,-68,l),
(89,-63,l),
(94,-59,o),
(97,-53,q),
(109,-41,l),
(111,-37,l),
(118,-32,o),
(125,-24,q),
(129,-22,o),
(132,-18,q),
(140,-10,l),
(143,-9,l),
(156,4,l),
(165,8,o),
(173,17,q),
(180,21,ls),
(184,23,o),
(188,28,q),
(190,28,o),
(191,30,q),
(196,32,o),
(203,36,q),
(38,130,o),
(103,304,q),
(104,310,o),
(108,318,qs),
(113,327,l),
(116,335,l),
(122,346,l)
);
}
);
width = 541;
}
);
unicode = 1569;
},
{
glyphname = uni0622;
layers = (
{
anchors = (
{
name = t.uni064B;
position = "{43, 1470}";
},
{
name = b.uni064D_1;
position = "{114, -228}";
}
);
layerId = "07A927BF-F932-4906-9D1A-F4B6A9E74CB4";
shapes = (
{
closed = 1;
nodes = (
(423,1757,l),
(342,1668,o),
(223,1668,qs),
(192,1668,o),
(69,1703,o),
(38,1703,qs),
(7,1703,o),
(-30,1683,q),
(-44,1693,l),
(7,1781,o),
(67,1781,qs),
(98,1781,o),
(254,1739,o),
(292,1739,qs),
(335,1739,o),
(412,1768,q)
);
},
{
closed = 1;
nodes = (
(157,1448,l),
(151,1442,l),
(150,1440,o),
(149,1440,q),
(147,1434,l),
(145,1433,l),
(144,1430,l),
(137,1423,o),
(134,1418,q),
(130,1414,l),
(128,1409,l),
(116,1395,l),
(113,1388,o),
(109,1386,q),
(108,1382,l),
(96,1367,l),
(93,1365,l),
(90,1359,o),
(88,1355,q),
(80,1347,l),
(79,1344,l),
(70,1335,o),
(67,1326,q),
(107,805,l),
(107,802,l),
(114,726,l),
(114,723,ls),
(114,713,o),
(116,705,q),
(117,690,l),
(118,684,o),
(118,677,q),
(119,675,l),
(119,665,l),
(120,664,o),
(120,663,q),
(125,612,l),
(125,606,l),
(127,592,l),
(127,585,l),
(128,581,l),
(128,570,ls),
(128,562,o),
(129,557,qs),
(130,548,l),
(130,540,l),
(131,536,l),
(131,529,l),
(132,527,l),
(133,505,l),
(134,502,l),
(135,483,l),
(136,481,l),
(136,475,o),
(137,470,q),
(139,436,l),
(141,423,o),
(141,414,q),
(146,348,ls),
(147,338,o),
(147,331,q),
(150,270,l),
(151,268,o),
(151,267,q),
(153,231,l),
(153,225,o),
(154,221,q),
(154,207,l),
(156,196,o),
(156,186,qs),
(156,183,l),
(155,173,o),
(157,166,q),
(157,160,ls),
(157,151,o),
(158,145,q),
(158,126,l),
(160,122,o),
(160,119,qs),
(160,79,l),
(163,66,o),
(161,57,q),
(161,51,l),
(162,45,o),
(162,41,qs),
(162,17,l),
(164,4,o),
(163,-5,q),
(170,-2,o),
(172,3,qs),
(173,6,l),
(183,18,l),
(189,28,o),
(193,34,q),
(194,38,l),
(198,43,l),
(204,55,o),
(208,63,q),
(211,73,o),
(216,80,q),
(216,83,o),
(217,84,q),
(219,88,l),
(223,101,o),
(226,108,q),
(226,111,o),
(227,112,q),
(229,119,o),
(231,124,q),
(231,127,o),
(232,128,q),
(239,153,l),
(240,161,l),
(244,176,l),
(247,206,l),
(248,208,l),
(250,227,l),
(250,234,l),
(252,240,o),
(251,244,q),
(252,248,l),
(252,256,o),
(253,262,q),
(253,329,ls),
(253,337,o),
(252,342,q),
(252,352,l),
(251,355,o),
(251,358,qs),
(251,362,l),
(247,404,l),
(247,412,l),
(246,416,o),
(246,420,q),
(242,481,l),
(240,497,l),
(240,508,l),
(239,512,o),
(239,515,q),
(238,525,o),
(238,532,q),
(237,533,o),
(237,534,q),
(236,551,l),
(236,554,l),
(234,562,o),
(235,566,q),
(234,573,l),
(234,583,o),
(232,591,q),
(232,598,l),
(231,603,l),
(231,614,l),
(229,630,l),
(229,638,l),
(228,641,l),
(228,644,l),
(226,665,l),
(226,683,l),
(225,688,l),
(225,697,l),
(224,700,l),
(224,704,l),
(222,725,l),
(222,733,l),
(221,740,l),
(221,745,o),
(220,748,q),
(220,758,l),
(219,763,l),
(219,770,l),
(217,780,o),
(217,787,qs),
(217,792,o),
(216,795,q),
(216,798,ls),
(216,804,o),
(215,809,q),
(215,816,l),
(214,818,l),
(186,1300,l),
(186,1303,l),
(185,1304,o),
(185,1306,qs),
(185,1309,l),
(182,1344,l),
(182,1348,l),
(180,1364,l),
(180,1372,o),
(179,1376,q),
(179,1384,l),
(178,1388,l),
(178,1392,l),
(177,1408,l),
(176,1412,l),
(176,1422,l),
(175,1425,l),
(175,1431,o),
(174,1435,q),
(174,1446,l),
(172,1456,o),
(172,1463,q),
(171,1466,o),
(169,1466,q)
);
}
);
width = 339;
}
);
unicode = 1570;
},
{
glyphname = uni0623;
layers = (
{
anchors = (
{
name = t.uni064B;
position = "{14, 1899}";
},
{
name = b.uni064D_1;
position = "{114, -143}";
}
);
layerId = "07A927BF-F932-4906-9D1A-F4B6A9E74CB4";
shapes = (
{
closed = 1;
nodes = (
(86,1866,o),
(154,1884,q),
(164,1885,o),
(180,1883,q),
(185,1883,l),
(227,1866,o),
(212,1820,q),
(147,1839,o),
(87,1794,q),
(92,1787,o),
(109,1764,o),
(139,1741,o),
(168,1725,q),
(171,1724,l),
(186,1735,o),
(286,1791,o),
(285,1779,q),
(247,1721,l),
(246,1716,l),
(236,1714,o),
(147,1655,o),
(93,1623,o),
(32,1579,o),
(25,1577,q),
(25,1587,l),
(27,1605,o),
(59,1644,o),
(100,1674,o),
(106,1678,q),
(34,1721,o),
(67,1801,q)
);
},
{
closed = 1;
nodes = (
(156,1466,l),
(158,1466,o),
(159,1463,q),
(159,1456,o),
(161,1446,q),
(161,1435,l),
(162,1430,o),
(162,1425,q),
(163,1422,l),
(163,1412,l),
(164,1408,l),
(165,1392,l),
(165,1388,l),
(166,1384,l),
(166,1376,l),
(167,1371,o),
(167,1364,q),
(168,1348,l),
(168,1344,l),
(171,1309,l),
(171,1306,ls),
(171,1304,o),
(172,1303,q),
(172,1300,l),
(201,818,l),
(202,816,l),
(202,809,l),
(203,804,o),
(203,798,qs),
(203,795,l),
(204,792,o),
(204,787,qs),
(204,780,o),
(206,770,q),
(206,763,l),
(207,758,l),
(207,748,l),
(208,745,o),
(207,740,q),
(208,733,l),
(208,725,l),
(210,704,l),
(210,700,l),
(211,697,l),
(211,688,l),
(212,683,l),
(212,677,l),
(213,673,l),
(213,665,l),
(215,644,l),
(215,641,l),
(216,638,l),
(216,630,l),
(218,614,l),
(218,603,l),
(219,598,l),
(219,591,l),
(221,583,o),
(221,573,q),
(222,566,l),
(221,561,o),
(223,554,q),
(223,551,l),
(224,534,l),
(224,533,o),
(225,532,q),
(225,525,o),
(226,515,q),
(226,512,o),
(226,508,qs),
(226,497,l),
(233,420,l),
(233,416,o),
(234,412,q),
(234,404,l),
(238,362,l),
(238,358,ls),
(238,355,o),
(239,352,q),
(239,342,l),
(240,337,o),
(240,329,qs),
(240,262,l),
(239,256,o),
(239,248,q),
(238,244,l),
(239,240,o),
(237,234,q),
(237,227,l),
(235,208,l),
(234,206,l),
(230,176,l),
(226,161,l),
(226,153,l),
(219,128,l),
(218,127,o),
(218,124,q),
(216,119,o),
(214,112,q),
(213,111,o),
(213,108,q),
(209,100,o),
(206,88,q),
(204,84,l),
(203,83,o),
(203,80,q),
(198,73,o),
(195,63,q),
(190,55,o),
(185,43,q),
(181,38,l),
(180,34,l),
(175,28,o),
(169,18,q),
(167,16,l),
(167,13,l),
(160,6,l),
(159,3,l),
(156,-2,o),
(149,-5,q),
(150,4,o),
(148,17,q),
(148,41,ls),
(148,46,o),
(148,51,qs),
(148,57,l),
(150,66,o),
(147,79,q),
(147,119,ls),
(147,122,o),
(145,126,q),
(145,145,l),
(144,152,o),
(144,160,qs),
(144,166,l),
(142,173,o),
(143,183,q),
(142,187,l),
(143,195,o),
(141,207,q),
(141,221,l),
(140,226,o),
(140,231,q),
(138,267,l),
(138,268,o),
(137,270,q),
(133,331,l),
(133,338,o),
(132,348,qs),
(128,414,ls),
(127,423,o),
(126,436,qs),
(124,470,l),
(123,475,o),
(123,481,q),
(122,483,l),
(121,502,l),
(120,505,l),
(119,527,l),
(118,529,l),
(118,536,l),
(117,540,l),
(117,548,l),
(116,557,ls),
(115,563,o),
(115,570,q),
(113,585,l),
(113,592,l),
(111,606,l),
(111,612,l),
(107,663,l),
(107,664,o),
(106,665,q),
(106,675,l),
(105,677,l),
(105,685,o),
(104,690,q),
(103,705,l),
(101,713,o),
(101,723,qs),
(101,726,l),
(93,802,l),
(93,805,l),
(53,1326,l),
(57,1336,o),
(66,1344,q),
(67,1347,l),
(74,1355,ls),
(77,1359,o),
(80,1365,q),
(83,1367,l),
(96,1386,l),
(100,1389,o),
(103,1395,q),
(121,1418,l),
(124,1424,o),
(130,1430,q),
(131,1433,l),
(133,1434,l),
(136,1440,l),
(137,1440,o),
(138,1442,q),
(144,1448,l)
);
}
);
width = 332;
}
);
unicode = 1571;
},
{
glyphname = uni0624;
layers = (
{
layerId = "07A927BF-F932-4906-9D1A-F4B6A9E74CB4";
shapes = (
{
closed = 1;
nodes = (
(411,530,l),
(444,533,o),
(475,512,q),
(479,507,o),
(485,502,q),
(487,498,o),
(492,496,q),
(501,485,l),
(503,480,o),
(507,477,q),
(509,470,o),
(516,463,q),
(527,443,l),
(529,438,o),
(533,433,q),
(534,429,o),
(537,425,q),
(540,418,ls),
(542,413,o),
(545,407,q),
(548,397,o),
(556,380,q),
(556,379,o),
(557,377,qs),
(558,371,o),
(561,365,q),
(567,338,l),
(567,337,o),
(568,335,qs),
(569,331,l),
(569,323,o),
(572,315,q),
(572,309,l),
(574,301,l),
(574,297,l),
(575,293,l),
(574,288,o),
(576,282,q),
(576,221,l),
(574,206,l),
(574,202,o),
(573,198,q),
(573,189,l),
(571,182,o),
(570,172,q),
(569,170,l),
(569,167,l),
(568,165,l),
(568,161,l),
(565,150,l),
(565,147,l),
(560,125,ls),
(559,120,o),
(557,114,qs),
(555,107,l),
(555,104,l),
(552,97,o),
(549,87,qs),
(543,69,l),
(540,63,o),
(540,57,q),
(527,28,l),
(525,21,l),
(496,-42,ls),
(494,-45,o),
(492,-49,q),
(491,-52,l),
(489,-55,o),
(487,-60,q),
(483,-64,o),
(482,-70,q),
(479,-73,o),
(477,-77,q),
(475,-79,l),
(473,-84,l),
(467,-91,o),
(460,-102,qs),
(458,-106,o),
(453,-110,q),
(452,-113,l),
(449,-115,l),
(443,-124,ls),
(366,-239,o),
(219,-288,q),
(213,-289,o),
(206,-292,q),
(200,-293,o),
(192,-296,q),
(189,-296,l),
(174,-300,l),
(172,-300,o),
(171,-301,q),
(167,-301,l),
(142,-305,l),
(124,-306,l),
(122,-307,l),
(91,-307,ls),
(-90,-307,o),
(-236,-168,q),
(-240,-162,o),
(-241,-156,q),
(-229,-156,o),
(-214,-162,q),
(-191,-167,l),
(-181,-168,l),
(-174,-168,l),
(-172,-169,l),
(-169,-169,l),
(-167,-170,l),
(-133,-174,l),
(-130,-174,l),
(-128,-175,l),
(-125,-175,l),
(-119,-176,l),
(-115,-175,o),
(-110,-177,q),
(-101,-177,l),
(-99,-178,l),
(-92,-178,o),
(-83,-179,q),
(-72,-179,l),
(-68,-180,l),
(-50,-180,ls),
(271,-180,o),
(485,56,q),
(489,73,l),
(494,109,l),
(495,125,l),
(495,155,l),
(494,161,l),
(494,167,o),
(493,174,q),
(476,172,l),
(474,171,l),
(471,171,ls),
(469,171,o),
(468,170,q),
(462,170,l),
(445,168,l),
(438,168,o),
(429,167,q),
(422,168,o),
(413,166,q),
(384,166,l),
(380,165,o),
(375,167,q),
(362,167,l),
(341,170,l),
(338,170,l),
(334,171,l),
(331,171,l),
(323,173,o),
(310,179,q),
(305,180,l),
(304,182,l),
(300,183,l),
(297,186,o),
(291,187,q),
(287,191,o),
(280,197,q),
(271,206,l),
(269,212,o),
(264,217,q),
(253,241,o),
(253,269,qs),
(253,278,o),
(254,286,qs),
(256,303,l),
(257,305,l),
(257,309,o),
(259,314,q),
(259,318,l),
(261,323,o),
(262,329,q),
(265,337,l),
(268,352,l),
(286,399,l),
(288,402,o),
(288,406,q),
(293,412,o),
(299,423,qs),
(305,433,l),
(308,436,o),
(311,443,q),
(319,453,l),
(320,456,o),
(324,460,q),
(329,469,l),
(335,474,o),
(341,482,q),
(343,483,l),
(345,487,l),
(350,490,o),
(354,497,q),
(357,500,l),
(363,503,l),
(370,511,l),
(375,513,o),
(382,518,qs),
(386,520,o),
(389,522,q),
(401,527,l),
(404,527,l)
);
},
{
closed = 1;
nodes = (
(257,1227,o),
(359,1256,q),
(373,1258,o),
(397,1254,q),
(404,1254,l),
(466,1229,o),
(444,1160,q),
(347,1189,o),
(258,1123,q),
(265,1113,o),
(292,1079,o),
(336,1044,o),
(376,1023,q),
(383,1020,l),
(406,1037,o),
(552,1118,o),
(551,1100,q),
(493,1008,l),
(478,1004,o),
(346,917,o),
(267,870,o),
(178,804,o),
(167,802,q),
(167,817,l),
(170,844,o),
(217,901,o),
(278,945,o),
(286,952,q),
(179,1014,o),
(228,1133,q)
);
}
);
width = 610;
}
);
unicode = 1572;
},
{
glyphname = uni0625;
layers = (
{
anchors = (
{
name = t.uni064B;
position = "{100, 1599}";
},
{
name = b.uni064D_1;
position = "{57, -457}";
}
);
layerId = "07A927BF-F932-4906-9D1A-F4B6A9E74CB4";
shapes = (
{
closed = 1;
nodes = (
(116,-149,o),
(186,-130,q),
(196,-129,o),
(210,-131,q),
(215,-131,l),
(257,-148,o),
(243,-195,q),
(178,-176,o),
(117,-221,q),
(122,-228,o),
(140,-250,o),
(169,-274,o),
(197,-288,q),
(202,-290,l),
(217,-279,o),
(316,-224,o),
(315,-236,q),
(278,-294,l),
(276,-299,l),
(266,-301,o),
(177,-360,o),
(124,-392,o),
(63,-436,o),
(55,-438,q),
(55,-427,l),
(57,-409,o),
(89,-371,o),
(130,-341,o),
(136,-337,q),
(64,-294,o),
(97,-214,q)
);
},
{
closed = 1;
nodes = (
(158,1466,l),
(160,1466,o),
(161,1463,q),
(161,1456,o),
(163,1446,q),
(163,1435,l),
(164,1430,o),
(164,1425,q),
(165,1422,l),
(165,1412,l),
(166,1408,l),
(167,1392,l),
(167,1376,l),
(168,1371,o),
(168,1364,q),
(170,1348,l),
(170,1344,l),
(173,1309,l),
(173,1306,ls),
(173,1304,o),
(174,1303,q),
(174,1300,l),
(203,818,l),
(204,816,l),
(204,809,l),
(205,804,o),
(205,798,qs),
(205,795,l),
(206,792,o),
(206,787,qs),
(206,780,o),
(207,770,q),
(207,763,l),
(208,758,l),
(208,748,l),
(209,745,o),
(209,740,q),
(210,733,l),
(210,725,l),
(212,704,l),
(212,700,l),
(213,697,l),
(213,688,l),
(214,683,l),
(214,677,l),
(215,673,l),
(215,665,l),
(217,644,l),
(217,641,l),
(218,638,l),
(218,630,l),
(220,614,l),
(220,603,l),
(221,598,l),
(221,591,l),
(223,583,o),
(223,573,q),
(224,566,l),
(223,561,o),
(225,554,q),
(225,551,ls),
(225,533,o),
(226,529,q),
(226,525,o),
(227,515,q),
(227,512,o),
(228,508,q),
(228,497,l),
(235,420,l),
(235,416,o),
(236,412,q),
(236,404,l),
(240,362,l),
(240,358,ls),
(240,355,o),
(241,352,q),
(241,342,l),
(242,337,o),
(242,329,qs),
(242,262,l),
(241,256,o),
(241,248,q),
(240,244,l),
(241,240,o),
(239,234,q),
(239,227,l),
(237,208,l),
(236,206,l),
(232,176,l),
(228,161,l),
(227,153,l),
(221,128,l),
(220,127,o),
(220,124,q),
(218,119,o),
(216,112,q),
(215,111,o),
(215,108,q),
(211,100,o),
(207,88,q),
(206,84,l),
(205,83,o),
(205,80,q),
(200,73,o),
(197,63,q),
(192,55,o),
(187,43,q),
(183,38,l),
(182,34,l),
(177,28,o),
(171,18,q),
(162,6,l),
(161,3,l),
(158,-2,o),
(151,-5,q),
(152,4,o),
(150,17,q),
(150,41,ls),
(150,46,o),
(149,51,q),
(149,57,l),
(150,66,o),
(148,79,q),
(148,119,ls),
(148,122,o),
(147,126,q),
(147,145,l),
(146,152,o),
(146,160,qs),
(146,166,l),
(144,173,o),
(145,183,q),
(144,187,l),
(145,195,o),
(143,207,q),
(143,221,l),
(142,226,o),
(142,231,q),
(140,267,l),
(140,268,o),
(139,270,q),
(135,331,l),
(135,338,o),
(134,348,qs),
(129,414,l),
(129,423,o),
(128,436,qs),
(126,470,l),
(125,475,o),
(125,481,q),
(124,483,l),
(123,502,l),
(122,505,l),
(121,527,l),
(120,529,l),
(120,536,l),
(119,540,l),
(119,548,l),
(118,557,ls),
(117,563,o),
(117,570,q),
(115,585,l),
(115,592,l),
(113,606,l),
(113,612,l),
(109,649,ls),
(107,664,o),
(108,665,q),
(108,675,l),
(107,677,l),
(107,685,o),
(106,690,q),
(105,705,l),
(103,713,o),
(103,723,qs),
(103,726,l),
(95,802,l),
(95,805,l),
(55,1326,l),
(59,1336,o),
(68,1344,q),
(70,1348,l),
(76,1355,ls),
(79,1359,o),
(82,1365,q),
(85,1367,l),
(98,1386,l),
(102,1389,o),
(105,1395,q),
(123,1418,l),
(126,1424,o),
(132,1430,q),
(133,1433,l),
(135,1434,l),
(138,1440,l),
(139,1440,o),
(140,1442,q),
(146,1448,l)
);
}
);
width = 337;
}
);
unicode = 1573;
},
{
glyphname = uni0626;
layers = (
{
layerId = "07A927BF-F932-4906-9D1A-F4B6A9E74CB4";
shapes = (
{
closed = 1;
nodes = (
(374,1261,o),
(475,1290,q),
(489,1292,o),
(513,1288,q),
(520,1288,l),
(582,1263,o),
(561,1194,q),
(464,1223,o),
(374,1157,q),
(381,1147,o),
(409,1113,o),
(452,1078,o),
(492,1057,q),
(499,1054,l),
(522,1071,o),
(668,1152,o),
(667,1134,q),
(609,1042,l),
(594,1038,o),
(463,951,o),
(384,904,o),
(294,838,o),
(283,836,q),
(283,851,l),
(286,878,o),
(333,935,o),
(394,979,o),
(403,985,q),
(296,1048,o),
(345,1167,q)
);
},
{
closed = 1;
nodes = (
(1339,833,l),
(1408,819,o),
(1408,773,qs),
(1408,764,ls),
(1408,669,o),
(1348,604,q),
(1337,604,o),
(1331,644,q),
(1314,664,o),
(1288,664,qs),
(1243,664,l),
(1059,632,o),
(837,467,q),
(807,436,o),
(794,436,q),
(832,395,o),
(948,370,qs),
(1163,323,o),
(1163,210,qs),
(1163,199,ls),
(1163,104,o),
(1087,22,q),
(756,-203,o),
(513,-203,qs),
(473,-203,ls),
(191,-203,o),
(79,42,q),
(55,121,o),
(55,196,qs),
(55,360,o),
(167,536,q),
(187,548,l),
(203,539,o),
(204,528,q),
(128,374,o),
(128,283,qs),
(128,37,o),
(452,-18,qs),
(478,-22,o),
(521,-22,qs),
(541,-22,ls),
(765,-22,o),
(1058,130,q),
(1058,138,l),
(986,180,o),
(810,226,q),
(709,274,o),
(709,359,qs),
(709,379,ls),
(709,508,o),
(955,692,q),
(1170,833,o),
(1323,833,qs)
);
}
);
width = 1465;
}
);
unicode = 1574;
},
{
glyphname = uni0627;
layers = (
{
anchors = (
{
name = t.uni064B;
position = "{14, 1542}";
},
{
name = b.uni064D_1;
position = "{157, -186}";
}
);
layerId = "07A927BF-F932-4906-9D1A-F4B6A9E74CB4";
shapes = (
{
closed = 1;
nodes = (
(189,1466,l),
(191,1466,o),
(192,1463,q),
(192,1456,o),
(194,1446,q),
(194,1435,l),
(195,1430,o),
(195,1425,q),
(196,1422,l),
(196,1412,l),
(197,1408,l),
(198,1392,l),
(198,1388,l),
(199,1384,l),
(199,1376,l),
(200,1371,o),
(200,1364,q),
(202,1348,l),
(202,1344,l),
(205,1309,l),
(205,1306,ls),
(205,1304,o),
(206,1303,q),
(206,1300,l),
(234,818,l),
(235,816,l),
(235,809,l),
(236,804,o),
(236,798,qs),
(236,795,l),
(237,792,o),
(237,787,qs),
(237,780,o),
(239,770,q),
(239,763,l),
(240,758,l),
(240,748,l),
(241,745,o),
(241,740,q),
(242,733,l),
(242,725,l),
(244,704,l),
(244,700,l),
(245,697,l),
(245,688,l),
(246,683,l),
(246,665,l),
(248,644,l),
(248,641,l),
(249,638,l),
(249,630,l),
(251,614,l),
(251,603,l),
(252,598,l),
(252,591,l),
(254,583,o),
(254,573,q),
(255,566,l),
(254,561,o),
(256,554,q),
(256,551,l),
(257,534,l),
(257,533,o),
(258,532,q),
(258,525,o),
(259,515,q),
(259,512,o),
(260,508,q),
(260,497,l),
(262,481,l),
(266,420,l),
(266,416,o),
(267,412,q),
(267,404,l),
(271,362,l),
(271,358,ls),
(271,355,o),
(272,352,q),
(272,342,l),
(273,337,o),
(273,329,qs),
(273,262,l),
(272,256,o),
(272,248,q),
(271,244,l),
(272,240,o),
(270,234,q),
(270,227,l),
(268,208,l),
(267,206,l),
(264,176,l),
(260,161,l),
(259,153,l),
(252,128,l),
(251,127,o),
(251,124,q),
(249,119,o),
(247,112,q),
(246,111,o),
(246,108,q),
(242,100,o),
(239,88,q),
(237,84,l),
(236,83,o),
(236,80,q),
(231,73,o),
(228,63,q),
(223,55,o),
(218,43,q),
(214,38,l),
(213,34,l),
(208,28,o),
(203,18,q),
(193,6,l),
(192,3,l),
(189,-2,o),
(183,-5,q),
(184,4,o),
(182,17,q),
(182,41,ls),
(182,46,o),
(181,51,q),
(181,57,l),
(183,66,o),
(180,79,q),
(180,119,ls),
(180,122,o),
(178,126,q),
(178,145,l),
(177,152,o),
(177,160,qs),
(177,166,l),
(175,173,o),
(176,183,q),
(175,187,l),
(176,195,o),
(174,207,q),
(174,221,l),
(173,226,o),
(173,231,q),
(171,267,l),
(171,268,o),
(170,270,q),
(167,331,l),
(167,338,o),
(166,348,qs),
(161,414,l),
(161,423,o),
(159,436,q),
(157,470,l),
(156,475,o),
(156,481,q),
(155,483,l),
(154,502,l),
(153,505,l),
(152,527,l),
(151,529,l),
(151,536,l),
(150,540,l),
(150,548,l),
(149,557,ls),
(148,563,o),
(148,570,qs),
(148,581,l),
(147,585,l),
(147,592,l),
(145,606,l),
(145,612,l),
(140,663,l),
(140,664,o),
(139,665,q),
(139,675,l),
(138,677,l),
(138,685,o),
(137,690,q),
(136,705,l),
(134,713,o),
(134,723,qs),
(134,726,l),
(127,802,l),
(127,805,l),
(87,1326,l),
(91,1336,o),
(99,1344,q),
(100,1347,l),
(108,1355,l),
(111,1359,o),
(113,1365,q),
(116,1367,l),
(128,1382,l),
(129,1386,l),
(133,1389,o),
(136,1395,q),
(148,1409,l),
(150,1414,l),
(154,1418,l),
(157,1424,o),
(164,1430,q),
(165,1433,l),
(167,1434,l),
(169,1440,l),
(170,1440,o),
(171,1442,q),
(177,1448,l)
);
}
);
width = 339;
}
);
unicode = 1575;
},
{
glyphname = uni0628;
layers = (
{
layerId = "07A927BF-F932-4906-9D1A-F4B6A9E74CB4";
shapes = (
{
closed = 1;
nodes = (
(1265,578,o),
(1265,482,qs),
(1265,422,ls),
(1265,290,o),
(1150,170,q),
(897,-5,o),
(598,-5,qs),
(567,-5,ls),
(161,-5,o),
(86,261,q),
(76,325,o),
(75,337,q),
(75,523,o),
(181,638,q),
(190,638,l),
(190,628,l),
(161,524,o),
(161,467,qs),
(161,457,ls),
(161,245,o),
(466,170,q),
(531,161,o),
(587,161,qs),
(658,161,ls),
(894,161,o),
(1194,306,q),
(1194,311,ls),
(1194,426,o),
(1109,558,q),
(1128,615,o),
(1185,708,q)
);
},
{
closed = 1;
nodes = (
(627,-276,l),
(632,-276,ls),
(635,-276,o),
(742,-382,q),
(742,-389,o),
(632,-492,q),
(627,-492,l),
(522,-408,o),
(522,-377,q)
);
}
);
width = 1331;
}
);
unicode = 1576;
},
{
glyphname = uni0629;
layers = (
{
layerId = "07A927BF-F932-4906-9D1A-F4B6A9E74CB4";
shapes = (
{
closed = 1;
nodes = (
(442,1117,o),
(489,1065,o),
(545,1018,q),
(437,905,l),
(377,942,o),
(325,1016,q),
(418,1108,o),
(428,1120,q)
);
},
{
closed = 1;
nodes = (
(221,1117,o),
(267,1064,o),
(324,1018,q),
(325,1015,l),
(215,905,l),
(155,942,o),
(104,1016,q),
(197,1108,o),
(207,1120,q)
);
},
{
closed = 1;
nodes = (
(293,722,l),
(317,722,l),
(419,645,o),
(486,550,qs),
(535,481,o),
(572,352,q),
(572,326,o),
(572,298,o),
(561,230,q),
(514,96,o),
(403,40,qs),
(359,17,o),
(306,7,q),
(254,7,ls),
(128,7,o),
(83,126,q),
(73,159,o),
(72,175,q),
(72,225,l),
(82,347,o),
(221,561,q),
(221,647,o),
(288,719,q)
);
},
{
closed = 1;
nodes = (
(188,387,o),
(174,281,q),
(174,275,ls),
(174,206,o),
(256,173,q),
(284,165,o),
(311,165,qs),
(391,165,o),
(477,234,q),
(459,328,o),
(382,419,qs),
(310,504,o),
(289,503,q)
);
}
);
width = 635;
}
);
unicode = 1577;
},
{
glyphname = uni062A;
layers = (
{
layerId = "07A927BF-F932-4906-9D1A-F4B6A9E74CB4";
shapes = (
{
closed = 1;
nodes = (
(690,951,l),
(690,962,o),
(791,1055,q),
(802,1054,o),
(880,975,qs),
(895,959,o),
(905,960,q),
(905,951,l),
(807,841,o),
(800,840,q),
(791,840,ls),
(781,840,o),
(685,940,q),
(581,840,l),
(570,840,ls),
(554,840,o),
(465,945,q),
(480,971,o),
(570,1055,q)
);
},
{
closed = 1;
nodes = (
(1286,581,o),
(1286,485,qs),
(1286,425,ls),
(1286,274,o),
(1151,160,q),
(904,0,o),
(620,0,qs),
(590,0,ls),
(206,0,o),
(122,229,qs),
(104,278,o),
(100,340,q),
(100,526,o),
(205,640,q),
(215,638,o),
(215,630,q),
(185,527,o),
(185,470,qs),
(185,461,ls),
(185,223,o),
(555,165,q),
(609,165,o),
(645,160,q),
(924,160,o),
(1215,315,q),
(1215,428,o),
(1131,561,q),
(1150,618,o),
(1206,710,q)
);
}
);
width = 1371;
}
);
unicode = 1578;
},
{
glyphname = uni062B;
layers = (
{
layerId = "07A927BF-F932-4906-9D1A-F4B6A9E74CB4";
shapes = (
{
closed = 1;
nodes = (
(798,1013,o),
(845,961,o),
(901,915,q),
(793,801,l),
(733,838,o),
(681,913,q),
(774,1004,o),
(784,1016,q)
);
},
{
closed = 1;
nodes = (
(576,1013,o),
(623,960,o),
(679,915,q),
(681,912,l),
(571,801,l),
(511,838,o),
(460,913,q),
(552,1004,o),
(562,1016,q)
);
},
{
closed = 1;
nodes = (
(694,1240,o),
(741,1187,o),
(798,1141,q),
(799,1138,l),
(794,1135,o),
(689,1028,q),
(629,1065,o),
(578,1139,q),
(670,1231,o),
(680,1243,q)
);
},
{
closed = 1;
nodes = (
(1286,581,o),
(1286,485,qs),
(1286,425,ls),
(1286,274,o),
(1151,160,q),
(904,0,o),
(620,0,qs),
(590,0,ls),
(206,0,o),
(122,229,qs),
(104,278,o),
(100,340,q),
(100,526,o),
(205,640,q),
(215,638,o),
(215,630,q),
(185,527,o),
(185,470,qs),
(185,461,ls),
(185,223,o),
(555,165,q),
(609,165,o),
(645,160,q),
(924,160,o),
(1215,315,q),
(1215,428,o),
(1131,561,q),
(1150,618,o),
(1206,710,q)
);
}
);
width = 1388;
}
);
unicode = 1579;
},
{
glyphname = uni062C;
layers = (
{
anchors = (
{
name = t.uni064B;
position = "{528, 918}";
},
{
name = b.uni064D_1;
position = "{561, -1042}";
}
);
layerId = "07A927BF-F932-4906-9D1A-F4B6A9E74CB4";
shapes = (
{
closed = 1;
nodes = (
(145,706,o),
(359,742,q),
(420,742,l),
(427,740,l),
(435,740,o),
(443,738,q),
(458,738,l),
(465,737,l),
(471,737,o),
(481,735,q),
(492,735,l),
(522,729,l),
(530,729,l),
(545,725,l),
(551,725,l),
(559,723,l),
(564,723,l),
(581,719,l),
(589,719,l),
(597,718,ls),
(609,717,o),
(627,712,q),
(637,712,l),
(667,706,l),
(675,706,l),
(690,702,l),
(696,702,l),
(726,699,l),
(732,699,l),
(738,697,l),
(751,697,l),
(757,695,l),
(772,695,l),
(778,693,l),
(785,693,l),
(798,691,l),
(871,687,l),
(897,687,l),
(907,688,o),
(918,685,q),
(975,685,l),
(991,684,o),
(1014,687,q),
(1059,687,l),
(1101,689,l),
(1137,689,l),
(1137,689,l),
(1135,687,l),
(1135,687,l),
(1125,673,o),
(1114,647,q),
(1112,646,o),
(1111,643,q),
(1107,638,l),
(1105,632,l),
(1076,584,l),
(1069,567,l),
(1062,560,o),
(1057,548,q),
(1052,541,l),
(1042,522,l),
(538,492,o),
(260,17,q),
(260,11,l),
(254,2,o),
(248,-11,q),
(245,-21,l),
(244,-27,o),
(239,-36,q),
(235,-48,l),
(234,-54,o),
(229,-63,q),
(226,-76,l),
(226,-82,l),
(220,-97,l),
(208,-156,l),
(205,-175,ls),
(152,-513,o),
(500,-668,q),
(513,-678,o),
(534,-683,q),
(547,-689,l),
(553,-690,o),
(562,-695,q),
(595,-704,l),
(601,-704,l),
(606,-708,l),
(956,-790,o),
(1328,-640,q),
(1309,-657,l),
(1305,-659,l),
(1303,-662,l),
(1297,-664,l),
(1293,-668,l),
(1291,-672,l),
(1286,-674,l),
(1279,-681,o),
(1267,-689,q),
(1265,-693,l),
(1257,-697,l),
(1244,-706,l),
(1238,-712,l),
(1225,-719,l),
(1208,-733,l),
(1195,-738,o),
(1181,-750,q),
(1168,-755,o),
(1149,-767,qs),
(1137,-775,l),
(1128,-777,o),
(1116,-784,q),
(1111,-786,l),
(1107,-790,l),
(1097,-794,l),
(1092,-798,l),
(1083,-799,o),
(1074,-805,q),
(1034,-820,l),
(1019,-824,o),
(998,-834,q),
(995,-834,o),
(993,-836,q),
(975,-839,l),
(972,-841,l),
(964,-843,o),
(953,-847,q),
(946,-848,o),
(939,-851,q),
(932,-853,l),
(924,-853,l),
(863,-866,l),
(857,-866,l),
(852,-868,l),
(839,-867,o),
(823,-872,q),
(808,-872,l),
(804,-874,l),
(797,-874,l),
(778,-876,l),
(760,-876,l),
(755,-877,l),
(635,-877,l),
(623,-874,o),
(604,-874,q),
(599,-872,o),
(589,-872,q),
(583,-870,l),
(578,-870,l),
(572,-868,l),
(528,-860,l),
(521,-857,l),
(492,-851,l),
(444,-834,l),
(441,-832,o),
(437,-832,q),
(389,-809,l),
(372,-799,l),
(364,-798,l),
(359,-792,l),
(351,-790,l),
(341,-780,o),
(325,-773,q),
(318,-766,o),
(307,-759,q),
(302,-754,l),
(296,-752,l),
(292,-746,l),
(285,-740,l),
(277,-737,l),
(276,-735,o),
(273,-733,q),
(269,-727,l),
(264,-725,l),
(254,-712,o),
(235,-697,q),
(234,-695,o),
(231,-693,q),
(231,-691,o),
(229,-689,q),
(226,-683,l),
(212,-668,l),
(208,-662,l),
(203,-659,l),
(201,-654,o),
(197,-651,q),
(191,-637,o),
(176,-620,q),
(159,-586,l),
(151,-573,ls),
(146,-564,o),
(144,-554,q),
(138,-546,l),
(135,-532,o),
(127,-514,q),
(123,-502,l),
(123,-500,o),
(121,-499,q),
(119,-485,l),
(115,-480,l),
(115,-472,l),
(108,-456,o),
(106,-430,q),
(104,-426,l),
(104,-421,o),
(102,-417,q),
(100,-390,ls),
(99,-380,o),
(96,-369,q),
(80,12,o),
(349,335,q),
(362,345,o),
(376,362,q),
(391,375,l),
(396,382,o),
(406,390,q),
(410,396,l),
(418,400,o),
(427,409,q),
(431,415,l),
(434,416,o),
(437,419,q),
(445,424,o),
(454,432,q),
(465,439,o),
(481,455,q),
(491,459,o),
(498,466,q),
(507,470,o),
(517,480,q),
(522,482,l),
(545,497,l),
(551,502,l),
(559,505,o),
(568,512,qs),
(576,518,l),
(590,523,o),
(606,535,q),
(618,539,l),
(625,544,l),
(613,543,o),
(595,548,q),
(589,548,o),
(580,550,q),
(572,550,l),
(562,554,l),
(551,555,o),
(536,560,q),
(526,560,l),
(496,567,l),
(481,569,l),
(475,571,l),
(469,571,l),
(460,574,o),
(446,575,q),
(271,615,o),
(130,485,q)
);
},
{
closed = 1;
nodes = (
(757,-55,o),
(804,-108,o),
(860,-154,q),
(862,-157,l),
(857,-160,o),
(752,-267,q),
(692,-230,o),
(640,-156,q),
(733,-64,o),
(743,-52,q)
);
}
);
width = 1119;
}
);
unicode = 1580;
},
{
glyphname = uni062D;
layers = (
{
anchors = (
{
name = t.uni064B;
position = "{500, 961}";
},
{
name = b.uni064D_1;
position = "{533, -1085}";
}
);
layerId = "07A927BF-F932-4906-9D1A-F4B6A9E74CB4";
shapes = (
{
closed = 1;
nodes = (
(153,706,o),
(366,742,q),
(427,742,l),
(435,740,l),
(443,740,o),
(450,738,q),
(465,738,l),
(473,737,l),
(479,737,o),
(488,735,q),
(500,735,l),
(530,729,l),
(538,729,l),
(553,725,l),
(559,725,l),
(566,723,l),
(572,723,l),
(589,719,l),
(597,719,l),
(604,718,l),
(616,717,o),
(635,712,q),
(644,712,l),
(675,706,l),
(682,706,l),
(698,702,l),
(703,702,l),
(734,699,l),
(739,699,l),
(745,697,l),
(758,697,l),
(764,695,l),
(779,695,l),
(785,693,l),
(793,693,l),
(806,691,l),
(878,687,l),
(905,687,l),
(915,688,o),
(926,685,q),
(983,685,l),
(999,684,o),
(1021,687,q),
(1067,687,l),
(1109,689,l),
(1145,689,l),
(1145,689,l),
(1143,687,l),
(1143,687,l),
(1133,673,o),
(1122,647,q),
(1120,646,o),
(1118,643,qs),
(1114,638,l),
(1113,632,l),
(1084,584,l),
(1076,567,l),
(1069,560,o),
(1065,548,q),
(1059,541,l),
(1050,522,l),
(546,492,o),
(267,17,q),
(267,11,l),
(261,2,o),
(256,-11,qs),
(252,-21,l),
(251,-27,o),
(246,-36,q),
(243,-48,ls),
(242,-54,o),
(237,-63,q),
(233,-76,l),
(233,-82,l),
(227,-97,l),
(212,-175,l),
(177,-515,o),
(507,-668,q),
(520,-678,o),
(542,-683,q),
(555,-689,l),
(561,-690,o),
(570,-695,q),
(602,-704,l),
(608,-704,l),
(614,-708,l),
(964,-790,o),
(1335,-640,q),
(1316,-657,l),
(1312,-659,l),
(1310,-662,l),
(1305,-664,l),
(1301,-668,l),
(1299,-672,l),
(1293,-674,l),
(1286,-681,o),
(1274,-689,q),
(1272,-693,l),
(1259,-702,l),
(1251,-706,l),
(1246,-712,l),
(1232,-719,l),
(1215,-733,l),
(1202,-738,o),
(1189,-750,q),
(1176,-755,o),
(1156,-767,q),
(1145,-775,l),
(1136,-777,o),
(1124,-784,q),
(1118,-786,l),
(1114,-790,l),
(1105,-794,l),
(1099,-798,l),
(1090,-799,o),
(1082,-805,q),
(1042,-820,l),
(1027,-824,o),
(1006,-834,q),
(1003,-834,o),
(1000,-836,q),
(983,-839,l),
(979,-841,l),
(971,-843,o),
(960,-847,q),
(953,-848,o),
(947,-851,q),
(939,-853,l),
(932,-853,l),
(871,-866,l),
(865,-866,l),
(859,-868,l),
(846,-867,o),
(831,-872,q),
(816,-872,l),
(812,-874,l),
(804,-874,l),
(785,-876,l),
(768,-876,l),
(762,-877,l),
(642,-877,l),
(630,-874,o),
(612,-874,q),
(607,-872,o),
(597,-872,q),
(591,-870,l),
(585,-870,l),
(580,-868,l),
(536,-860,l),
(519,-855,l),
(500,-851,l),
(452,-834,l),
(449,-832,o),
(444,-832,q),
(397,-809,l),
(380,-799,l),
(372,-798,l),
(366,-792,l),
(359,-790,l),
(349,-780,o),
(332,-773,q),
(325,-766,o),
(315,-759,q),
(309,-754,l),
(304,-752,l),
(300,-746,l),
(292,-740,l),
(285,-737,l),
(284,-735,o),
(281,-733,q),
(277,-727,l),
(271,-725,l),
(261,-712,o),
(243,-697,q),
(242,-695,o),
(239,-693,q),
(239,-691,o),
(237,-689,qs),
(216,-662,l),
(210,-659,l),
(208,-654,o),
(205,-651,q),
(199,-637,o),
(184,-620,q),
(167,-586,l),
(159,-573,ls),
(154,-564,o),
(151,-554,q),
(146,-546,l),
(143,-532,o),
(134,-514,q),
(130,-502,l),
(130,-500,o),
(128,-499,q),
(127,-485,l),
(123,-480,l),
(123,-472,l),
(116,-456,o),
(113,-430,q),
(111,-426,l),
(111,-421,o),
(109,-417,q),
(108,-390,l),
(107,-380,o),
(104,-369,q),
(88,12,o),
(357,335,q),
(370,345,o),
(384,362,q),
(399,375,l),
(404,382,o),
(414,390,q),
(418,396,l),
(426,400,o),
(435,409,q),
(439,415,l),
(442,416,o),
(444,419,q),
(452,424,o),
(462,432,q),
(473,439,o),
(488,455,q),
(498,459,o),
(505,466,q),
(514,470,o),
(524,480,q),
(530,482,l),
(545,493,l),
(553,497,l),
(559,502,l),
(567,505,o),
(576,512,qs),
(583,518,l),
(597,523,o),
(614,535,q),
(625,539,l),
(633,544,l),
(621,543,o),
(602,548,q),
(596,548,o),
(587,550,q),
(580,550,l),
(570,554,l),
(559,555,o),
(543,560,q),
(534,560,l),
(503,567,l),
(488,569,l),
(482,571,l),
(477,571,l),
(468,574,o),
(454,575,q),
(279,615,o),
(138,485,q)
);
}
);
width = 1122;
}
);
unicode = 1581;
},
{
glyphname = uni062E;
layers = (
{
anchors = (
{
name = t.uni064B;
position = "{514, 1561}";
},
{
name = b.uni064D_1;
position = "{490, -1028}";
}
);
layerId = "07A927BF-F932-4906-9D1A-F4B6A9E74CB4";
shapes = (
{
closed = 1;
nodes = (
(145,706,o),
(359,742,q),
(420,742,l),
(427,740,l),
(435,740,o),
(443,738,q),
(458,738,l),
(465,737,l),
(471,737,o),
(481,735,q),
(492,735,l),
(522,729,l),
(530,729,l),
(545,725,l),
(551,725,l),
(559,723,l),
(564,723,l),
(581,719,l),
(589,719,l),
(597,718,ls),
(609,717,o),
(627,712,q),
(637,712,l),
(667,706,l),
(675,706,l),
(690,702,l),
(696,702,l),
(726,699,l),
(732,699,l),
(738,697,l),
(751,697,l),
(757,695,l),
(772,695,l),
(778,693,l),
(785,693,l),
(798,691,l),
(871,687,l),
(897,687,l),
(907,688,o),
(918,685,q),
(975,685,l),
(991,684,o),
(1014,687,q),
(1059,687,l),
(1101,689,l),
(1137,689,l),
(1137,689,l),
(1135,687,l),
(1135,687,l),
(1125,673,o),
(1114,647,q),
(1112,646,o),
(1111,643,q),
(1107,638,l),
(1105,632,l),
(1076,584,l),
(1069,567,l),
(1062,560,o),
(1057,548,q),
(1052,541,l),
(1042,522,l),
(538,492,o),
(260,17,q),
(260,11,l),
(254,2,o),
(248,-11,q),
(245,-21,l),
(244,-27,o),
(239,-36,q),
(235,-48,l),
(234,-54,o),
(229,-63,q),
(226,-76,l),
(226,-82,l),
(220,-97,l),
(208,-156,l),
(205,-175,ls),
(152,-513,o),
(500,-668,q),
(513,-678,o),
(534,-683,q),
(547,-689,l),
(553,-690,o),
(562,-695,q),
(595,-704,l),
(601,-704,l),
(606,-708,l),
(956,-790,o),
(1328,-640,q),
(1309,-657,l),
(1305,-659,l),
(1303,-662,l),
(1297,-664,l),
(1293,-668,l),
(1291,-672,l),
(1286,-674,l),
(1279,-681,o),
(1267,-689,q),
(1265,-693,l),
(1257,-697,l),
(1244,-706,l),
(1238,-712,l),
(1225,-719,l),
(1208,-733,l),
(1195,-738,o),
(1181,-750,q),
(1168,-755,o),
(1149,-767,qs),
(1137,-775,l),
(1128,-777,o),
(1116,-784,q),
(1111,-786,l),
(1107,-790,l),
(1097,-794,l),
(1092,-798,l),
(1083,-799,o),
(1074,-805,q),
(1034,-820,l),
(1019,-824,o),
(998,-834,q),
(995,-834,o),
(993,-836,q),
(975,-839,l),
(972,-841,l),
(964,-843,o),
(953,-847,q),
(946,-848,o),
(939,-851,q),
(932,-853,l),
(924,-853,l),
(863,-866,l),
(857,-866,l),
(852,-868,l),
(839,-867,o),
(823,-872,q),
(808,-872,l),
(804,-874,l),
(797,-874,l),
(778,-876,l),
(760,-876,l),
(755,-877,l),
(635,-877,l),
(623,-874,o),
(604,-874,q),
(599,-872,o),
(589,-872,q),
(583,-870,l),
(578,-870,l),
(572,-868,l),
(528,-860,l),
(521,-857,l),
(492,-851,l),
(444,-834,l),
(441,-832,o),
(437,-832,q),
(389,-809,l),
(372,-799,l),
(364,-798,l),
(359,-792,l),
(351,-790,l),
(341,-780,o),
(325,-773,q),
(318,-766,o),
(307,-759,q),
(302,-754,l),
(296,-752,l),
(292,-746,l),
(285,-740,l),
(277,-737,l),
(276,-735,o),
(273,-733,q),
(269,-727,l),
(264,-725,l),
(254,-712,o),
(235,-697,q),
(234,-695,o),
(231,-693,q),
(231,-691,o),
(229,-689,q),
(226,-683,l),
(212,-668,l),
(208,-662,l),
(203,-659,l),
(201,-654,o),
(197,-651,q),
(191,-637,o),
(176,-620,q),
(159,-586,l),
(151,-573,ls),
(146,-564,o),
(144,-554,q),
(138,-546,l),
(135,-532,o),
(127,-514,q),
(123,-502,l),
(123,-500,o),
(121,-499,q),
(119,-485,l),
(115,-480,l),
(115,-472,l),
(108,-456,o),
(106,-430,q),
(104,-426,l),
(104,-421,o),
(102,-417,q),
(100,-390,ls),
(99,-380,o),
(96,-369,q),
(80,12,o),
(349,335,q),
(362,345,o),
(376,362,q),
(391,375,l),
(396,382,o),
(406,390,q),
(410,396,l),
(418,400,o),
(427,409,q),
(431,415,l),
(434,416,o),
(437,419,q),
(445,424,o),
(454,432,q),
(465,439,o),
(481,455,q),
(491,459,o),
(498,466,q),
(507,470,o),
(517,480,q),
(522,482,l),
(545,497,l),
(551,502,l),
(559,505,o),
(568,512,qs),
(576,518,l),
(590,523,o),
(606,535,q),
(618,539,l),
(625,544,l),
(613,543,o),
(595,548,q),
(589,548,o),
(580,550,q),
(572,550,l),
(562,554,l),
(551,555,o),
(536,560,q),
(526,560,l),
(496,567,l),
(481,569,l),
(475,571,l),
(469,571,l),
(460,574,o),
(446,575,q),
(271,615,o),
(130,485,q)
);
},
{
closed = 1;
nodes = (
(656,1366,o),
(703,1313,o),
(759,1268,q),
(761,1265,l),
(756,1262,o),
(651,1154,q),
(591,1191,o),
(540,1266,q),
(632,1357,o),
(642,1369,q)
);
}
);
width = 1115;
}
);
unicode = 1582;
},
{
glyphname = uni062F;
layers = (
{
layerId = "07A927BF-F932-4906-9D1A-F4B6A9E74CB4";
shapes = (
{
closed = 1;
nodes = (
(331,699,l),
(335,699,l),
(368,674,o),
(474,544,q),
(585,378,o),
(585,298,qs),
(585,282,ls),
(585,180,o),
(502,95,q),
(342,4,o),
(156,4,qs),
(72,4,l),
(65,8,l),
(71,68,o),
(128,167,q),
(156,163,l),
(192,163,ls),
(325,163,o),
(494,238,q),
(494,246,l),
(461,354,o),
(307,517,q),
(267,549,o),
(267,552,q)
);
}
);
width = 653;
}
);
unicode = 1583;
},
{
glyphname = uni0630;
layers = (
{
layerId = "07A927BF-F932-4906-9D1A-F4B6A9E74CB4";
shapes = (
{
closed = 1;
nodes = (
(331,699,l),
(335,699,l),
(368,674,o),
(474,544,q),
(585,378,o),
(585,298,qs),
(585,282,ls),
(585,180,o),
(502,95,q),
(342,4,o),
(156,4,qs),
(72,4,l),
(65,8,l),
(71,68,o),
(128,167,q),
(156,163,l),
(192,163,ls),
(325,163,o),
(494,238,q),
(494,246,l),
(461,354,o),
(307,517,q),
(267,549,o),
(267,552,q)
);
},
{
closed = 1;
nodes = (
(266,1180,o),
(313,1126,o),
(369,1081,q),
(371,1078,l),
(366,1075,o),
(261,968,q),
(201,1005,o),
(149,1079,q),
(242,1171,o),
(252,1183,q)
);
}
);
width = 657;
}
);
unicode = 1584;
},
{
glyphname = uni0631;
layers = (
{
layerId = "07A927BF-F932-4906-9D1A-F4B6A9E74CB4";
shapes = (
{
closed = 1;
nodes = (
(364,573,l),
(417,494,l),
(460,392,l),
(475,321,l),
(475,196,l),
(456,99,l),
(417,-7,l),
(362,-96,l),
(300,-165,l),
(218,-227,l),
(140,-266,l),
(62,-288,l),
(10,-295,l),
(-83,-286,l),
(-183,-257,l),
(-212,-243,l),
(-221,-237,ls),
(-226,-234,o),
(-230,-231,q),
(-248,-221,l),
(-294,-180,l),
(-321,-148,l),
(-338,-122,l),
(-339,-119,o),
(-341,-115,q),
(-212,-151,l),
(-69,-167,l),
(32,-154,l),
(120,-126,l),
(159,-107,ls),
(164,-105,o),
(168,-102,qs),
(283,-28,l),
(342,29,l),
(409,120,l),
(418,141,l),
(421,167,l),
(420,194,l),
(412,230,l),
(386,291,l),
(342,363,l),
(335,370,l),
(311,404,ls),
(308,408,o),
(307,414,q)
);
}
);
width = 560;
}
);
unicode = 1585;
},
{
glyphname = uni0632;
layers = (
{
layerId = "07A927BF-F932-4906-9D1A-F4B6A9E74CB4";
shapes = (
{
closed = 1;
nodes = (
(285,1073,o),
(332,1020,o),
(388,975,q),
(390,972,l),
(385,969,o),
(280,861,q),
(220,898,o),
(168,973,q),
(261,1064,o),
(271,1076,q)
);
},
{
closed = 1;
nodes = (
(293,573,l),
(345,494,l),
(388,392,l),
(404,321,l),
(404,196,l),
(384,99,l),
(345,-7,l),
(290,-96,l),
(228,-165,l),
(147,-227,l),
(69,-266,l),
(-10,-288,l),
(-61,-295,l),
(-154,-286,l),
(-254,-257,l),
(-284,-243,l),
(-292,-237,ls),
(-297,-234,o),
(-302,-231,qs),
(-320,-221,l),
(-365,-180,l),
(-392,-148,l),
(-409,-122,l),
(-410,-119,o),
(-412,-115,q),
(-284,-151,l),
(-141,-167,l),
(-39,-154,l),
(49,-126,l),
(88,-107,ls),
(93,-105,o),
(97,-102,qs),
(211,-28,l),
(270,29,l),
(338,120,l),
(346,141,l),
(349,167,l),
(348,194,l),
(341,230,l),
(315,291,l),
(270,363,l),
(264,370,l),
(240,404,ls),
(237,408,o),
(236,414,q)
);
}
);
width = 473;
}
);
unicode = 1586;
},
{
glyphname = uni0633;
layers = (
{
layerId = "07A927BF-F932-4906-9D1A-F4B6A9E74CB4";
shapes = (
{
closed = 1;
nodes = (
(1628,389,o),
(1644,288,q),
(1647,250,o),
(1647,216,qs),
(1647,83,o),
(1555,28,q),
(1555,15,o),
(1483,-1,q),
(1459,-1,ls),
(1378,-1,o),
(1274,100,q),
(1191,-57,o),
(1098,-57,qs),
(1078,-57,l),
(1050,-53,l),
(1031,-183,o),
(978,-253,q),
(760,-494,o),
(505,-494,qs),
(449,-494,ls),
(316,-494,o),
(181,-405,q),
(56,-302,o),
(56,-117,qs),
(56,-77,ls),
(56,114,o),
(148,284,q),
(181,316,l),
(188,316,l),
(196,315,o),
(196,308,qs),
(196,304,ls),
(196,274,o),
(140,131,q),
(128,40,o),
(128,23,qs),
(128,-205,o),
(361,-302,qs),
(436,-333,o),
(536,-333,qs),
(777,-333,o),
(958,-149,q),
(958,-45,o),
(857,196,q),
(934,322,o),
(942,340,q),
(954,340,l),
(954,336,ls),
(954,224,o),
(1062,131,q),
(1106,115,o),
(1138,115,qs),
(1247,115,o),
(1323,304,q),
(1327,304,l),
(1395,167,o),
(1519,167,q),
(1555,171,l),
(1523,276,o),
(1523,288,q),
(1574,390,o),
(1604,428,q)
);
}
);
width = 1702;
}
);
unicode = 1587;
},
{
glyphname = uni0634;
layers = (
{
layerId = "07A927BF-F932-4906-9D1A-F4B6A9E74CB4";
shapes = (
{
closed = 1;
nodes = (
(1476,377,l),
(1484,377,l),
(1476,377,l),
(1484,377,l),
(1486,355,o),
(1499,331,q),
(1506,301,l),
(1506,289,l),
(1510,282,l),
(1514,266,l),
(1514,251,l),
(1518,236,l),
(1518,179,l),
(1514,114,l),
(1503,98,o),
(1495,72,q),
(1483,62,o),
(1476,46,q),
(1333,-83,o),
(1179,80,q),
(1123,-65,o),
(966,-65,q),
(954,-263,o),
(781,-388,qs),
(567,-543,o),
(296,-445,qs),
(268,-435,o),
(227,-411,qs),
(220,-407,l),
(211,-398,o),
(197,-392,q),
(-44,-125,o),
(227,225,q),
(243,220,o),
(239,198,q),
(101,-33,o),
(246,-217,q),
(382,-360,o),
(598,-328,qs),
(757,-305,o),
(894,-194,q),
(892,-169,o),
(882,-133,q),
(877,-84,o),
(852,-19,q),
(853,-15,o),
(848,-11,q),
(847,5,o),
(837,19,q),
(821,65,l),
(817,72,l),
(810,80,l),
(809,95,o),
(798,110,q),
(852,232,l),
(856,244,l),
(863,251,l),
(878,282,l),
(902,141,o),
(1031,95,q),
(1176,95,o),
(1225,263,q),
(1284,132,o),
(1434,145,q),
(1432,176,o),
(1415,217,qs),
(1404,244,l),
(1446,324,l),
(1453,335,l),
(1457,346,l),
(1461,347,o),
(1465,354,qs),
(1472,365,l)
);
},
{
closed = 1;
nodes = (
(1288,877,o),
(1335,825,o),
(1391,778,q),
(1283,665,l),
(1223,702,o),
(1172,777,q),
(1264,868,o),
(1274,880,q)
);
},
{
closed = 1;
nodes = (
(1067,877,o),
(1113,824,o),
(1170,778,q),
(1172,776,l),
(1061,665,l),
(1001,702,o),
(950,777,q),
(1043,868,o),
(1053,880,q)
);
},
{
closed = 1;
nodes = (
(1185,1104,o),
(1231,1051,o),
(1288,1005,q),
(1290,1002,l),
(1285,999,o),
(1179,892,q),
(1119,929,o),
(1068,1003,q),
(1161,1095,o),
(1171,1107,q)
);
}
);
width = 1562;
}
);
unicode = 1588;
},
{
glyphname = uni0635;
layers = (
{
layerId = "07A927BF-F932-4906-9D1A-F4B6A9E74CB4";
shapes = (
{
closed = 1;
nodes = (
(1936,592,o),
(1936,406,qs),
(1936,321,o),
(1876,219,q),
(1857,168,o),
(1743,110,qs),
(1523,-2,o),
(1315,-2,qs),
(1283,-2,ls),
(1177,-2,o),
(1094,30,q),
(1094,18,ls),
(1094,-226,o),
(918,-346,q),
(741,-486,o),
(515,-486,qs),
(228,-486,o),
(128,-262,q),
(101,-184,o),
(101,-114,qs),
(101,-86,ls),
(101,78,o),
(181,266,q),
(208,311,o),
(229,326,q),
(235,326,o),
(241,315,q),
(241,306,ls),
(241,284,o),
(193,154,qs),
(177,109,o),
(177,38,qs),
(177,-13,l),
(188,-106,o),
(257,-198,q),
(333,-258,l),
(448,-326,o),
(585,-326,qs),
(816,-326,o),
(1002,-142,q),
(1006,-134,l),
(1006,-29,o),
(902,234,q),
(894,266,o),
(895,274,q),
(960,387,o),
(978,406,q),
(984,406,o),
(1006,335,q),
(1072,223,o),
(1198,174,q),
(1214,174,l),
(1290,302,o),
(1495,507,qs),
(1624,635,o),
(1743,631,q)
);
},
{
closed = 1;
nodes = (
(1301,158,o),
(1350,154,q),
(1562,154,o),
(1820,263,q),
(1820,274,ls),
(1820,404,o),
(1731,455,q),
(1695,463,o),
(1680,463,qs),
(1671,463,ls),
(1508,463,o),
(1299,158,q)
);
}
);
width = 1996;
}
);
unicode = 1589;
},
{
glyphname = uni0636;
layers = (
{
layerId = "07A927BF-F932-4906-9D1A-F4B6A9E74CB4";
shapes = (
{
closed = 1;
nodes = (
(1936,592,o),
(1936,406,qs),
(1936,321,o),
(1876,219,q),
(1857,168,o),
(1743,110,qs),
(1523,-2,o),
(1315,-2,qs),
(1283,-2,ls),
(1177,-2,o),
(1094,30,q),
(1094,18,ls),
(1094,-226,o),
(918,-346,q),
(741,-486,o),
(515,-486,qs),
(228,-486,o),
(128,-262,q),
(101,-184,o),
(101,-114,qs),
(101,-86,ls),
(101,78,o),
(181,266,q),
(208,311,o),
(229,326,q),
(235,326,o),
(241,315,q),
(241,306,ls),
(241,284,o),
(193,154,qs),
(177,109,o),
(177,38,qs),
(177,-13,l),
(188,-106,o),
(257,-198,q),
(333,-258,l),
(448,-326,o),
(585,-326,qs),
(816,-326,o),
(1002,-142,q),
(1006,-134,l),
(1006,-29,o),
(902,234,q),
(894,266,o),
(895,274,q),
(960,387,o),
(978,406,q),
(984,406,o),
(1006,335,q),
(1072,223,o),
(1198,174,q),
(1214,174,l),
(1290,302,o),
(1495,507,qs),
(1624,635,o),
(1743,631,q)
);
},
{
closed = 1;
nodes = (
(1301,158,o),
(1350,154,q),
(1562,154,o),
(1820,263,q),
(1820,274,ls),
(1820,404,o),
(1731,455,q),
(1695,463,o),
(1680,463,qs),
(1671,463,ls),
(1508,463,o),
(1299,158,q)
);
},
{
closed = 1;
nodes = (
(1268,1057,o),
(1315,1003,o),
(1371,958,q),
(1373,955,l),
(1368,952,o),
(1263,845,q),
(1203,882,o),
(1151,956,q),
(1244,1048,o),
(1254,1060,q)
);
}
);
width = 1989;
}
);
unicode = 1590;
},
{
glyphname = uni0637;
layers = (
{
layerId = "07A927BF-F932-4906-9D1A-F4B6A9E74CB4";
shapes = (
{
closed = 1;
nodes = (
(502,1470,l),
(539,1277,o),
(539,1226,q),
(518,1201,l),
(566,541,o),
(566,506,qs),
(566,415,o),
(518,305,q),
(522,305,l),
(754,611,o),
(928,611,qs),
(944,611,ls),
(1069,611,o),
(1145,486,q),
(1165,445,o),
(1165,410,qs),
(1165,378,ls),
(1165,262,o),
(1049,165,q),
(961,103,o),
(827,65,qs),
(596,0,o),
(405,0,qs),
(333,0,ls),
(158,0,o),
(65,60,q),
(0,80,o),
(0,89,qs),
(0,92,l),
(405,118,o),
(405,168,q),
(478,242,o),
(478,362,q),
(405,1310,o),
(405,1354,q),
(490,1460,o),
(490,1470,q)
);
},
{
closed = 1;
nodes = (
(750,177,o),
(935,233,q),
(967,249,o),
(1053,273,q),
(1013,454,o),
(872,454,qs),
(863,454,ls),
(757,454,o),
(675,374,qs),
(571,272,o),
(470,137,q)
);
}
);
width = 1235;
}
);
unicode = 1591;
},
{
glyphname = uni0638;
layers = (
{
layerId = "07A927BF-F932-4906-9D1A-F4B6A9E74CB4";
shapes = (
{
closed = 1;
nodes = (
(793,1074,o),
(700,982,q),
(751,908,o),
(812,871,q),
(918,979,o),
(922,981,q),
(920,984,l),
(864,1030,o),
(817,1083,o),
(803,1086,q)
);
},
{
closed = 1;
nodes = (
(502,1470,l),
(539,1277,o),
(539,1226,q),
(518,1201,l),
(566,541,o),
(566,506,qs),
(566,415,o),
(518,305,q),
(522,305,l),
(754,611,o),
(928,611,qs),
(944,611,ls),
(1069,611,o),
(1145,486,q),
(1165,445,o),
(1165,410,qs),
(1165,378,ls),
(1165,262,o),
(1049,165,q),
(961,103,o),
(827,65,qs),
(596,0,o),
(405,0,qs),
(333,0,ls),
(158,0,o),
(65,60,q),
(0,80,o),
(0,89,qs),
(0,92,l),
(405,118,o),
(405,168,q),
(478,242,o),
(478,362,q),
(405,1310,o),
(405,1354,q),
(490,1460,o),
(490,1470,q)
);
},
{
closed = 1;
nodes = (
(750,177,o),
(935,233,q),
(967,249,o),
(1053,273,q),
(1013,454,o),
(872,454,qs),
(863,454,ls),
(757,454,o),
(675,374,qs),
(571,272,o),
(470,137,q)
);
}
);
width = 1248;
}
);
unicode = 1592;
},
{
glyphname = uni0639;
layers = (
{
layerId = "07A927BF-F932-4906-9D1A-F4B6A9E74CB4";
shapes = (
{
closed = 1;
nodes = (
(692,1119,o),
(795,1014,q),
(795,1004,o),
(785,1004,qs),
(765,1004,l),
(680,1014,o),
(670,1014,qs),
(645,1014,ls),
(480,1014,o),
(309,904,q),
(340,781,o),
(460,694,q),
(574,624,o),
(600,623,q),
(917,769,o),
(980,769,q),
(925,631,o),
(910,608,q),
(849,615,o),
(504,413,qs),
(241,259,o),
(159,8,q),
(144,-85,o),
(144,-148,qs),
(144,-426,o),
(420,-542,q),
(542,-582,o),
(703,-582,qs),
(978,-582,o),
(1281,-467,q),
(1286,-478,l),
(1204,-565,o),
(1015,-668,q),
(798,-768,o),
(610,-768,qs),
(600,-768,ls),
(211,-768,o),
(69,-413,q),
(39,-331,o),
(39,-177,qs),
(39,204,o),
(409,508,q),
(229,628,o),
(229,794,qs),
(229,798,ls),
(229,1003,o),
(424,1099,q),
(493,1119,o),
(520,1119,qs)
);
}
);
width = 1024;
}
);
unicode = 1593;
},
{
glyphname = uni063A;
layers = (
{
layerId = "07A927BF-F932-4906-9D1A-F4B6A9E74CB4";
shapes = (
{
closed = 1;
nodes = (
(552,1631,l),
(654,1533,l),
(651,1530,o),
(559,1436,q),
(558,1436,o),
(557,1434,q),
(556,1434,o),
(554,1432,q),
(454,1533,l)
);
},
{
closed = 1;
nodes = (
(692,1119,o),
(795,1014,q),
(795,1004,o),
(785,1004,qs),
(765,1004,l),
(680,1014,o),
(670,1014,qs),
(645,1014,ls),
(480,1014,o),
(309,904,q),
(340,781,o),
(460,694,q),
(574,624,o),
(600,623,q),
(917,769,o),
(980,769,q),
(925,631,o),
(910,608,q),
(849,615,o),
(504,413,qs),
(241,259,o),
(159,8,q),
(144,-85,o),
(144,-148,qs),
(144,-426,o),
(420,-542,q),
(542,-582,o),
(703,-582,qs),
(978,-582,o),
(1281,-467,q),
(1286,-478,l),
(1204,-565,o),
(1015,-668,q),
(798,-768,o),
(610,-768,qs),
(600,-768,ls),
(211,-768,o),
(69,-413,q),
(39,-331,o),
(39,-177,qs),
(39,204,o),
(409,508,q),
(229,628,o),
(229,794,qs),
(229,798,ls),
(229,1003,o),
(424,1099,q),
(493,1119,o),
(520,1119,qs)
);
}
);
width = 1032;
}
);
unicode = 1594;
},
{
glyphname = uni0640;
layers = (
{
layerId = "07A927BF-F932-4906-9D1A-F4B6A9E74CB4";
shapes = (
{
closed = 1;
nodes = (
(-1,7,l),
(-30,26,o),
(-64,107,o),
(-66,162,q),
(49,162,l),
(23,162,l),
(200,162,l),
(200,7,l),
(49,7,l),
(44,7,l)
);
}
);
width = 197;
}
);
unicode = 1600;
},
{
glyphname = uni0641;
layers = (
{
layerId = "07A927BF-F932-4906-9D1A-F4B6A9E74CB4";
shapes = (
{
closed = 1;
nodes = (
(1026,1369,o),
(1073,1316,o),
(1129,1270,q),
(1131,1268,l),
(1126,1265,o),
(1020,1157,q),
(960,1194,o),
(909,1269,q),
(1002,1360,o),
(1012,1372,q)
);
},
{
closed = 1;
nodes = (
(1093,859,ls),
(1196,859,o),
(1317,624,qs),
(1352,555,o),
(1352,460,qs),
(1352,435,l),
(1325,175,o),
(1208,140,q),
(924,0,o),
(613,0,qs),
(568,0,ls),
(194,0,o),
(74,191,qs),
(38,246,o),
(38,300,qs),
(38,355,ls),
(38,483,o),
(153,630,q),
(163,628,o),
(163,620,q),
(123,511,o),
(123,439,qs),
(123,248,o),
(393,190,q),
(493,175,o),
(582,175,qs),
(633,175,ls),
(824,175,o),
(1122,245,q),
(1264,289,o),
(1268,300,q),
(1268,335,ls),
(1268,459,o),
(1202,564,q),
(1088,520,o),
(1028,520,qs),
(948,520,o),
(937,615,q),
(981,859,o),
(1073,859,qs)
);
}
);
width = 1393;
}
);
unicode = 1601;
},
{
glyphname = uni0642;
layers = (
{
layerId = "07A927BF-F932-4906-9D1A-F4B6A9E74CB4";
shapes = (
{
closed = 1;
nodes = (
(836,1014,o),
(883,962,o),
(939,916,q),
(831,802,l),
(771,839,o),
(719,914,q),
(812,1005,o),
(822,1017,q)
);
},
{
closed = 1;
nodes = (
(615,1014,o),
(661,961,o),
(718,916,q),
(719,913,l),
(609,802,l),
(549,839,o),
(498,914,q),
(591,1005,o),
(601,1017,q)
);
},
{
closed = 1;
nodes = (
(755,533,ls),
(835,533,o),
(926,329,q),
(958,242,o),
(958,166,qs),
(958,-157,o),
(662,-270,qs),
(540,-317,o),
(391,-317,qs),
(165,-317,o),
(56,-106,q),
(32,-12,o),
(32,66,qs),
(32,235,o),
(140,413,q),
(172,445,o),
(188,445,q),
(196,429,l),
(196,413,o),
(132,298,q),
(104,236,o),
(104,158,qs),
(104,142,ls),
(104,-64,o),
(336,-153,q),
(387,-169,o),
(443,-169,qs),
(483,-169,ls),
(630,-169,o),
(798,-57,q),
(892,2,o),
(891,14,q),
(891,135,o),
(838,222,q),
(744,189,o),
(703,189,q),
(615,199,o),
(615,266,qs),
(615,286,ls),
(615,442,o),
(743,533,q)
);
}
);
width = 997;
}
);
unicode = 1602;
},
{
glyphname = uni0643;
layers = (
{
layerId = "07A927BF-F932-4906-9D1A-F4B6A9E74CB4";
shapes = (
{
closed = 1;
nodes = (
(1211,1520,l),
(1242,1081,o),
(1291,522,q),
(1291,489,ls),
(1291,268,o),
(1131,148,q),
(867,0,o),
(457,0,qs),
(143,0,o),
(80,148,q),
(36,207,o),
(36,321,qs),
(36,329,ls),
(36,500,o),
(125,641,q),
(128,641,l),
(132,634,l),
(132,625,l),
(96,491,o),
(96,457,qs),
(96,272,o),
(325,196,q),
(432,172,o),
(529,172,qs),
(565,172,ls),
(823,172,o),
(1123,317,q),
(1183,360,o),
(1183,378,qs),
(1183,383,o),
(1187,405,q),
(1127,992,o),
(1103,1375,q),
(1203,1512,o),
(1203,1520,q)
);
},
{
closed = 1;
nodes = (
(762,1094,l),
(766,1094,l),
(774,1093,o),
(774,1087,qs),
(774,1063,l),
(766,946,o),
(722,946,q),
(673,931,o),
(650,918,q),
(651,909,o),
(726,875,q),
(754,839,o),
(754,792,qs),
(754,690,o),
(630,638,q),
(576,626,o),
(549,625,q),
(549,634,l),
(654,675,o),
(654,718,q),
(637,733,o),
(574,758,q),
(558,783,o),
(558,802,qs),
(558,810,l),
(607,992,o),
(722,1071,q)
);
}
);
width = 1328;
}
);
unicode = 1603;
},
{
glyphname = uni0644;
layers = (
{
layerId = "07A927BF-F932-4906-9D1A-F4B6A9E74CB4";
shapes = (
{
closed = 1;
nodes = (
(808,1447,l),
(812,1447,l),
(884,466,o),
(912,219,q),
(912,171,ls),
(912,-95,o),
(665,-240,qs),
(530,-317,o),
(400,-317,qs),
(396,-317,ls),
(161,-317,o),
(60,-73,q),
(44,12,o),
(44,43,qs),
(44,195,o),
(148,351,q),
(156,351,l),
(164,349,o),
(164,343,q),
(120,211,l),
(120,174,o),
(116,155,q),
(116,-20,o),
(327,-121,q),
(409,-145,o),
(447,-145,qs),
(500,-145,ls),
(656,-145,o),
(816,-1,q),
(736,886,o),
(703,1307,q),
(709,1307,o),
(792,1430,q)
);
}
);
width = 950;
}
);
unicode = 1604;
},
{
glyphname = uni0645;
layers = (
{
layerId = "07A927BF-F932-4906-9D1A-F4B6A9E74CB4";
shapes = (
{
closed = 1;
nodes = (
(462,494,o),
(532,368,q),
(537,344,l),
(525,277,o),
(462,183,q),
(348,208,o),
(246,208,qs),
(131,208,o),
(130,188,q),
(196,-764,l),
(196,-774,ls),
(196,-935,o),
(116,-1010,q),
(106,-1010,l),
(106,-1005,ls),
(106,-940,o),
(30,3,q),
(30,78,ls),
(30,268,o),
(211,344,q),
(238,434,o),
(326,494,q)
);
}
);
width = 586;
}
);
unicode = 1605;
},
{
glyphname = uni0646;
layers = (
{
layerId = "07A927BF-F932-4906-9D1A-F4B6A9E74CB4";
shapes = (
{
closed = 1;
nodes = (
(521,1020,o),
(568,967,o),
(624,921,q),
(626,918,l),
(621,915,o),
(516,808,q),
(456,845,o),
(404,919,q),
(497,1011,o),
(507,1023,q)
);
},
{
closed = 1;
nodes = (
(966,542,l),
(1056,358,o),
(1056,233,qs),
(1056,143,ls),
(1056,9,o),
(951,-133,q),
(749,-343,o),
(487,-343,qs),
(481,-343,ls),
(272,-343,o),
(148,-220,qs),
(34,-105,o),
(34,75,qs),
(34,110,ls),
(34,317,o),
(150,467,q),
(163,477,l),
(169,477,ls),
(179,477,o),
(179,464,qs),
(179,439,o),
(130,317,q),
(111,248,o),
(111,183,qs),
(111,-60,o),
(371,-148,qs),
(448,-174,o),
(506,-172,q),
(548,-172,ls),
(775,-172,o),
(960,8,q),
(966,22,o),
(966,59,qs),
(966,82,ls),
(966,246,o),
(876,406,q),
(945,526,o),
(960,542,q)
);
}
);
width = 1101;
}
);
unicode = 1606;
},
{
glyphname = uni0647;
layers = (
{
layerId = "07A927BF-F932-4906-9D1A-F4B6A9E74CB4";
shapes = (
{
closed = 1;
nodes = (
(293,722,l),
(317,722,l),
(419,645,o),
(486,550,qs),
(535,481,o),
(572,352,q),
(572,326,o),
(572,298,o),
(561,230,q),
(514,96,o),
(403,40,qs),
(359,17,o),
(306,7,q),
(254,7,ls),
(128,7,o),
(83,126,q),
(73,159,o),
(72,175,q),
(72,225,l),
(82,347,o),
(221,561,q),
(221,647,o),
(288,719,q)
);
},
{
closed = 1;
nodes = (
(188,387,o),
(174,281,q),
(174,275,ls),
(174,206,o),
(256,173,q),
(284,165,o),
(311,165,qs),
(391,165,o),
(477,234,q),
(459,328,o),
(382,419,qs),
(310,504,o),
(289,503,q)
);
}
);
width = 632;
}
);
unicode = 1607;
},
{
glyphname = uni0648;
layers = (
{
anchors = (
{
name = t.uni064B;
position = "{257, 780}";
},
{
name = b.uni064D_1;
position = "{43, -642}";
}
);
layerId = "07A927BF-F932-4906-9D1A-F4B6A9E74CB4";
shapes = (
{
closed = 1;
nodes = (
(375,530,l),
(408,533,o),
(439,512,q),
(443,507,o),
(449,502,q),
(451,498,o),
(456,496,q),
(461,491,l),
(464,485,ls),
(466,480,o),
(471,477,q),
(473,470,o),
(480,463,q),
(491,443,l),
(493,438,o),
(497,433,q),
(498,429,o),
(501,425,q),
(503,418,l),
(505,413,o),
(509,407,q),
(512,397,o),
(520,380,q),
(520,379,o),
(521,377,qs),
(522,371,o),
(524,365,qs),
(531,338,l),
(531,337,o),
(532,335,qs),
(533,331,l),
(533,323,o),
(536,315,q),
(536,309,l),
(538,301,l),
(538,297,l),
(539,293,l),
(538,288,o),
(540,282,q),
(540,221,l),
(538,206,l),
(538,202,o),
(537,198,q),
(537,189,l),
(535,182,o),
(534,172,q),
(533,170,l),
(533,167,l),
(532,165,l),
(532,161,l),
(529,150,l),
(529,147,l),
(523,125,ls),
(522,120,o),
(521,114,q),
(519,107,l),
(519,104,l),
(516,97,o),
(513,87,qs),
(507,69,l),
(504,63,o),
(503,57,q),
(489,21,l),
(460,-42,ls),
(458,-45,o),
(456,-49,q),
(455,-52,l),
(453,-55,o),
(451,-60,q),
(447,-64,o),
(445,-70,q),
(442,-73,o),
(441,-77,q),
(437,-84,l),
(431,-91,o),
(425,-100,qs),
(421,-106,o),
(417,-110,q),
(416,-113,l),
(413,-115,l),
(409,-122,l),
(406,-124,l),
(324,-235,o),
(183,-288,q),
(177,-289,o),
(169,-292,q),
(163,-293,o),
(156,-296,q),
(153,-296,l),
(138,-300,l),
(136,-300,o),
(135,-301,q),
(130,-301,l),
(106,-305,l),
(88,-306,l),
(86,-307,l),
(55,-307,ls),
(-126,-307,o),
(-272,-168,q),
(-276,-162,o),
(-277,-156,q),
(-265,-156,o),
(-250,-162,q),
(-233,-166,l),
(-217,-168,l),
(-210,-168,l),
(-203,-170,l),
(-167,-174,l),
(-165,-175,l),
(-161,-175,l),
(-155,-176,l),
(-151,-175,o),
(-147,-177,q),
(-137,-177,l),
(-135,-178,l),
(-128,-178,o),
(-119,-179,q),
(-108,-179,l),
(-104,-180,l),
(-84,-180,ls),
(235,-180,o),
(449,56,q),
(453,73,l),
(457,97,l),
(459,125,l),
(459,155,l),
(458,161,l),
(458,167,o),
(457,174,q),
(440,172,l),
(438,171,l),
(435,171,ls),
(433,171,o),
(432,170,q),
(425,170,l),
(409,168,l),
(402,168,o),
(393,167,q),
(386,168,o),
(377,166,q),
(347,166,l),
(343,165,o),
(339,167,q),
(325,167,l),
(305,170,l),
(302,170,l),
(298,171,l),
(295,171,l),
(287,173,o),
(274,179,q),
(269,180,l),
(264,183,l),
(261,186,o),
(255,187,q),
(251,191,o),
(244,197,q),
(235,206,l),
(233,212,o),
(227,217,q),
(217,241,o),
(217,270,qs),
(217,278,o),
(218,286,qs),
(220,303,l),
(221,305,l),
(221,309,o),
(223,314,q),
(223,318,l),
(225,323,o),
(226,329,qs),
(230,346,l),
(249,399,l),
(251,402,o),
(252,406,q),
(257,412,o),
(263,423,qs),
(268,433,l),
(271,436,o),
(275,443,q),
(283,453,l),
(284,456,o),
(287,460,q),
(288,463,l),
(291,465,l),
(293,469,l),
(299,474,o),
(306,483,q),
(308,487,l),
(313,490,o),
(318,497,q),
(326,503,l),
(327,505,l),
(333,509,l),
(334,511,l),
(339,513,o),
(345,518,q),
(349,520,o),
(353,522,qs),
(364,527,l),
(367,527,l)
);
}
);
width = 583;
}
);
unicode = 1608;
},
{
glyphname = uni0649;
layers = (
{
layerId = "07A927BF-F932-4906-9D1A-F4B6A9E74CB4";
shapes = (
{
closed = 1;
nodes = (
(1339,833,l),
(1408,819,o),
(1408,773,qs),
(1408,764,ls),
(1408,669,o),
(1348,604,q),
(1337,604,o),
(1331,644,q),
(1314,664,o),
(1288,664,qs),
(1243,664,l),
(1059,632,o),
(837,467,q),
(807,436,o),
(794,436,q),
(832,395,o),
(948,370,qs),
(1163,323,o),
(1163,210,qs),
(1163,199,ls),
(1163,104,o),
(1087,22,q),
(756,-203,o),
(513,-203,qs),
(473,-203,ls),
(191,-203,o),
(79,42,q),
(55,121,o),
(55,196,qs),
(55,360,o),
(167,536,q),
(187,548,l),
(203,539,o),
(204,528,q),
(128,374,o),
(128,283,qs),
(128,37,o),
(452,-18,qs),
(478,-22,o),
(521,-22,qs),
(541,-22,ls),
(765,-22,o),
(1058,130,q),
(1058,138,l),
(986,180,o),
(810,226,q),
(709,274,o),
(709,359,qs),
(709,379,ls),
(709,508,o),
(955,692,q),
(1170,833,o),
(1323,833,qs)
);
}
);
width = 1436;
}
);
unicode = 1609;
},
{
glyphname = uni064A;
layers = (
{
layerId = "07A927BF-F932-4906-9D1A-F4B6A9E74CB4";
shapes = (
{
closed = 1;
nodes = (
(619,-423,o),
(666,-475,o),
(722,-522,q),
(614,-635,l),
(554,-598,o),
(502,-523,q),
(595,-432,o),
(605,-420,q)
);
},
{
closed = 1;
nodes = (
(398,-423,o),
(444,-476,o),
(501,-522,q),
(502,-524,l),
(392,-635,l),
(332,-598,o),
(281,-523,q),
(374,-432,o),
(384,-420,q)
);
},
{
closed = 1;
nodes = (
(1339,833,l),
(1408,819,o),
(1408,773,qs),
(1408,764,ls),
(1408,669,o),
(1348,604,q),
(1337,604,o),
(1331,644,q),
(1314,664,o),
(1288,664,qs),
(1243,664,l),
(1059,632,o),
(837,467,q),
(807,436,o),
(794,436,q),
(832,395,o),
(948,370,qs),
(1163,323,o),
(1163,210,qs),
(1163,199,ls),
(1163,104,o),
(1087,22,q),
(756,-203,o),
(513,-203,qs),
(473,-203,ls),
(191,-203,o),
(79,42,q),
(55,121,o),
(55,196,qs),
(55,360,o),
(167,536,q),
(187,548,l),
(203,539,o),
(204,528,q),
(128,374,o),
(128,283,qs),
(128,37,o),
(452,-18,qs),
(478,-22,o),
(521,-22,qs),
(541,-22,ls),
(765,-22,o),
(1058,130,q),
(1058,138,l),
(986,180,o),
(810,226,q),
(709,274,o),
(709,359,qs),
(709,379,ls),
(709,508,o),
(955,692,q),
(1170,833,o),
(1323,833,qs)
);
}
);
width = 1436;
}
);
unicode = 1610;
},
{
glyphname = uni064B;
layers = (
{
layerId = "07A927BF-F932-4906-9D1A-F4B6A9E74CB4";
shapes = (
{
closed = 1;
nodes = (
(512,446,l),
(511,444,o),
(509,442,q),
(508,440,ls),
(507,437,o),
(505,433,qs),
(502,429,o),
(501,424,q),
(499,421,o),
(496,417,q),
(495,413,o),
(491,408,q),
(491,405,o),
(487,401,q),
(486,398,o),
(484,394,qs),
(481,390,o),
(480,385,q),
(471,369,ls),
(469,366,o),
(467,362,q),
(464,359,o),
(462,349,o),
(457,347,qs),
(454,345,o),
(449,343,qs),
(441,340,l),
(433,335,l),
(428,335,o),
(424,331,q),
(420,330,o),
(416,327,q),
(412,326,o),
(408,324,qs),
(404,323,o),
(399,321,q),
(391,316,l),
(388,315,o),
(383,313,q),
(380,310,o),
(375,308,qs),
(371,306,o),
(366,305,q),
(363,303,o),
(358,301,qs),
(355,300,o),
(350,297,q),
(342,294,l),
(334,289,l),
(330,288,o),
(325,286,qs),
(322,284,o),
(317,282,qs),
(314,280,o),
(309,279,q),
(306,277,o),
(301,274,q),
(297,273,o),
(292,270,q),
(268,260,l),
(265,258,o),
(260,255,qs),
(257,254,o),
(251,252,q),
(248,250,o),
(244,247,q),
(240,246,o),
(235,244,qs),
(226,241,l),
(223,239,o),
(219,236,q),
(210,233,l),
(203,228,l),
(198,227,o),
(194,225,qs),
(178,217,l),
(174,216,o),
(169,214,q),
(166,211,o),
(161,209,qs),
(157,208,o),
(153,206,qs),
(149,205,o),
(145,202,q),
(141,201,o),
(137,198,q),
(128,195,l),
(125,192,o),
(120,190,qs),
(116,188,o),
(111,187,q),
(108,184,o),
(103,183,qs),
(100,182,o),
(95,179,qs),
(79,171,l),
(75,170,o),
(70,168,q),
(67,165,o),
(62,164,qs),
(59,163,o),
(54,161,q),
(51,158,o),
(46,156,qs),
(43,155,o),
(38,152,q),
(36,153,l),
(37,155,o),
(38,158,qs),
(43,168,l),
(44,172,o),
(46,178,q),
(48,181,o),
(49,186,qs),
(50,190,o),
(53,195,q),
(56,204,l),
(60,211,l),
(61,215,o),
(64,220,q),
(65,224,o),
(69,232,o),
(70,235,qs),
(71,241,o),
(77,243,q),
(80,245,o),
(86,246,qs),
(89,247,o),
(93,250,qs),
(97,252,o),
(102,254,qs),
(105,256,o),
(110,258,qs),
(113,260,o),
(118,263,q),
(127,266,l),
(130,268,o),
(135,269,q),
(138,271,o),
(142,274,q),
(151,277,l),
(154,279,o),
(159,282,q),
(163,283,o),
(167,286,q),
(184,293,l),
(188,294,o),
(191,297,q),
(207,305,l),
(216,308,l),
(219,310,o),
(224,312,qs),
(228,313,o),
(232,316,q),
(241,320,l),
(244,322,o),
(252,326,o),
(257,327,q),
(266,331,l),
(269,333,o),
(277,337,o),
(281,340,q),
(285,341,o),
(290,343,q),
(292,345,o),
(298,347,qs),
(302,348,o),
(305,351,q),
(309,352,o),
(314,354,q),
(317,357,o),
(323,359,qs),
(327,360,o),
(330,363,q),
(334,364,o),
(339,366,q),
(346,370,l),
(350,371,o),
(355,374,qs),
(358,376,o),
(364,378,q),
(371,382,ls),
(375,384,o),
(380,385,q),
(383,387,o),
(388,389,qs),
(396,393,ls),
(399,395,o),
(404,397,qs),
(412,401,ls),
(416,403,o),
(421,405,qs),
(424,406,o),
(428,408,qs),
(437,412,ls),
(441,414,o),
(445,417,q),
(462,424,ls),
(465,425,o),
(469,428,q),
(473,429,o),
(478,431,q),
(486,436,l),
(489,437,o),
(494,440,qs),
(497,441,o),
(498,441,q),
(505,444,o),
(510,447,q)
);
},
{
closed = 1;
nodes = (
(476,294,l),
(474,291,o),
(472,287,qs),
(471,284,o),
(468,280,qs),
(466,277,o),
(464,272,qs),
(462,269,o),
(460,265,qs),
(455,256,l),
(454,252,o),
(451,248,q),
(450,245,o),
(447,241,qs),
(445,238,o),
(443,233,qs),
(441,229,o),
(439,225,qs),
(437,222,o),
(435,217,qs),
(433,214,o),
(431,209,q),
(428,206,o),
(426,202,qs),
(425,198,o),
(421,195,qs),
(413,190,l),
(409,189,o),
(404,187,q),
(401,184,o),
(397,183,qs),
(392,182,o),
(388,179,qs),
(386,178,o),
(384,177,qs),
(372,171,l),
(368,170,o),
(364,168,q),
(361,165,o),
(355,164,qs),
(351,163,o),
(347,160,qs),
(343,158,o),
(339,156,qs),
(336,155,o),
(331,152,q),
(322,148,l),
(319,146,o),
(314,145,qs),
(310,144,o),
(306,141,q),
(302,140,o),
(297,137,qs),
(294,136,o),
(290,133,qs),
(286,131,o),
(281,129,qs),
(278,128,o),
(273,126,qs),
(265,122,ls),
(262,120,o),
(256,118,q),
(253,116,o),
(248,115,q),
(245,112,o),
(239,110,q),
(237,110,o),
(236,109,q),
(229,106,o),
(224,103,q),
(215,99,ls),
(212,98,o),
(207,95,qs),
(204,93,o),
(199,91,qs),
(195,89,o),
(190,89,q),
(188,86,o),
(183,84,qs),
(179,83,o),
(174,80,qs),
(171,79,o),
(167,76,q),
(149,69,l),
(146,67,o),
(142,65,qs),
(139,64,o),
(133,62,q),
(129,59,o),
(125,57,qs),
(117,53,l),
(113,52,o),
(108,49,qs),
(105,48,o),
(101,46,q),
(96,45,o),
(92,42,qs),
(88,40,o),
(84,38,qs),
(80,37,o),
(76,34,q),
(67,30,l),
(65,28,o),
(59,27,qs),
(55,26,o),
(51,23,q),
(47,22,o),
(43,19,q),
(39,18,o),
(35,15,qs),
(31,13,o),
(26,11,qs),
(23,10,o),
(18,8,qs),
(0,0,l),
(1,4,o),
(3,9,qs),
(4,12,o),
(6,16,qs),
(13,33,l),
(14,37,o),
(16,42,qs),
(18,46,o),
(20,50,qs),
(21,54,o),
(24,59,q),
(30,76,ls),
(31,80,o),
(34,85,q),
(35,89,o),
(41,90,qs),
(45,91,o),
(49,94,q),
(52,95,o),
(57,98,qs),
(60,100,o),
(66,102,qs),
(70,103,o),
(74,106,qs),
(77,108,o),
(82,109,q),
(85,111,o),
(90,113,qs),
(93,115,o),
(98,117,qs),
(102,119,o),
(107,121,qs),
(110,123,o),
(115,125,qs),
(118,127,o),
(123,129,qs),
(127,130,o),
(131,132,qs),
(134,134,o),
(140,137,qs),
(143,138,o),
(147,141,q),
(156,144,l),
(159,147,o),
(164,148,qs),
(168,149,o),
(171,152,q),
(196,163,l),
(199,166,o),
(205,167,qs),
(208,168,o),
(212,171,q),
(221,175,l),
(224,177,o),
(229,179,qs),
(232,180,o),
(237,183,q),
(246,187,l),
(249,189,o),
(253,190,qs),
(257,192,o),
(262,195,q),
(270,198,l),
(273,200,o),
(278,202,qs),
(282,204,o),
(286,207,q),
(295,209,l),
(297,211,o),
(303,214,q),
(307,215,o),
(310,218,q),
(314,219,o),
(319,221,q),
(322,224,o),
(327,226,qs),
(331,227,o),
(339,231,o),
(344,233,qs),
(347,235,o),
(352,237,qs),
(356,238,o),
(360,241,qs),
(363,243,o),
(368,245,qs),
(376,248,ls),
(380,249,o),
(384,252,qs),
(387,254,o),
(393,256,q),
(401,260,ls),
(405,262,o),
(409,264,qs),
(412,266,o),
(418,267,q),
(425,272,l),
(428,273,o),
(433,275,qs),
(442,279,ls),
(446,281,o),
(450,284,q),
(453,285,o),
(458,286,q),
(466,291,l),
(469,292,o),
(474,295,q)
);
}
);
width = 0;
}
);
unicode = 1611;
},
{
glyphname = uni064C;
layers = (
{
layerId = "07A927BF-F932-4906-9D1A-F4B6A9E74CB4";
shapes = (
{
closed = 1;
nodes = (
(119,438,l),
(130,420,o),
(143,364,o),
(153,302,o),
(157,243,o),
(157,224,qs),
(157,207,o),
(152,167,o),
(145,153,q),
(152,155,o),
(174,182,o),
(203,213,o),
(244,239,o),
(269,239,qs),
(288,239,o),
(313,223,o),
(329,198,o),
(338,167,o),
(338,153,qs),
(338,126,o),
(297,89,o),
(240,65,o),
(178,55,o),
(158,55,qs),
(100,55,ls),
(89,55,o),
(65,61,o),
(54,61,q),
(13,76,l),
(0,82,l),
(4,83,l),
(47,87,ls),
(68,89,o),
(96,97,o),
(113,114,o),
(120,143,o),
(120,169,qs),
(120,216,ls),
(120,239,o),
(108,286,o),
(96,332,o),
(84,377,o),
(84,399,q)
);
},
{
closed = 1;
nodes = (
(234,188,o),
(201,165,o),
(165,134,o),
(138,103,o),
(138,95,q),
(140,95,ls),
(152,95,o),
(196,105,o),
(243,120,o),
(288,135,o),
(301,140,q),
(301,164,o),
(264,188,o),
(248,188,qs)
);
}
);
width = 0;
}
);
unicode = 1612;
},
{
glyphname = uni064D;
layers = (
{
layerId = "07A927BF-F932-4906-9D1A-F4B6A9E74CB4";
shapes = (
{
closed = 1;
nodes = (
(512,3,l),
(511,1,o),
(509,-2,qs),
(508,-4,ls),
(507,-7,o),
(505,-10,qs),
(502,-14,o),
(501,-19,q),
(499,-22,o),
(496,-27,q),
(495,-31,o),
(491,-35,q),
(491,-38,o),
(487,-43,q),
(486,-46,o),
(484,-49,qs),
(481,-53,o),
(480,-58,q),
(471,-74,ls),
(469,-77,o),
(467,-82,q),
(464,-85,o),
(462,-93,o),
(457,-96,qs),
(454,-98,o),
(449,-101,q),
(433,-108,l),
(428,-108,o),
(424,-112,q),
(420,-113,o),
(412,-117,o),
(408,-120,q),
(404,-121,o),
(399,-123,q),
(391,-128,l),
(388,-129,o),
(383,-130,q),
(380,-132,o),
(375,-134,q),
(371,-137,o),
(366,-138,q),
(363,-140,o),
(358,-142,qs),
(355,-144,o),
(350,-147,q),
(342,-149,l),
(334,-154,l),
(330,-155,o),
(325,-157,qs),
(322,-159,o),
(317,-161,q),
(314,-164,o),
(309,-165,q),
(306,-167,o),
(301,-168,q),
(297,-170,o),
(292,-173,q),
(268,-184,ls),
(265,-186,o),
(260,-187,q),
(257,-189,o),
(251,-191,q),
(248,-193,o),
(240,-197,o),
(235,-200,q),
(226,-203,l),
(223,-205,o),
(219,-207,q),
(210,-210,l),
(203,-214,l),
(198,-216,o),
(194,-219,q),
(178,-226,l),
(174,-227,o),
(169,-229,qs),
(166,-231,o),
(161,-234,q),
(157,-235,o),
(153,-238,q),
(149,-239,o),
(141,-243,o),
(137,-246,q),
(128,-248,l),
(125,-250,o),
(120,-253,qs),
(116,-255,o),
(111,-256,q),
(108,-258,o),
(103,-261,qs),
(100,-262,o),
(95,-265,q),
(87,-267,l),
(79,-272,l),
(75,-273,o),
(70,-275,qs),
(67,-277,o),
(62,-280,qs),
(59,-281,o),
(54,-283,qs),
(51,-285,o),
(46,-287,qs),
(43,-288,o),
(38,-291,q),
(36,-290,l),
(37,-288,o),
(38,-285,qs),
(43,-275,l),
(44,-271,o),
(46,-266,qs),
(48,-263,o),
(50,-253,o),
(53,-248,q),
(60,-231,ls),
(61,-228,o),
(64,-224,q),
(65,-219,o),
(67,-214,qs),
(69,-211,o),
(71,-203,o),
(77,-201,q),
(80,-199,o),
(86,-197,q),
(89,-195,o),
(93,-192,q),
(97,-191,o),
(102,-189,qs),
(105,-187,o),
(110,-186,q),
(113,-184,o),
(118,-181,q),
(127,-178,l),
(130,-176,o),
(135,-173,qs),
(138,-172,o),
(142,-169,q),
(151,-166,l),
(154,-164,o),
(159,-162,qs),
(163,-161,o),
(167,-158,q),
(184,-150,l),
(188,-149,o),
(191,-147,qs),
(216,-135,ls),
(219,-133,o),
(225,-131,q),
(228,-129,o),
(232,-128,q),
(241,-124,l),
(244,-122,o),
(252,-118,o),
(257,-115,q),
(266,-112,l),
(269,-110,o),
(277,-106,o),
(281,-104,qs),
(285,-103,o),
(290,-101,q),
(292,-98,o),
(298,-96,qs),
(302,-95,o),
(305,-92,q),
(309,-91,o),
(314,-89,qs),
(317,-87,o),
(323,-85,qs),
(327,-84,o),
(330,-81,q),
(334,-79,o),
(339,-77,q),
(346,-73,l),
(350,-72,o),
(354,-70,qs),
(358,-67,o),
(364,-66,q),
(371,-62,ls),
(375,-60,o),
(380,-58,qs),
(383,-56,o),
(388,-54,qs),
(396,-50,ls),
(399,-48,o),
(404,-47,q),
(412,-43,ls),
(416,-41,o),
(421,-38,qs),
(424,-37,o),
(428,-35,qs),
(437,-30,l),
(441,-29,o),
(445,-27,qs),
(453,-24,l),
(462,-19,l),
(465,-18,o),
(469,-15,qs),
(473,-13,o),
(478,-11,qs),
(486,-8,ls),
(489,-7,o),
(494,-4,qs),
(497,-3,o),
(502,0,qs),
(505,1,o),
(510,4,q)
);
},
{
closed = 1;
nodes = (
(476,-149,l),
(474,-151,o),
(472,-156,qs),
(471,-159,o),
(468,-164,qs),
(466,-167,o),
(464,-171,qs),
(462,-174,o),
(460,-179,q),
(455,-187,l),
(454,-190,o),
(451,-195,qs),
(450,-198,o),
(447,-203,qs),
(445,-206,o),
(441,-214,o),
(439,-219,qs),
(437,-222,o),
(435,-226,qs),
(433,-229,o),
(431,-234,q),
(428,-237,o),
(426,-242,qs),
(425,-246,o),
(421,-248,qs),
(413,-253,l),
(409,-254,o),
(404,-256,qs),
(401,-258,o),
(397,-261,q),
(392,-262,o),
(388,-265,qs),
(386,-266,o),
(384,-266,q),
(380,-267,l),
(372,-272,l),
(368,-273,o),
(364,-275,qs),
(361,-277,o),
(355,-280,q),
(351,-281,o),
(347,-284,q),
(343,-285,o),
(339,-287,qs),
(336,-288,o),
(331,-291,q),
(322,-294,l),
(319,-297,o),
(314,-299,qs),
(310,-300,o),
(306,-303,q),
(303,-304,o),
(299,-305,qs),
(295,-307,o),
(290,-310,q),
(286,-311,o),
(281,-313,qs),
(278,-315,o),
(273,-318,q),
(265,-321,l),
(262,-324,o),
(256,-325,q),
(253,-327,o),
(248,-328,q),
(245,-330,o),
(240,-333,qs),
(237,-334,o),
(232,-337,qs),
(229,-338,o),
(224,-340,q),
(215,-345,l),
(212,-346,o),
(207,-347,q),
(204,-350,o),
(199,-352,qs),
(195,-354,o),
(190,-355,q),
(188,-357,o),
(183,-360,q),
(179,-361,o),
(174,-364,qs),
(171,-365,o),
(167,-366,q),
(158,-371,l),
(149,-374,l),
(146,-377,o),
(142,-379,qs),
(139,-380,o),
(133,-382,qs),
(129,-384,o),
(125,-386,qs),
(117,-390,l),
(113,-391,o),
(108,-393,qs),
(105,-395,o),
(101,-398,q),
(96,-399,o),
(92,-402,q),
(88,-403,o),
(84,-405,qs),
(80,-406,o),
(76,-409,q),
(67,-413,l),
(65,-415,o),
(59,-417,qs),
(55,-418,o),
(51,-421,q),
(47,-422,o),
(43,-424,qs),
(39,-425,o),
(35,-428,q),
(31,-429,o),
(26,-432,qs),
(23,-433,o),
(18,-436,qs),
(10,-440,l),
(0,-443,l),
(1,-439,o),
(3,-435,qs),
(4,-432,o),
(6,-427,qs),
(13,-410,l),
(14,-406,o),
(16,-401,qs),
(18,-398,o),
(20,-392,qs),
(21,-388,o),
(24,-384,q),
(30,-366,ls),
(31,-363,o),
(34,-359,q),
(35,-355,o),
(41,-353,qs),
(45,-352,o),
(49,-349,qs),
(52,-347,o),
(57,-345,qs),
(60,-343,o),
(66,-342,q),
(70,-340,o),
(74,-338,qs),
(77,-336,o),
(82,-334,qs),
(85,-332,o),
(90,-330,qs),
(93,-328,o),
(98,-325,q),
(102,-324,o),
(107,-323,q),
(110,-321,o),
(115,-319,qs),
(118,-317,o),
(123,-314,q),
(127,-313,o),
(131,-311,q),
(134,-308,o),
(140,-306,qs),
(143,-305,o),
(147,-303,qs),
(156,-299,l),
(159,-297,o),
(164,-295,qs),
(168,-294,o),
(171,-291,q),
(196,-280,l),
(199,-278,o),
(204,-276,qs),
(208,-275,o),
(212,-272,q),
(221,-268,l),
(224,-266,o),
(229,-265,q),
(232,-263,o),
(237,-261,qs),
(246,-257,l),
(249,-255,o),
(257,-251,o),
(262,-248,q),
(270,-246,l),
(273,-244,o),
(278,-241,q),
(282,-240,o),
(286,-237,q),
(295,-234,l),
(297,-231,o),
(303,-229,qs),
(307,-228,o),
(310,-226,qs),
(314,-224,o),
(319,-222,qs),
(322,-220,o),
(327,-218,qs),
(331,-217,o),
(335,-214,qs),
(339,-212,o),
(344,-210,qs),
(347,-208,o),
(352,-207,q),
(356,-205,o),
(360,-203,qs),
(363,-201,o),
(368,-199,qs),
(376,-195,l),
(380,-194,o),
(384,-190,q),
(387,-189,o),
(393,-187,q),
(401,-183,l),
(405,-182,o),
(409,-180,qs),
(412,-178,o),
(418,-176,q),
(425,-171,l),
(428,-170,o),
(433,-168,qs),
(442,-164,l),
(446,-163,o),
(450,-160,q),
(453,-159,o),
(458,-156,qs),
(466,-152,ls),
(469,-151,o),
(474,-148,q)
);
}
);
width = 0;
}
);
unicode = 1613;
},
{
glyphname = uni064E;
layers = (
{
layerId = "07A927BF-F932-4906-9D1A-F4B6A9E74CB4";
shapes = (
{
closed = 1;
nodes = (
(537,332,l),
(536,330,o),
(534,327,qs),
(533,325,ls),
(531,322,o),
(528,316,qs),
(526,312,o),
(523,306,qs),
(521,303,o),
(519,298,qs),
(518,294,o),
(514,289,q),
(513,285,o),
(509,281,q),
(507,277,o),
(504,271,qs),
(502,268,o),
(500,263,q),
(490,245,ls),
(488,241,o),
(486,238,qs),
(483,232,o),
(482,227,qs),
(480,222,o),
(475,220,qs),
(465,216,l),
(457,211,ls),
(453,209,o),
(447,207,q),
(443,204,o),
(437,203,q),
(428,198,ls),
(424,196,o),
(416,192,o),
(410,189,q),
(401,186,l),
(391,181,ls),
(387,179,o),
(379,175,o),
(378,175,q),
(369,170,o),
(364,167,qs),
(362,166,o),
(359,166,q),
(318,147,ls),
(314,145,o),
(308,142,qs),
(305,141,o),
(299,138,qs),
(295,136,o),
(289,133,qs),
(281,129,ls),
(277,127,o),
(271,126,q),
(267,124,o),
(262,121,qs),
(257,119,o),
(252,116,qs),
(248,114,o),
(243,112,qs),
(239,110,o),
(234,108,qs),
(224,104,l),
(221,101,o),
(215,99,qs),
(211,97,o),
(206,95,q),
(203,92,o),
(196,90,qs),
(192,88,o),
(187,86,qs),
(183,85,o),
(178,82,qs),
(174,80,o),
(169,77,q),
(159,73,ls),
(156,72,o),
(150,69,qs),
(148,68,o),
(146,67,qs),
(141,65,ls),
(137,63,o),
(131,60,q),
(127,59,o),
(123,55,q),
(119,55,o),
(112,51,q),
(108,50,o),
(105,48,qs),
(100,46,o),
(94,43,qs),
(91,42,o),
(86,39,q),
(76,35,l),
(72,32,o),
(67,30,qs),
(63,28,o),
(58,26,qs),
(54,25,o),
(48,22,qs),
(44,20,o),
(39,17,qs),
(35,15,o),
(30,13,qs),
(26,11,o),
(21,9,qs),
(0,0,l),
(1,4,o),
(3,10,qs),
(5,14,o),
(7,18,q),
(14,38,l),
(16,42,o),
(18,48,q),
(21,52,o),
(23,58,qs),
(24,62,o),
(27,68,q),
(30,77,l),
(35,87,l),
(35,91,o),
(39,96,q),
(41,101,o),
(47,102,q),
(51,104,o),
(55,107,q),
(65,110,l),
(68,113,o),
(74,115,qs),
(78,117,o),
(83,120,q),
(87,121,o),
(92,124,qs),
(96,126,o),
(102,128,qs),
(106,129,o),
(110,133,q),
(114,134,o),
(121,137,qs),
(124,138,o),
(129,142,q),
(133,143,o),
(138,146,q),
(148,150,ls),
(151,151,o),
(157,154,qs),
(160,156,o),
(166,158,q),
(175,163,ls),
(178,165,o),
(185,167,q),
(188,170,o),
(194,171,q),
(203,176,l),
(207,179,o),
(212,180,q),
(215,183,o),
(222,185,qs),
(226,187,o),
(228,188,qs),
(232,190,o),
(235,191,qs),
(240,193,ls),
(244,195,o),
(249,198,qs),
(253,200,o),
(258,203,qs),
(260,204,o),
(263,205,qs),
(277,211,l),
(281,212,o),
(286,216,q),
(289,216,o),
(290,218,q),
(313,228,l),
(318,231,o),
(324,232,q),
(332,237,l),
(342,241,l),
(345,244,o),
(350,246,qs),
(354,248,o),
(360,250,q),
(369,254,l),
(372,257,o),
(379,259,qs),
(383,261,o),
(387,264,qs),
(391,266,o),
(397,267,q),
(400,269,o),
(406,272,q),
(410,273,o),
(415,277,q),
(419,278,o),
(424,281,qs),
(433,286,l),
(437,287,o),
(443,289,q),
(452,294,l),
(456,295,o),
(461,298,qs),
(470,303,l),
(480,306,l),
(484,308,o),
(489,311,qs),
(493,313,o),
(498,315,q),
(502,318,o),
(507,320,qs),
(511,322,o),
(516,325,q),
(520,326,o),
(526,328,q),
(529,330,o),
(535,333,q)
);
}
);
width = 0;
}
);
unicode = 1614;
},
{
glyphname = uni064F;
layers = (
{
layerId = "07A927BF-F932-4906-9D1A-F4B6A9E74CB4";
shapes = (
{
closed = 1;
nodes = (
(376,564,l),
(400,564,l),
(402,563,l),
(405,563,o),
(409,562,q),
(412,560,o),
(417,559,q),
(421,556,ls),
(425,553,o),
(429,548,qs),
(433,544,o),
(437,538,q),
(442,525,l),
(442,522,o),
(443,519,qs),
(444,513,l),
(444,476,l),
(443,461,l),
(441,456,o),
(440,448,q),
(440,445,l),
(437,439,o),
(436,432,q),
(436,430,o),
(434,425,qs),
(433,422,o),
(433,421,q),
(430,413,o),
(428,405,qs),
(426,400,o),
(424,395,qs),
(423,392,ls),
(422,389,o),
(421,384,qs),
(420,379,l),
(410,354,l),
(407,349,o),
(405,342,q),
(403,339,o),
(403,336,q),
(405,335,o),
(407,333,qs),
(415,327,l),
(413,324,l),
(412,318,o),
(407,311,q),
(406,305,o),
(403,300,qs),
(400,296,o),
(398,289,q),
(397,287,ls),
(395,282,o),
(391,277,qs),
(389,273,o),
(387,268,q),
(384,266,l),
(382,262,o),
(379,254,q),
(377,251,o),
(374,247,qs),
(369,240,o),
(365,232,q),
(361,235,o),
(358,241,q),
(354,244,o),
(349,249,q),
(345,252,l),
(342,246,ls),
(340,243,o),
(336,239,o),
(335,235,q),
(331,231,o),
(327,226,qs),
(324,221,o),
(321,215,q),
(317,211,o),
(313,206,qs),
(310,203,o),
(305,196,q),
(297,187,ls),
(294,183,o),
(290,179,qs),
(285,174,o),
(281,168,q),
(278,167,o),
(275,165,q),
(274,163,o),
(271,160,qs),
(268,157,o),
(265,153,qs),
(259,146,o),
(253,143,q),
(249,139,o),
(245,134,q),
(241,131,o),
(237,129,qs),
(232,125,o),
(230,121,q),
(226,119,l),
(223,116,o),
(222,115,qs),
(213,106,o),
(207,103,q),
(205,101,o),
(202,98,qs),
(200,97,o),
(198,94,q),
(187,88,l),
(183,84,o),
(178,80,qs),
(174,76,o),
(168,72,qs),
(164,70,o),
(161,67,q),
(158,65,ls),
(153,62,o),
(148,57,q),
(143,55,o),
(138,49,q),
(133,47,o),
(128,43,q),
(123,41,o),
(117,36,q),
(112,34,o),
(107,30,q),
(103,30,o),
(100,27,q),
(94,24,l),
(90,23,o),
(87,20,q),
(58,9,l),
(52,9,o),
(45,5,q),
(39,5,o),
(33,2,q),
(30,2,l),
(26,1,o),
(23,1,q),
(19,0,o),
(14,0,qs),
(-1,0,l),
(5,4,o),
(10,9,q),
(15,12,o),
(21,15,q),
(25,19,o),
(30,22,qs),
(33,25,o),
(38,28,qs),
(41,30,ls),
(46,33,o),
(51,37,qs),
(55,40,o),
(60,43,q),
(62,45,l),
(64,46,o),
(67,48,qs),
(70,50,o),
(71,51,qs),
(75,55,o),
(82,59,q),
(83,60,o),
(85,62,qs),
(87,63,o),
(89,66,q),
(91,67,ls),
(94,69,o),
(100,72,q),
(101,74,l),
(106,76,o),
(110,82,q),
(115,84,o),
(120,89,q),
(125,91,o),
(130,97,q),
(135,99,o),
(140,105,q),
(143,106,o),
(147,110,o),
(150,112,q),
(153,116,o),
(159,120,qs),
(163,123,o),
(168,128,qs),
(176,134,o),
(176,135,q),
(178,136,l),
(181,139,o),
(185,143,qs),
(187,145,ls),
(189,147,o),
(194,149,q),
(196,152,l),
(200,156,o),
(206,160,qs),
(208,162,o),
(210,166,q),
(214,168,ls),
(217,170,o),
(219,174,q),
(224,177,l),
(227,181,o),
(231,185,qs),
(235,189,o),
(242,194,q),
(245,198,o),
(249,202,qs),
(252,205,o),
(257,208,q),
(259,210,l),
(262,214,o),
(267,220,qs),
(270,223,o),
(276,228,q),
(278,231,o),
(281,234,qs),
(285,237,ls),
(287,239,o),
(288,242,q),
(290,244,o),
(292,245,qs),
(297,249,o),
(301,256,q),
(306,259,o),
(309,265,q),
(313,269,o),
(314,270,qs),
(320,276,o),
(323,280,q),
(319,283,ls),
(315,286,o),
(309,290,qs),
(307,292,o),
(304,295,qs),
(300,298,ls),
(297,301,o),
(293,305,q),
(290,306,l),
(289,307,o),
(286,310,q),
(285,313,o),
(282,315,q),
(281,318,o),
(277,321,q),
(274,325,ls),
(271,329,o),
(266,334,q),
(264,339,o),
(262,343,q),
(261,346,ls),
(259,351,o),
(256,359,qs),
(255,364,o),
(255,369,q),
(254,371,l),
(254,384,ls),
(254,387,o),
(255,390,q),
(255,400,l),
(257,405,l),
(257,408,o),
(258,413,q),
(260,417,o),
(260,421,q),
(261,424,o),
(263,428,q),
(264,434,ls),
(265,438,o),
(267,447,qs),
(269,453,o),
(273,459,qs),
(275,463,o),
(278,468,q),
(279,468,o),
(280,470,qs),
(283,474,o),
(286,482,q),
(289,486,o),
(293,492,qs),
(300,502,l),
(303,505,o),
(305,511,q),
(307,512,l),
(309,515,o),
(313,521,q),
(315,522,l),
(318,526,o),
(324,530,q),
(327,535,o),
(331,540,q),
(335,543,o),
(342,547,q),
(345,550,o),
(351,554,qs),
(355,557,l),
(358,558,o),
(363,561,q),
(367,561,o),
(370,563,q)
);
},
{
closed = 1;
nodes = (
(339,468,l),
(328,466,l),
(319,463,l),
(311,458,l),
(302,449,l),
(302,445,l),
(304,443,l),
(304,439,o),
(306,433,q),
(308,430,o),
(311,425,qs),
(314,422,o),
(317,418,qs),
(320,415,o),
(324,410,qs),
(326,408,o),
(328,405,qs),
(331,401,o),
(336,398,qs),
(339,395,o),
(344,392,q),
(350,385,l),
(353,383,o),
(357,380,qs),
(364,374,l),
(366,371,o),
(371,367,q),
(373,364,o),
(377,361,qs),
(380,359,l),
(383,364,ls),
(385,367,o),
(387,371,qs),
(389,374,o),
(392,381,qs),
(393,385,o),
(395,389,qs),
(397,395,o),
(398,401,qs),
(399,409,l),
(398,412,l),
(398,423,l),
(396,427,o),
(394,433,qs),
(392,438,o),
(390,443,q),
(387,446,o),
(384,450,qs),
(381,453,o),
(378,456,qs),
(370,462,l),
(366,464,o),
(362,466,q),
(357,467,o),
(351,468,q)
);
}
);
width = 0;
}
);
unicode = 1615;
},
{
glyphname = uni0650;
layers = (
{
layerId = "07A927BF-F932-4906-9D1A-F4B6A9E74CB4";
shapes = (
{
closed = 1;
nodes = (
(537,-26,l),
(536,-28,o),
(534,-30,q),
(533,-33,l),
(531,-36,o),
(529,-41,qs),
(526,-46,o),
(523,-50,qs),
(521,-54,o),
(519,-59,qs),
(518,-63,o),
(514,-69,q),
(513,-73,o),
(509,-77,q),
(507,-81,o),
(504,-87,qs),
(502,-90,o),
(500,-95,q),
(490,-112,ls),
(488,-116,o),
(485,-122,qs),
(483,-125,o),
(482,-130,qs),
(480,-135,o),
(475,-138,q),
(465,-142,l),
(457,-147,ls),
(453,-149,o),
(447,-150,q),
(443,-153,o),
(437,-155,q),
(428,-160,ls),
(424,-162,o),
(416,-166,o),
(410,-168,q),
(391,-177,l),
(387,-178,o),
(383,-181,qs),
(379,-183,o),
(373,-186,q),
(369,-187,o),
(364,-190,q),
(362,-190,o),
(359,-192,qs),
(318,-211,ls),
(314,-213,o),
(308,-215,q),
(305,-217,o),
(299,-219,q),
(295,-222,o),
(289,-224,q),
(281,-228,ls),
(277,-230,o),
(271,-232,qs),
(267,-234,o),
(262,-237,qs),
(257,-239,o),
(252,-242,qs),
(248,-244,o),
(243,-246,qs),
(239,-248,o),
(234,-250,qs),
(224,-254,l),
(221,-256,o),
(215,-259,qs),
(211,-261,o),
(206,-263,q),
(203,-266,o),
(198,-267,qs),
(192,-269,o),
(187,-272,q),
(183,-273,o),
(178,-276,q),
(174,-277,o),
(169,-281,q),
(159,-285,ls),
(156,-286,o),
(150,-289,q),
(148,-289,o),
(146,-291,q),
(141,-293,ls),
(137,-295,o),
(131,-297,qs),
(127,-299,o),
(123,-302,q),
(119,-303,o),
(112,-305,qs),
(108,-307,o),
(105,-310,q),
(100,-312,o),
(94,-314,q),
(91,-316,o),
(86,-319,q),
(76,-323,l),
(72,-326,o),
(67,-327,q),
(63,-329,o),
(58,-332,q),
(54,-333,o),
(48,-336,qs),
(44,-338,o),
(39,-341,qs),
(35,-343,o),
(30,-345,qs),
(26,-347,o),
(21,-349,qs),
(0,-358,l),
(1,-354,o),
(3,-348,qs),
(5,-344,o),
(7,-339,qs),
(14,-320,ls),
(16,-316,o),
(18,-309,q),
(21,-305,o),
(23,-300,qs),
(24,-296,o),
(27,-290,q),
(30,-281,l),
(35,-271,l),
(35,-267,o),
(39,-262,q),
(41,-257,o),
(47,-256,q),
(51,-254,o),
(55,-251,q),
(65,-247,l),
(68,-244,o),
(74,-243,q),
(78,-241,o),
(83,-238,qs),
(87,-236,o),
(92,-234,q),
(96,-231,o),
(102,-229,qs),
(106,-227,o),
(110,-225,qs),
(114,-224,o),
(121,-221,qs),
(124,-219,o),
(129,-216,q),
(133,-215,o),
(138,-212,qs),
(148,-207,ls),
(151,-206,o),
(157,-204,q),
(160,-202,o),
(166,-199,qs),
(175,-194,l),
(178,-193,o),
(185,-190,qs),
(188,-188,o),
(194,-187,q),
(203,-182,l),
(207,-179,o),
(212,-178,q),
(215,-175,o),
(222,-173,qs),
(226,-171,o),
(230,-168,qs),
(232,-167,o),
(235,-166,qs),
(240,-165,l),
(244,-162,o),
(249,-160,qs),
(253,-158,o),
(258,-155,qs),
(260,-154,o),
(263,-153,qs),
(277,-147,l),
(281,-146,o),
(286,-142,q),
(289,-141,o),
(290,-140,q),
(296,-138,l),
(313,-129,ls),
(318,-126,o),
(324,-125,q),
(342,-116,ls),
(345,-114,o),
(350,-112,qs),
(354,-110,o),
(360,-108,q),
(369,-104,l),
(372,-101,o),
(379,-99,qs),
(383,-97,o),
(387,-94,qs),
(391,-92,o),
(397,-90,q),
(400,-87,o),
(406,-86,q),
(410,-84,o),
(415,-81,qs),
(419,-79,o),
(424,-77,q),
(433,-72,l),
(437,-71,o),
(443,-69,q),
(452,-64,l),
(456,-63,o),
(461,-59,q),
(480,-50,l),
(484,-49,o),
(489,-47,qs),
(493,-45,o),
(498,-43,q),
(502,-40,o),
(507,-38,qs),
(511,-36,o),
(516,-33,q),
(520,-32,o),
(526,-30,q),
(529,-28,o),
(535,-25,q)
);
}
);
width = 0;
}
);
unicode = 1616;
},
{
glyphname = uni0651;
layers = (
{
layerId = "07A927BF-F932-4906-9D1A-F4B6A9E74CB4";
shapes = (
{
closed = 1;
nodes = (
(391,363,l),
(392,357,ls),
(393,354,o),
(395,348,qs),
(397,344,o),
(397,340,q),
(399,337,o),
(400,332,q),
(403,323,ls),
(404,319,o),
(404,314,q),
(410,286,ls),
(411,283,o),
(411,278,q),
(412,274,o),
(414,268,q),
(414,263,o),
(414,262,qs),
(414,255,o),
(416,248,q),
(416,243,o),
(417,238,q),
(417,183,l),
(414,163,l),
(414,160,o),
(413,154,qs),
(412,150,o),
(411,144,qs),
(409,135,ls),
(408,131,o),
(407,127,qs),
(405,123,o),
(405,117,q),
(403,114,o),
(403,109,q),
(402,105,o),
(400,101,qs),
(399,99,o),
(397,93,q),
(395,90,o),
(393,86,qs),
(391,83,o),
(389,79,qs),
(388,76,o),
(385,71,qs),
(383,67,o),
(381,65,q),
(380,62,o),
(376,59,q),
(374,56,o),
(371,53,qs),
(368,50,o),
(365,48,qs),
(362,45,o),
(359,43,q),
(357,40,o),
(353,38,qs),
(350,36,o),
(347,34,qs),
(345,33,ls),
(342,32,o),
(339,30,q),
(335,29,o),
(325,27,o),
(321,26,q),
(319,26,o),
(315,25,q),
(302,25,l),
(297,26,o),
(291,27,qs),
(287,28,o),
(279,30,o),
(275,31,q),
(272,34,o),
(268,35,qs),
(264,37,o),
(261,39,qs),
(258,41,o),
(254,44,qs),
(247,49,ls),
(245,51,o),
(242,53,q),
(241,56,o),
(237,60,qs),
(235,62,o),
(232,66,qs),
(230,69,o),
(227,72,qs),
(225,75,o),
(224,80,q),
(222,83,o),
(220,87,qs),
(218,90,o),
(216,94,q),
(216,97,o),
(213,98,q),
(213,95,l),
(211,92,o),
(210,88,q),
(207,85,o),
(207,80,q),
(205,77,o),
(203,72,q),
(199,65,ls),
(197,62,o),
(194,59,q),
(193,56,o),
(190,52,qs),
(188,49,o),
(185,46,qs),
(183,43,o),
(180,40,qs),
(178,37,o),
(175,34,qs),
(173,31,o),
(169,30,q),
(164,24,l),
(161,23,o),
(157,19,q),
(154,18,o),
(150,15,q),
(147,14,o),
(144,10,q),
(141,10,o),
(136,8,qs),
(128,5,ls),
(125,4,o),
(119,2,q),
(116,2,o),
(110,1,q),
(88,1,l),
(81,2,l),
(78,2,l),
(76,4,o),
(70,5,q),
(67,7,o),
(64,8,qs),
(62,9,ls),
(59,11,o),
(55,13,qs),
(52,14,o),
(49,17,qs),
(46,19,o),
(43,22,qs),
(41,25,o),
(37,28,q),
(35,31,o),
(32,33,q),
(30,36,o),
(26,42,o),
(23,47,qs),
(19,53,ls),
(17,56,o),
(15,61,qs),
(14,64,o),
(13,67,qs),
(10,72,o),
(10,77,q),
(7,85,l),
(6,94,l),
(5,97,o),
(4,103,qs),
(2,112,l),
(2,164,l),
(3,166,l),
(3,171,l),
(4,177,ls),
(5,181,o),
(5,187,q),
(7,191,o),
(7,196,q),
(8,200,o),
(8,206,q),
(9,210,o),
(10,214,q),
(10,219,o),
(12,223,q),
(13,228,o),
(14,231,qs),
(15,235,o),
(16,240,q),
(19,248,ls),
(20,252,o),
(21,255,qs),
(22,257,l),
(23,261,o),
(25,266,qs),
(26,270,o),
(28,273,qs),
(29,276,o),
(30,282,q),
(30,284,o),
(32,287,qs),
(33,289,ls),
(34,292,o),
(36,298,q),
(38,301,o),
(39,305,q),
(41,308,o),
(43,313,qs),
(46,321,l),
(48,324,o),
(49,328,q),
(51,331,o),
(53,335,q),
(56,344,l),
(59,347,o),
(61,349,qs),
(65,352,o),
(69,352,q),
(73,351,o),
(76,348,q),
(76,346,o),
(76,343,q),
(75,339,ls),
(74,336,o),
(71,332,q),
(70,329,o),
(68,325,q),
(68,322,o),
(65,317,qs),
(64,314,o),
(64,313,q),
(61,306,o),
(58,301,qs),
(57,298,o),
(56,292,q),
(54,289,o),
(53,285,qs),
(51,281,o),
(50,275,qs),
(49,272,o),
(49,266,q),
(48,263,o),
(47,258,q),
(47,255,o),
(45,248,q),
(45,243,o),
(44,238,q),
(44,224,l),
(43,220,l),
(43,217,l),
(44,215,o),
(44,211,qs),
(44,207,l),
(45,202,o),
(45,197,q),
(46,194,o),
(47,188,qs),
(48,179,l),
(53,163,l),
(56,159,o),
(56,154,q),
(58,152,o),
(61,148,q),
(62,144,o),
(65,141,qs),
(67,138,o),
(69,134,q),
(72,131,o),
(74,128,qs),
(77,125,o),
(80,123,qs),
(93,114,ls),
(96,112,o),
(100,110,qs),
(104,108,o),
(108,108,q),
(112,107,o),
(116,106,qs),
(122,105,l),
(136,105,l),
(142,106,l),
(145,106,l),
(147,107,l),
(151,108,o),
(156,108,q),
(164,111,l),
(167,113,o),
(173,117,o),
(177,119,qs),
(181,120,o),
(185,123,qs),
(188,126,o),
(194,130,o),
(198,132,qs),
(200,134,o),
(204,137,q),
(205,144,l),
(205,147,ls),
(205,152,o),
(204,157,q),
(204,160,o),
(202,166,q),
(202,170,o),
(201,175,q),
(201,179,o),
(199,184,q),
(193,211,ls),
(192,214,o),
(190,220,q),
(190,225,o),
(188,228,q),
(183,260,l),
(185,266,l),
(187,269,o),
(187,274,q),
(188,277,o),
(190,282,qs),
(193,289,l),
(194,294,o),
(197,298,q),
(198,301,o),
(200,305,qs),
(202,308,o),
(204,312,qs),
(206,315,o),
(207,319,q),
(212,325,l),
(213,328,o),
(217,332,qs),
(227,344,ls),
(229,346,o),
(233,349,q),
(236,350,o),
(239,354,q),
(242,355,l),
(242,300,l),
(243,296,l),
(243,289,l),
(244,284,l),
(244,280,o),
(245,274,q),
(245,264,l),
(247,260,o),
(246,254,q),
(251,226,l),
(251,223,o),
(253,217,q),
(253,214,o),
(256,208,q),
(259,200,l),
(259,197,o),
(262,192,q),
(262,190,o),
(264,188,q),
(265,185,ls),
(266,182,o),
(267,179,qs),
(269,174,o),
(272,170,qs),
(274,167,o),
(276,164,qs),
(279,161,o),
(282,158,qs),
(287,152,l),
(289,151,o),
(292,149,qs),
(296,146,o),
(301,144,qs),
(304,142,o),
(307,140,q),
(325,137,l),
(337,137,l),
(356,140,ls),
(360,141,o),
(368,143,o),
(373,145,q),
(377,146,l),
(377,160,l),
(374,181,l),
(374,185,o),
(372,190,q),
(372,194,o),
(370,199,q),
(370,203,o),
(367,207,q),
(367,211,o),
(365,216,qs),
(364,220,o),
(364,226,q),
(362,229,o),
(361,233,qs),
(358,241,ls),
(356,245,o),
(355,249,qs),
(354,252,o),
(351,257,q),
(350,261,o),
(348,266,qs),
(345,272,l),
(347,275,o),
(348,280,qs),
(349,284,o),
(352,287,q),
(353,292,o),
(356,295,q),
(357,298,o),
(359,303,qs),
(361,306,o),
(362,310,q),
(364,313,o),
(365,318,q),
(373,332,l),
(374,335,o),
(377,341,qs),
(378,344,o),
(380,347,q),
(383,355,l),
(385,358,o),
(386,363,q)
);
}
);
width = 0;
}
);
unicode = 1617;
},
{
glyphname = uni0652;
layers = (
{
layerId = "07A927BF-F932-4906-9D1A-F4B6A9E74CB4";
shapes = (
{
closed = 1;
nodes = (
(428,203,o),
(430,198,qs),
(432,195,o),
(434,189,q),
(438,182,ls),
(440,179,o),
(442,173,qs),
(443,170,o),
(445,166,qs),
(453,150,l),
(453,146,o),
(456,142,q),
(457,138,o),
(459,133,qs),
(461,130,o),
(462,127,qs),
(465,116,l),
(467,112,o),
(468,108,qs),
(470,104,o),
(472,99,qs),
(478,82,l),
(480,78,o),
(480,72,q),
(482,68,o),
(483,63,q),
(483,59,o),
(486,55,q),
(487,50,o),
(488,45,q),
(490,41,o),
(491,35,qs),
(492,31,o),
(493,27,q),
(495,22,l),
(495,16,l),
(498,7,ls),
(499,3,o),
(500,-3,qs),
(501,-7,o),
(502,-11,q),
(502,-15,o),
(503,-22,qs),
(504,-26,o),
(506,-31,q),
(507,-41,l),
(507,-46,o),
(509,-52,q),
(509,-56,o),
(510,-62,qs),
(511,-72,ls),
(512,-77,o),
(513,-83,q),
(513,-87,o),
(514,-93,q),
(514,-103,l),
(515,-105,l),
(515,-109,l),
(516,-113,l),
(516,-197,ls),
(516,-202,o),
(514,-208,q),
(514,-219,ls),
(514,-221,o),
(513,-225,q),
(513,-229,l),
(511,-234,o),
(511,-240,q),
(510,-244,o),
(510,-250,q),
(509,-254,o),
(507,-260,q),
(506,-270,l),
(503,-279,ls),
(502,-283,o),
(502,-289,q),
(501,-293,o),
(499,-298,qs),
(498,-303,o),
(497,-308,q),
(495,-311,o),
(494,-316,q),
(492,-320,o),
(491,-325,q),
(489,-328,o),
(488,-332,q),
(487,-334,ls),
(486,-337,o),
(486,-338,q),
(483,-346,o),
(481,-350,qs),
(480,-354,o),
(477,-358,q),
(476,-362,o),
(473,-366,q),
(472,-369,o),
(469,-374,qs),
(468,-377,o),
(465,-382,qs),
(464,-385,o),
(462,-388,qs),
(457,-398,l),
(455,-397,l),
(455,-388,l),
(456,-382,l),
(456,-377,ls),
(456,-375,o),
(457,-371,q),
(457,-354,ls),
(457,-352,o),
(457,-348,qs),
(457,-304,l),
(458,-300,l),
(458,-297,l),
(457,-286,l),
(457,-263,ls),
(457,-259,o),
(457,-247,q),
(456,-243,l),
(456,-231,l),
(453,-210,l),
(453,-199,l),
(452,-192,l),
(452,-186,l),
(449,-166,ls),
(448,-161,o),
(448,-155,q),
(446,-150,o),
(446,-144,q),
(445,-140,o),
(445,-135,qs),
(445,-130,o),
(443,-125,q),
(441,-117,l),
(441,-114,ls),
(441,-110,o),
(440,-105,qs),
(437,-95,l),
(437,-91,o),
(435,-86,q),
(435,-81,o),
(433,-76,q),
(433,-71,o),
(430,-67,q),
(430,-63,o),
(428,-57,qs),
(427,-53,o),
(425,-49,q),
(423,-38,l),
(421,-34,o),
(421,-30,q),
(420,-26,o),
(418,-21,qs),
(415,-11,ls),
(414,-7,o),
(412,-3,qs),
(411,0,o),
(408,5,q),
(408,9,o),
(405,13,q),
(404,17,o),
(403,23,qs),
(402,26,o),
(399,30,q),
(398,34,o),
(395,39,q),
(394,43,o),
(391,47,q),
(391,51,o),
(387,55,q),
(387,59,o),
(384,63,q),
(383,67,o),
(380,70,q),
(380,74,o),
(376,78,q),
(375,82,o),
(372,87,qs),
(370,90,l),
(371,96,ls),
(372,99,o),
(375,104,qs),
(376,107,o),
(379,111,q),
(383,120,ls),
(384,123,o),
(386,128,qs),
(388,131,o),
(392,139,o),
(393,140,q),
(396,147,o),
(399,150,q),
(400,153,o),
(403,157,q),
(404,161,o),
(406,165,qs),
(407,169,o),
(410,172,q),
(414,181,ls),
(415,184,o),
(417,187,qs),
(420,191,o),
(422,197,qs),
(423,200,o),
(425,205,q)
);
}
);
width = 6;
}
);
unicode = 1618;
},
{
glyphname = uni0653;
layers = (
{
layerId = "07A927BF-F932-4906-9D1A-F4B6A9E74CB4";
shapes = (
{
closed = 1;
nodes = (
(419,15,o),
(325,15,qs),
(307,15,o),
(254,18,o),
(184,26,o),
(131,29,o),
(118,29,qs),
(64,29,o),
(0,0,q),
(11,39,o),
(63,68,qs),
(109,94,o),
(150,94,qs),
(166,94,o),
(214,91,o),
(279,83,o),
(326,80,o),
(340,80,qs),
(390,80,o),
(476,106,q)
);
}
);
width = 0;
}
);
unicode = 1619;
},
{
glyphname = uni0654;
layers = (
{
layerId = "07A927BF-F932-4906-9D1A-F4B6A9E74CB4";
shapes = (
{
closed = 1;
nodes = (
(91,425,o),
(192,454,q),
(206,456,o),
(230,452,q),
(237,452,l),
(299,427,o),
(278,358,q),
(181,387,o),
(91,321,q),
(98,311,o),
(126,277,o),
(169,242,o),
(209,221,q),
(216,218,l),
(239,235,o),
(385,316,o),
(384,298,q),
(326,206,l),
(311,202,o),
(180,115,o),
(101,68,o),
(11,2,o),
(0,0,q),
(0,15,l),
(3,42,o),
(50,99,o),
(111,143,o),
(120,149,q),
(13,212,o),
(62,331,q)
);
}
);
width = 0;
}
);
unicode = 1620;
},
{
glyphname = uni0655;
layers = (
{
layerId = "07A927BF-F932-4906-9D1A-F4B6A9E74CB4";
shapes = (
{
closed = 1;
nodes = (
(95,135,o),
(196,164,q),
(210,166,o),
(234,162,q),
(241,162,l),
(303,137,o),
(282,68,q),
(185,97,o),
(95,31,q),
(102,21,o),
(130,-13,o),
(173,-48,o),
(213,-69,q),
(220,-72,l),
(243,-55,o),
(389,26,o),
(388,8,q),
(330,-84,l),
(315,-88,o),
(184,-175,o),
(105,-222,o),
(15,-288,o),
(4,-290,q),
(4,-275,l),
(7,-248,o),
(54,-191,o),
(115,-147,o),
(124,-141,q),
(17,-78,o),
(66,41,q)
);
}
);
width = 0;
}
);
unicode = 1621;
},
{
glyphname = uni0660;
layers = (
{
layerId = "07A927BF-F932-4906-9D1A-F4B6A9E74CB4";
shapes = (
{
closed = 1;
nodes = (
(369,510,o),
(374,503,q),
(377,501,o),
(381,498,q),
(381,497,o),
(383,496,qs),
(386,493,o),
(390,487,qs),
(393,484,o),
(398,481,q),
(399,479,l),
(403,477,o),
(407,471,qs),
(410,468,o),
(417,464,q),
(420,460,o),
(425,457,qs),
(428,454,o),
(435,450,q),
(438,447,o),
(443,443,qs),
(447,441,o),
(453,436,q),
(457,434,o),
(461,430,q),
(463,429,ls),
(467,427,o),
(472,423,q),
(477,421,o),
(482,416,q),
(486,414,o),
(492,409,q),
(502,404,l),
(505,401,o),
(511,398,qs),
(516,395,o),
(522,390,q),
(520,386,o),
(517,380,q),
(514,377,o),
(509,371,q),
(507,367,o),
(503,364,q),
(502,362,l),
(498,359,o),
(496,351,q),
(493,348,o),
(488,343,q),
(486,339,o),
(483,334,qs),
(480,330,o),
(475,324,qs),
(467,314,l),
(465,310,o),
(461,305,qs),
(459,301,o),
(454,296,q),
(452,292,o),
(448,287,qs),
(444,282,o),
(441,276,q),
(433,267,l),
(431,263,o),
(426,258,qs),
(424,255,o),
(421,250,qs),
(418,245,l),
(414,246,o),
(410,248,qs),
(400,254,ls),
(396,257,o),
(390,261,qs),
(385,264,o),
(381,266,qs),
(375,269,o),
(371,273,qs),
(366,277,o),
(360,280,q),
(356,285,o),
(350,286,q),
(347,290,o),
(342,294,qs),
(337,297,o),
(332,302,qs),
(328,305,o),
(320,311,o),
(314,316,qs),
(311,319,o),
(306,324,qs),
(302,327,o),
(297,331,q),
(294,335,o),
(289,340,qs),
(266,366,l),
(272,377,l),
(275,381,o),
(280,386,q),
(282,391,o),
(286,396,qs),
(289,401,o),
(292,406,q),
(296,410,o),
(299,416,q),
(303,420,o),
(305,425,q),
(309,429,o),
(312,435,qs),
(315,439,o),
(318,443,q),
(320,444,l),
(322,449,o),
(326,454,q),
(327,458,o),
(332,463,qs),
(335,467,o),
(335,468,q),
(342,477,o),
(345,483,q),
(349,487,o),
(352,493,q),
(356,497,o),
(359,502,qs),
(361,506,o),
(365,512,q)
);
}
);
width = 761;
}
);
unicode = 1632;
},
{
glyphname = uni0661;
layers = (
{
layerId = "07A927BF-F932-4906-9D1A-F4B6A9E74CB4";
shapes = (
{
closed = 1;
nodes = (
(159,863,l),
(257,534,o),
(257,378,qs),
(257,279,ls),
(257,117,o),
(152,0,q),
(146,3,l),
(155,59,o),
(155,124,qs),
(155,152,ls),
(155,160,o),
(159,165,q),
(155,171,o),
(155,178,qs),
(155,193,ls),
(155,432,o),
(57,701,q),
(99,778,o),
(155,863,q)
);
}
);
width = 322;
}
);
unicode = 1633;
},
{
glyphname = uni0662;
layers = (
{
layerId = "07A927BF-F932-4906-9D1A-F4B6A9E74CB4";
shapes = (
{
closed = 1;
nodes = (
(119,875,l),
(144,811,o),
(211,775,q),
(256,757,o),
(283,757,qs),
(301,757,ls),
(381,757,o),
(440,838,q),
(450,857,o),
(450,862,q),
(455,862,l),
(455,838,ls),
(455,759,o),
(401,675,q),
(343,598,o),
(255,598,q),
(249,601,o),
(247,601,q),
(306,400,o),
(306,257,qs),
(306,112,o),
(242,0,q),
(239,5,l),
(239,8,ls),
(239,348,o),
(57,713,q),
(57,716,ls),
(57,727,o),
(116,875,q)
);
}
);
width = 517;
}
);
unicode = 1634;
},
{
glyphname = uni0663;
layers = (
{
layerId = "07A927BF-F932-4906-9D1A-F4B6A9E74CB4";
shapes = (
{
closed = 1;
nodes = (
(195,736,o),
(283,736,qs),
(293,736,ls),
(381,736,o),
(458,875,q),
(463,875,l),
(502,759,o),
(584,759,qs),
(666,759,o),
(705,867,q),
(710,865,l),
(710,807,o),
(666,695,q),
(599,592,o),
(527,592,qs),
(453,592,o),
(404,700,q),
(372,639,o),
(340,610,qs),
(294,569,o),
(272,569,q),
(304,425,o),
(304,311,qs),
(304,124,o),
(216,0,q),
(210,0,l),
(224,105,o),
(224,180,qs),
(224,478,o),
(67,738,q),
(122,876,o),
(136,888,q)
);
}
);
width = 765;
}
);
unicode = 1635;
},
{
glyphname = uni0664;
layers = (
{
layerId = "07A927BF-F932-4906-9D1A-F4B6A9E74CB4";
shapes = (
{
closed = 1;
nodes = (
(475,942,l),
(408,791,l),
(355,782,o),
(290,741,q),
(259,716,o),
(259,714,qs),
(259,694,o),
(369,657,q),
(413,623,o),
(413,571,qs),
(413,506,o),
(346,419,q),
(293,360,o),
(230,325,qs),
(180,297,o),
(133,251,q),
(133,224,o),
(187,187,q),
(233,162,o),
(287,162,qs),
(298,162,ls),
(449,162,o),
(570,269,q),
(617,327,o),
(621,349,q),
(626,349,l),
(626,276,o),
(560,162,q),
(433,0,o),
(241,0,qs),
(228,0,ls),
(115,0,o),
(71,100,q),
(66,125,o),
(67,139,q),
(67,169,ls),
(67,233,o),
(130,334,q),
(158,373,o),
(239,442,q),
(264,456,o),
(310,498,q),
(300,507,o),
(215,539,q),
(180,574,o),
(180,623,qs),
(180,649,l),
(207,787,o),
(282,858,qs),
(315,889,o),
(354,906,q),
(439,947,o),
(472,947,q)
);
}
);
width = 689;
}
);
unicode = 1636;
},
{
glyphname = uni0665;
layers = (
{
layerId = "07A927BF-F932-4906-9D1A-F4B6A9E74CB4";
shapes = (
{
closed = 1;
nodes = (
(345,830,l),
(381,802,o),
(443,738,o),
(471,701,q),
(471,694,o),
(490,680,o),
(490,673,q),
(498,663,l),
(499,653,o),
(527,603,o),
(561,525,o),
(586,419,o),
(586,350,q),
(581,305,l),
(569,245,o),
(523,131,o),
(481,86,q),
(480,83,l),
(470,73,o),
(449,56,o),
(438,48,qs),
(433,44,l),
(407,31,o),
(370,13,o),
(333,4,o),
(291,0,o),
(274,0,qs),
(235,0,o),
(174,25,o),
(151,37,q),
(150,39,l),
(114,67,l),
(99,86,o),
(75,120,o),
(65,142,q),
(64,145,l),
(54,169,o),
(49,195,q),
(45,226,l),
(44,228,l),
(44,296,ls),
(44,328,o),
(56,386,o),
(76,442,o),
(100,496,o),
(110,525,q),
(112,526,l),
(130,563,o),
(177,627,o),
(229,689,o),
(282,749,o),
(305,781,q),
(307,782,l)
);
},
{
closed = 1;
nodes = (
(273,651,o),
(234,605,o),
(193,549,o),
(155,485,o),
(126,423,o),
(107,368,o),
(108,347,qs),
(109,324,l),
(110,322,l),
(117,279,o),
(164,219,o),
(230,183,o),
(308,167,o),
(339,167,qs),
(365,167,o),
(415,179,o),
(464,200,o),
(507,227,o),
(520,242,q),
(515,296,o),
(476,417,o),
(415,532,o),
(335,631,o),
(289,663,q)
);
}
);
width = 650;
}
);
unicode = 1637;
},
{
glyphname = uni0666;
layers = (
{
layerId = "07A927BF-F932-4906-9D1A-F4B6A9E74CB4";
shapes = (
{
closed = 1;
nodes = (
(472,902,o),
(476,880,o),
(476,877,q),
(470,860,o),
(455,791,o),
(442,714,o),
(433,643,o),
(434,624,q),
(433,622,l),
(434,604,o),
(432,569,o),
(432,551,qs),
(432,515,l),
(434,496,l),
(432,468,o),
(443,413,o),
(447,384,q),
(447,382,o),
(448,384,q),
(453,359,o),
(465,309,o),
(473,285,qs),
(475,277,o),
(491,237,o),
(497,221,qs),
(510,190,o),
(522,161,q),
(522,160,o),
(506,125,o),
(485,81,o),
(466,42,o),
(464,37,qs),
(448,0,l),
(439,0,o),
(420,35,o),
(399,89,o),
(379,154,o),
(363,215,o),
(352,263,o),
(351,272,qs),
(347,315,o),
(343,394,o),
(343,429,qs),
(343,495,o),
(359,612,o),
(369,669,q),
(357,668,o),
(330,655,o),
(298,640,o),
(259,629,o),
(238,629,qs),
(216,629,o),
(157,643,o),
(99,668,o),
(52,701,o),
(48,720,q),
(61,750,o),
(81,814,o),
(94,844,q),
(104,872,l),
(108,880,l),
(115,880,o),
(125,872,o),
(133,859,o),
(142,846,o),
(148,842,qs),
(186,813,o),
(270,789,o),
(310,789,qs),
(349,789,o),
(407,815,o),
(425,833,qs),
(435,843,o),
(444,865,o),
(454,886,o),
(464,902,o),
(470,902,qs)
);
}
);
width = 603;
}
);
unicode = 1638;
},
{
glyphname = uni0667;
layers = (
{
layerId = "07A927BF-F932-4906-9D1A-F4B6A9E74CB4";
shapes = (
{
closed = 1;
nodes = (
(718,920,l),
(716,873,o),
(720,779,o),
(720,733,qs),
(720,727,o),
(711,710,o),
(699,690,o),
(686,672,o),
(684,665,q),
(682,664,l),
(678,655,o),
(668,640,o),
(665,632,q),
(663,631,l),
(636,575,o),
(579,468,o),
(554,411,q),
(554,408,l),
(552,405,o),
(542,383,o),
(531,357,o),
(523,336,o),
(523,334,q),
(522,332,o),
(517,321,o),
(512,309,o),
(508,298,o),
(509,296,q),
(506,288,o),
(492,245,o),
(473,187,o),
(453,123,o),
(437,69,o),
(426,30,o),
(427,28,q),
(417,3,l),
(409,0,l),
(398,29,ls),
(393,42,o),
(386,71,o),
(382,85,qs),
(381,87,o),
(375,103,o),
(368,121,o),
(364,136,o),
(364,137,q),
(347,181,o),
(310,280,o),
(269,379,o),
(223,471,o),
(194,508,q),
(193,510,ls),
(177,542,o),
(137,604,o),
(93,661,o),
(49,719,o),
(29,749,q),
(30,754,o),
(49,802,o),
(72,859,o),
(94,911,o),
(99,918,q),
(99,916,o),
(107,904,o),
(116,890,o),
(125,877,o),
(127,876,q),
(128,874,ls),
(144,842,o),
(182,773,o),
(220,703,o),
(260,637,o),
(281,608,q),
(282,606,ls),
(320,531,o),
(379,364,o),
(417,289,q),
(416,292,o),
(420,305,o),
(425,318,o),
(429,329,o),
(428,332,q),
(448,378,o),
(484,470,o),
(521,562,o),
(562,653,o),
(585,699,qs),
(596,721,l),
(598,722,l),
(618,771,o),
(685,874,o),
(715,920,q)
);
}
);
width = 793;
}
);
unicode = 1639;
},
{
glyphname = uni0668;
layers = (
{
layerId = "07A927BF-F932-4906-9D1A-F4B6A9E74CB4";
shapes = (
{
closed = 1;
nodes = (
(407,937,ls),
(415,937,o),
(427,896,o),
(436,845,o),
(441,802,o),
(441,800,q),
(447,765,o),
(463,673,o),
(484,579,o),
(511,490,o),
(527,459,q),
(527,456,l),
(536,430,o),
(568,364,o),
(607,297,o),
(651,238,o),
(673,218,qs),
(681,211,o),
(699,193,o),
(710,186,q),
(712,185,l),
(712,183,o),
(701,160,o),
(686,127,o),
(668,88,o),
(651,52,o),
(638,26,o),
(636,21,q),
(634,19,l),
(625,19,o),
(591,64,o),
(548,132,o),
(503,213,o),
(467,286,o),
(445,339,o),
(447,345,q),
(443,357,l),
(443,360,l),
(413,437,o),
(378,613,o),
(368,695,q),
(361,675,o),
(354,630,o),
(348,584,o),
(341,540,o),
(334,519,qs),
(308,442,o),
(246,302,o),
(216,227,q),
(214,226,l),
(191,175,o),
(118,83,o),
(85,39,q),
(83,38,l),
(78,30,o),
(65,17,o),
(60,10,q),
(57,9,o),
(51,2,o),
(49,0,q),
(47,21,o),
(47,61,o),
(47,82,q),
(45,84,l),
(45,170,l),
(43,172,l),
(43,207,l),
(45,209,o),
(56,221,o),
(68,233,o),
(78,243,o),
(79,243,q),
(108,279,o),
(159,346,o),
(207,416,o),
(249,490,o),
(268,532,q),
(268,535,l),
(304,617,o),
(367,796,o),
(379,871,qs),
(383,897,o),
(392,927,o),
(402,937,q)
);
}
);
width = 803;
}
);
unicode = 1640;
},
{
glyphname = uni0669;
layers = (
{
layerId = "07A927BF-F932-4906-9D1A-F4B6A9E74CB4";
shapes = (
{
closed = 1;
nodes = (
(254,1002,o),
(270,998,o),
(278,995,q),
(286,984,o),
(314,976,o),
(325,969,q),
(326,967,l),
(335,959,o),
(348,943,o),
(356,935,q),
(358,930,l),
(374,900,o),
(384,871,q),
(397,827,o),
(405,734,o),
(405,688,q),
(406,686,l),
(407,645,o),
(406,563,o),
(405,522,q),
(408,460,l),
(409,458,l),
(414,378,l),
(416,376,o),
(417,359,o),
(417,357,q),
(420,335,o),
(430,284,o),
(440,263,q),
(440,260,l),
(445,246,l),
(454,224,o),
(473,180,o),
(489,163,q),
(491,160,l),
(491,157,o),
(479,132,o),
(461,98,o),
(439,60,o),
(421,26,o),
(408,2,o),
(408,0,q),
(403,4,o),
(395,22,o),
(387,40,o),
(381,54,o),
(378,56,q),
(372,70,l),
(372,73,l),
(348,131,o),
(325,259,o),
(314,389,o),
(314,520,o),
(314,582,q),
(315,584,l),
(315,604,l),
(284,599,o),
(226,593,o),
(197,594,q),
(196,595,o),
(189,596,o),
(181,596,o),
(173,596,o),
(172,596,q),
(167,600,o),
(146,602,o),
(117,609,o),
(86,623,o),
(60,654,o),
(43,705,o),
(43,746,q),
(44,747,o),
(46,758,o),
(48,772,o),
(49,784,o),
(50,787,qs),
(73,852,l),
(75,854,l),
(82,869,o),
(97,897,o),
(105,912,q),
(107,913,l),
(131,951,o),
(199,1002,o),
(243,1002,qs)
);
},
{
closed = 1;
nodes = (
(169,840,o),
(151,833,o),
(131,823,o),
(115,814,o),
(115,810,qs),
(115,801,o),
(159,781,o),
(214,768,o),
(266,761,o),
(274,761,q),
(274,764,l),
(264,779,o),
(246,807,o),
(222,828,o),
(192,840,o),
(178,840,qs)
);
}
);
width = 565;
}
);
unicode = 1641;
},
{
glyphname = uni066A;
layers = (
{
layerId = "07A927BF-F932-4906-9D1A-F4B6A9E74CB4";
shapes = (
{
closed = 1;
nodes = (
(304,874,o),
(260,829,o),
(228,829,qs),
(198,829,o),
(153,874,o),
(153,904,qs),
(153,934,o),
(198,979,o),
(228,979,qs),
(259,979,o),
(304,934,o),
(304,904,qs)
);
},
{
closed = 1;
nodes = (
(618,1031,l),
(180,-308,l),
(109,-308,l),
(547,1031,l)
);
},
{
closed = 1;
nodes = (
(574,-223,o),
(529,-268,o),
(499,-268,qs),
(468,-268,o),
(423,-224,o),
(423,-162,o),
(467,-117,o),
(499,-117,qs),
(529,-117,o),
(574,-162,o),
(574,-193,qs)
);
}
);
width = 717;
}
);
unicode = 1642;
},
{
glyphname = uni066B;
layers = (
{
layerId = "07A927BF-F932-4906-9D1A-F4B6A9E74CB4";
shapes = (
{
closed = 1;
nodes = (
(103,-147,l),
(135,-136,o),
(194,-100,o),
(238,-53,o),
(264,6,o),
(264,39,qs),
(264,62,o),
(249,106,o),
(223,141,o),
(184,163,o),
(160,163,qs),
(134,163,o),
(97,134,o),
(97,109,qs),
(97,98,o),
(106,77,o),
(115,72,q),
(148,70,o),
(184,30,o),
(184,-4,qs),
(184,-46,o),
(132,-105,o),
(92,-123,q)
);
}
);
width = 325;
}
);
unicode = 1643;
},
{
glyphname = uni066C;
layers = (
{
layerId = "07A927BF-F932-4906-9D1A-F4B6A9E74CB4";
shapes = (
{
closed = 1;
nodes = (
(103,-147,l),
(135,-136,o),
(194,-100,o),
(238,-53,o),
(264,6,o),
(264,39,qs),
(264,62,o),
(249,106,o),
(223,141,o),
(184,163,o),
(160,163,qs),
(134,163,o),
(97,134,o),
(97,109,qs),
(97,98,o),
(106,77,o),
(115,72,q),
(148,70,o),
(184,30,o),
(184,-4,qs),
(184,-46,o),
(132,-105,o),
(92,-123,q)
);
}
);
width = 325;
}
);
unicode = 1644;
},
{
glyphname = uni066D;
layers = (
{
layerId = "07A927BF-F932-4906-9D1A-F4B6A9E74CB4";
shapes = (
{
closed = 1;
nodes = (
(566,783,l),
(441,698,l),
(493,549,l),
(359,641,l),
(225,549,l),
(277,698,l),
(151,783,l),
(307,783,l),
(359,928,l),
(410,783,l)
);
}
);
width = 717;
}
);
unicode = 1645;
},
{
glyphname = uni0670;
layers = (
{
layerId = "07A927BF-F932-4906-9D1A-F4B6A9E74CB4";
shapes = (
{
closed = 1;
nodes = (
(74,403,o),
(74,400,q),
(75,398,o),
(77,393,qs),
(81,382,l),
(81,379,o),
(82,375,qs),
(83,373,o),
(84,369,qs),
(85,366,o),
(86,363,qs),
(87,361,o),
(88,357,q),
(88,354,o),
(89,350,q),
(89,347,o),
(91,345,q),
(91,342,o),
(92,338,qs),
(93,335,o),
(94,332,q),
(94,329,o),
(96,325,q),
(96,323,o),
(97,319,qs),
(98,316,o),
(99,312,qs),
(101,306,l),
(101,303,o),
(102,300,q),
(102,297,o),
(104,293,q),
(104,291,o),
(105,286,q),
(105,284,o),
(107,280,q),
(107,278,o),
(108,273,q),
(108,271,o),
(108,267,q),
(109,264,o),
(110,261,q),
(110,258,o),
(111,254,q),
(111,251,o),
(112,246,qs),
(113,244,o),
(114,240,q),
(114,233,ls),
(114,231,o),
(115,226,qs),
(116,223,o),
(116,219,q),
(117,217,o),
(117,212,q),
(119,203,l),
(119,195,l),
(120,191,l),
(120,184,ls),
(120,182,o),
(121,176,q),
(121,172,o),
(121,168,qs),
(121,127,l),
(120,122,l),
(120,118,o),
(120,114,q),
(119,111,o),
(119,107,q),
(118,105,o),
(118,100,q),
(116,93,l),
(116,90,o),
(114,84,o),
(114,80,q),
(113,78,o),
(112,73,qs),
(111,70,o),
(110,68,qs),
(109,65,o),
(108,61,qs),
(107,56,ls),
(106,53,o),
(106,52,q),
(104,47,o),
(102,44,qs),
(101,42,o),
(100,38,q),
(99,37,o),
(97,33,qs),
(91,24,l),
(89,18,l),
(87,17,o),
(86,13,q),
(84,11,o),
(82,10,q),
(81,8,o),
(78,5,qs),
(77,4,o),
(76,3,qs),
(73,0,o),
(69,-2,q),
(70,3,l),
(70,5,o),
(71,10,q),
(71,12,o),
(72,17,q),
(72,24,ls),
(72,28,o),
(73,31,q),
(73,39,l),
(74,43,l),
(74,108,l),
(73,110,o),
(73,112,qs),
(73,116,ls),
(73,118,o),
(72,123,q),
(72,130,l),
(70,145,l),
(70,149,o),
(69,152,q),
(69,159,l),
(68,166,l),
(68,170,o),
(68,173,q),
(64,194,l),
(64,196,o),
(63,200,qs),
(62,203,o),
(61,207,q),
(61,210,o),
(60,213,q),
(60,217,l),
(56,229,l),
(56,233,l),
(55,236,o),
(54,239,q),
(54,241,o),
(53,243,q),
(53,246,l),
(52,249,o),
(51,252,qs),
(50,254,o),
(49,258,q),
(49,262,l),
(48,265,ls),
(47,268,o),
(47,271,q),
(46,273,o),
(45,277,q),
(43,280,o),
(43,284,q),
(41,286,o),
(41,289,q),
(40,291,o),
(39,295,qs),
(38,298,o),
(37,302,q),
(35,305,o),
(35,307,q),
(33,313,ls),
(32,315,o),
(31,319,qs),
(28,328,l),
(28,331,l),
(30,333,o),
(31,336,q),
(34,341,l),
(35,344,o),
(37,345,q),
(38,347,o),
(39,348,q),
(41,353,o),
(43,356,qs),
(45,358,o),
(46,361,q),
(48,363,o),
(50,367,o),
(52,370,qs),
(53,373,o),
(55,376,qs),
(61,385,ls),
(62,387,o),
(64,390,qs),
(65,392,o),
(67,395,qs),
(68,398,o),
(69,400,q),
(71,401,o),
(72,405,q)
);
}
);
width = 156;
}
);
unicode = 1648;
},
{
glyphname = uni0671;
layers = (
{
layerId = "07A927BF-F932-4906-9D1A-F4B6A9E74CB4";
shapes = (
{
closed = 1;
nodes = (
(88,1356,o),
(72,1333,o),
(67,1326,q),
(118,677,l),
(121,675,o),
(117,665,o),
(120,663,q),
(125,612,l),
(125,607,o),
(127,581,o),
(129,551,o),
(131,528,o),
(132,527,q),
(136,442,o),
(149,273,o),
(155,187,q),
(156,185,o),
(158,132,o),
(158,65,o),
(158,4,o),
(163,-5,q),
(172,3,l),
(172,9,o),
(198,59,o),
(228,136,o),
(253,238,o),
(253,305,qs),
(253,355,o),
(240,472,o),
(238,532,q),
(237,534,l),
(230,646,o),
(220,887,o),
(207,1127,o),
(187,1358,o),
(172,1463,q),
(169,1466,l),
(167,1466,o),
(167,1463,o),
(167,1462,q),
(164,1457,o),
(141,1427,o),
(115,1392,o),
(94,1365,o),
(93,1365,q)
);
},
{
closed = 1;
nodes = (
(383,1724,ls),
(383,1808,o),
(306,1808,qs),
(249,1808,o),
(191,1763,qs),
(140,1724,o),
(111,1664,q),
(81,1664,o),
(-7,1621,o),
(-23,1596,q),
(-24,1592,o),
(-24,1588,qs),
(-24,1586,o),
(-25,1584,q),
(-25,1568,o),
(-22,1556,q),
(7,1605,o),
(149,1605,qs),
(183,1605,ls),
(279,1605,o),
(322,1623,qs),
(383,1649,l)
);
},
{
closed = 1;
nodes = (
(327,1721,ls),
(327,1664,o),
(187,1664,qs),
(149,1664,l),
(198,1753,o),
(279,1753,qs),
(327,1753,l)
);
}
);
width = 302;
}
);
unicode = 1649;
},
{
glyphname = uni0672;
layers = (
{
layerId = "07A927BF-F932-4906-9D1A-F4B6A9E74CB4";
shapes = (
{
closed = 1;
nodes = (
(88,1356,o),
(72,1333,o),
(67,1326,q),
(118,677,l),
(121,675,o),
(117,665,o),
(120,663,q),
(125,612,l),
(125,607,o),
(127,581,o),
(129,551,o),
(131,528,o),
(132,527,q),
(136,442,o),
(149,273,o),
(155,187,q),
(156,185,o),
(158,132,o),
(158,65,o),
(158,4,o),
(163,-5,q),
(172,3,l),
(172,9,o),
(198,59,o),
(228,136,o),
(253,238,o),
(253,305,qs),
(253,355,o),
(240,472,o),
(238,532,q),
(237,534,l),
(230,646,o),
(220,887,o),
(207,1127,o),
(187,1358,o),
(172,1463,q),
(169,1466,l),
(167,1466,o),
(167,1463,o),
(167,1462,q),
(164,1457,o),
(141,1427,o),
(115,1392,o),
(94,1365,o),
(93,1365,q)
);
},
{
closed = 1;
nodes = (
(-5,1854,l),
(-54,1735,o),
(53,1672,q),
(44,1666,o),
(-17,1622,o),
(-64,1565,o),
(-67,1538,q),
(-67,1523,l),
(-56,1525,o),
(34,1591,o),
(113,1638,o),
(244,1725,o),
(259,1729,q),
(317,1821,l),
(318,1839,o),
(172,1758,o),
(149,1741,q),
(142,1744,l),
(102,1765,o),
(58,1800,o),
(31,1834,o),
(24,1844,q),
(114,1910,o),
(211,1881,q),
(232,1950,o),
(170,1975,q),
(163,1975,l),
(139,1979,o),
(125,1977,q),
(24,1948,l)
);
}
);
width = 285;
}
);
unicode = 1650;
},
{
glyphname = uni0674;
layers = (
{
layerId = "07A927BF-F932-4906-9D1A-F4B6A9E74CB4";
shapes = (
{
closed = 1;
nodes = (
(91,1414,o),
(192,1443,q),
(206,1445,o),
(230,1441,q),
(237,1441,l),
(299,1416,o),
(278,1347,q),
(181,1376,o),
(91,1310,q),
(98,1300,o),
(126,1266,o),
(169,1231,o),
(209,1210,q),
(216,1207,l),
(239,1224,o),
(385,1305,o),
(384,1287,q),
(326,1195,l),
(311,1191,o),
(180,1104,o),
(101,1057,o),
(11,991,o),
(0,989,q),
(0,1004,l),
(3,1031,o),
(50,1088,o),
(111,1132,o),
(120,1138,q),
(13,1201,o),
(62,1320,q)
);
}
);
width = 254;
}
);
unicode = 1652;
},
{
glyphname = uni0678;
layers = (
{
layerId = "07A927BF-F932-4906-9D1A-F4B6A9E74CB4";
shapes = (
{
closed = 1;
nodes = (
(929,1117,o),
(1030,1146,q),
(1044,1148,o),
(1068,1144,q),
(1075,1144,l),
(1137,1119,o),
(1116,1050,q),
(1019,1079,o),
(929,1013,q),
(936,1003,o),
(964,969,o),
(1007,934,o),
(1047,913,q),
(1054,910,l),
(1077,927,o),
(1223,1008,o),
(1222,990,q),
(1164,898,l),
(1149,894,o),
(1018,807,o),
(939,760,o),
(849,694,o),
(838,692,q),
(838,707,l),
(841,734,o),
(888,791,o),
(949,835,o),
(958,841,q),
(851,904,o),
(900,1023,q)
);
}
);
width = 1090;
}
);
unicode = 1656;
},
{
glyphname = uni067E;
layers = (
{
layerId = "07A927BF-F932-4906-9D1A-F4B6A9E74CB4";
shapes = (
{
closed = 1;
nodes = (
(716,-255,o),
(763,-307,o),
(819,-354,q),
(711,-467,l),
(651,-430,o),
(600,-356,q),
(692,-264,o),
(702,-252,q)
);
},
{
closed = 1;
nodes = (
(495,-262,o),
(542,-315,o),
(598,-361,q),
(600,-364,l),
(489,-474,l),
(429,-437,o),
(378,-363,q),
(471,-271,o),
(481,-259,q)
);
},
{
closed = 1;
nodes = (
(608,-457,o),
(655,-510,o),
(711,-556,q),
(713,-559,l),
(708,-562,o),
(602,-669,q),
(542,-632,o),
(491,-558,q),
(584,-466,o),
(594,-454,q)
);
},
{
closed = 1;
nodes = (
(1161,685,o),
(1180,653,o),
(1198,603,o),
(1214,542,o),
(1227,484,o),
(1234,437,o),
(1234,416,qs),
(1234,375,o),
(1211,291,o),
(1191,247,q),
(1162,199,l),
(1161,199,o),
(1152,187,o),
(1143,174,o),
(1138,168,q),
(1134,162,l),
(1116,144,o),
(1070,114,o),
(1019,88,o),
(968,64,o),
(945,52,q),
(941,53,o),
(934,49,o),
(931,47,q),
(902,35,o),
(840,14,o),
(806,6,qs),
(747,-9,o),
(620,-25,o),
(562,-25,qs),
(534,-25,o),
(492,-21,o),
(473,-23,q),
(472,-22,o),
(454,-20,o),
(431,-17,o),
(409,-15,o),
(406,-15,q),
(378,-11,o),
(310,3,o),
(243,26,o),
(181,56,o),
(159,76,q),
(158,80,o),
(123,113,o),
(82,168,o),
(50,246,o),
(50,293,qs),
(50,371,l),
(52,372,o),
(53,382,o),
(54,392,o),
(55,403,o),
(55,404,q),
(59,433,o),
(79,482,o),
(103,530,o),
(127,577,o),
(134,601,q),
(150,616,l),
(152,614,o),
(157,606,o),
(157,604,qs),
(157,585,o),
(147,547,o),
(135,506,o),
(125,464,o),
(125,438,qs),
(125,361,o),
(210,238,o),
(279,202,q),
(280,200,l),
(301,190,l),
(304,185,o),
(332,174,o),
(372,163,o),
(419,151,o),
(462,143,o),
(495,138,o),
(502,138,q),
(503,136,o),
(533,135,o),
(567,133,o),
(599,133,o),
(601,133,qs),
(626,133,o),
(677,138,o),
(701,139,q),
(771,148,ls),
(815,154,o),
(902,177,o),
(944,190,qs),
(954,193,o),
(974,206,o),
(994,215,o),
(1013,221,o),
(1023,218,q),
(1037,225,l),
(1039,224,o),
(1040,226,o),
(1042,226,q),
(1047,229,o),
(1078,242,o),
(1113,257,o),
(1142,269,o),
(1144,272,q),
(1150,274,o),
(1162,280,o),
(1167,284,q),
(1167,353,o),
(1120,478,o),
(1083,535,q),
(1096,572,o),
(1130,641,o),
(1149,677,q),
(1151,679,o),
(1151,685,o),
(1153,685,qs)
);
}
);
width = 1274;
}
);
unicode = 1662;
},
{
glyphname = uni0686;
layers = (
{
anchors = (
{
name = t.uni064B;
position = "{514, 1018}";
},
{
name = b.uni064D_1;
position = "{576, -1071}";
}
);
layerId = "07A927BF-F932-4906-9D1A-F4B6A9E74CB4";
shapes = (
{
closed = 1;
nodes = (
(154,538,o),
(191,633,o),
(255,702,o),
(345,742,o),
(402,742,qs),
(471,742,o),
(608,724,o),
(745,703,o),
(883,685,o),
(954,685,q),
(1034,687,l),
(1079,687,l),
(1121,689,l),
(1146,689,l),
(1152,689,l),
(1157,689,l),
(1158,688,l),
(1157,687,l),
(1157,689,l),
(1156,688,l),
(1155,687,l),
(1134,647,l),
(1131,645,o),
(1111,609,o),
(1087,566,o),
(1065,527,o),
(1062,522,q),
(931,514,o),
(702,438,o),
(507,309,o),
(345,129,o),
(280,17,q),
(280,11,l),
(277,5,o),
(265,-21,o),
(253,-50,o),
(245,-77,o),
(246,-82,q),
(240,-92,o),
(230,-134,o),
(225,-182,o),
(221,-226,o),
(221,-247,qs),
(221,-322,o),
(269,-459,o),
(358,-570,o),
(480,-654,o),
(549,-681,qs),
(560,-685,o),
(583,-693,o),
(607,-701,o),
(625,-707,o),
(626,-708,q),
(749,-737,o),
(876,-737,qs),
(998,-737,o),
(1234,-685,o),
(1348,-640,q),
(1347,-640,o),
(1334,-651,o),
(1320,-663,o),
(1307,-674,o),
(1306,-674,q),
(1287,-689,l),
(1287,-692,o),
(1264,-709,o),
(1229,-731,o),
(1188,-754,o),
(1152,-775,o),
(1128,-789,o),
(1127,-790,q),
(1093,-800,o),
(1019,-831,o),
(942,-858,o),
(865,-875,o),
(828,-872,q),
(826,-874,o),
(799,-876,o),
(767,-877,o),
(738,-877,o),
(728,-877,qs),
(703,-877,o),
(630,-877,o),
(556,-864,o),
(486,-846,o),
(457,-832,qs),
(371,-790,l),
(364,-785,o),
(351,-778,o),
(345,-773,qs),
(343,-772,o),
(324,-757,o),
(302,-739,o),
(285,-725,o),
(284,-725,q),
(271,-710,o),
(228,-651,o),
(188,-592,o),
(159,-547,o),
(158,-546,q),
(154,-532,o),
(140,-501,o),
(139,-485,q),
(137,-484,o),
(132,-466,o),
(128,-446,o),
(127,-438,qs),
(126,-430,l),
(123,-427,o),
(119,-397,o),
(116,-363,o),
(116,-332,o),
(116,-331,qs),
(116,-216,o),
(163,-13,o),
(250,171,o),
(375,339,o),
(451,415,qs),
(470,434,o),
(514,464,o),
(560,492,o),
(604,519,o),
(626,535,q),
(637,537,o),
(645,544,q),
(612,544,o),
(547,559,o),
(482,573,o),
(418,584,o),
(386,584,qs),
(317,584,o),
(199,530,o),
(150,485,q)
);
},
{
closed = 1;
nodes = (
(907,-16,l),
(913,-17,o),
(946,-46,o),
(984,-81,o),
(1018,-113,o),
(1024,-118,q),
(916,-231,l),
(883,-210,o),
(826,-152,o),
(804,-120,q)
);
},
{
closed = 1;
nodes = (
(685,-16,l),
(690,-17,o),
(724,-46,o),
(763,-82,o),
(798,-114,o),
(802,-118,q),
(804,-121,l),
(694,-231,l),
(661,-210,o),
(604,-152,o),
(582,-120,q)
);
},
{
closed = 1;
nodes = (
(798,-218,l),
(803,-219,o),
(837,-247,o),
(876,-284,o),
(911,-316,o),
(916,-320,q),
(917,-323,l),
(807,-433,l),
(774,-412,o),
(718,-354,o),
(696,-322,q)
);
}
);
width = 1243;
}
);
unicode = 1670;
},
